SplineFontDB: 3.2
FontName: Dakkhinee-Regular
FullName: Dakkhinee Regular
FamilyName: Dakkhinee
Weight: Regular
Copyright: Copyright 2024 The Dakkhinee Project Authors (https://github.com/mitradranirban/font-dakkhinee)
FontLog: "Dakkhinee - A Bengali Bangla font with glyphs desig inspired by Kannada or Telegu letter forms "
Version: 1.000
ItalicAngle: 0
UnderlinePosition: -366
UnderlineWidth: 73
Ascent: 800
Descent: 200
InvalidEm: 0
LayerCount: 2
Layer: 0 0 "Back" 1
Layer: 1 0 "Fore" 0
NeedsXUIDChange: 1
XUID: [1021 498 675293083 873108]
UseXUID: 1
BaseVert: 2 'hang' 'romn'
BaseScript: 'beng' 0  1024 0
BaseScript: 'deva' 0  1024 0
BaseScript: 'latn' 1  0 0
StyleMap: 0x0040
FSType: 0
OS2Version: 4
OS2_WeightWidthSlopeOnly: 1
OS2_UseTypoMetrics: 1
CreationTime: 1638213189
ModificationTime: 1724089240
PfmFamily: 81
TTFWeight: 400
TTFWidth: 5
LineGap: 0
VLineGap: 0
OS2TypoAscent: 1200
OS2TypoAOffset: 0
OS2TypoDescent: -300
OS2TypoDOffset: 0
OS2TypoLinegap: 0
OS2WinAscent: 1295
OS2WinAOffset: 0
OS2WinDescent: 672
OS2WinDOffset: 0
HheadAscent: 1200
HheadAOffset: 0
HheadDescent: -300
HheadDOffset: 0
OS2CapHeight: 800
OS2XHeight: 508
OS2Vendor: 'anir'
OS2UnicodeRanges: 80018007.00002002.00000000.00000000
Lookup: 4 0 1 "'liga' Standard Ligatures in Latin lookup 0" { "'liga' Standard Ligatures in Latin lookup 0-1"  } ['liga' ('DFLT' <'dflt' > 'latn' <'dflt' > ) ]
Lookup: 1 0 0 "'init' Initial Forms in Bengali2 lookup 0" { "'init' Initial Forms in Bengali lookup 0 subtable"  } ['init' ('bng2' <'ASM ' 'dflt' > ) ]
Lookup: 4 0 0 "'nukt' Nukta Forms in Bengali2 lookup 1" { "'nukt' Nukta Forms in Bengali lookup 1 subtable"  } ['nukt' ('bng2' <'ASM ' 'dflt' > ) ]
Lookup: 4 0 0 "'akhn' Akhand in Bengali2 lookup 2" { "'akhn' Akhand in Bengali lookup 2 subtable"  } ['akhn' ('bng2' <'dflt' > ) ]
Lookup: 4 0 0 "'rphf' Reph Form in Bengali2 lookup 3" { "'rphf' Reph Form in Bengali lookup 3 subtable"  } ['rphf' ('bng2' <'dflt' > ) 'rphf' ('bng2' <'ASM ' > ) ]

StartChar: comma
Encoding: 44 44 2
GlifName: comma
Width: 226
GlyphClass: 2
Flags: HMW
LayerCount: 2
Fore
SplineSet
81 -162 m 0
 74 -162 70 -160 66 -156 c 0
 62 -152 60 -148 60 -142 c 0
 60 -132 63 -122 69 -114 c 0
 75 -106 82 -97 88 -88 c 0
 94 -79 97 -67 97 -54 c 0
 97 -42 95 -32 90 -24 c 0
 85 -16 80 -8 74 -2 c 0
 68 4 62 10 57 18 c 0
 52 26 50 36 50 47 c 0
 50 64 55 77 66 87 c 0
 77 97 91 102 108 102 c 0
 128 102 144 94 157 78 c 0
 170 62 176 41 176 13 c 0
 176 -6 173 -25 168 -46 c 0
 163 -67 155 -86 146 -104 c 0
 137 -122 126 -135 115 -146 c 0
 104 -157 92 -162 81 -162 c 0
EndSplineSet
Validated: 1
EndChar

StartChar: danda
Encoding: 2404 2404 3
GlifName: danda
Width: 254
GlyphClass: 2
Flags: HMW
LayerCount: 2
Fore
SplineSet
60 -113 m 1
 60 496 l 1
 205 676 l 1
 205 41 l 1
 60 -113 l 1
EndSplineSet
Validated: 1
EndChar

StartChar: doubledanda
Encoding: 2405 2405 4
GlifName: doubledanda
Width: 625
GlyphClass: 2
Flags: HMW
LayerCount: 2
Fore
SplineSet
348 -113 m 1
 348 496 l 1
 493 676 l 1
 493 41 l 1
 348 -113 l 1
60 -113 m 1
 60 496 l 1
 205 676 l 1
 205 41 l 1
 60 -113 l 1
EndSplineSet
Validated: 1
EndChar

StartChar: u0981
Encoding: 2433 2433 5
GlifName: u0981
Width: 0
VWidth: 1024
GlyphClass: 4
Flags: HMW
AnchorPoint: "Anchor-0" -197 968 mark 0
LayerCount: 2
Fore
SplineSet
-211 986 m 0
 -299 986 -390 1048 -390 1132 c 0
 -390 1157 -383 1182 -368 1206 c 0
 -353 1230 -339 1252 -312 1272 c 1
 -262 1252 l 1
 -299 1225 -338 1186 -338 1132 c 0
 -338 1067 -278 1018 -211 1018 c 0
 -144 1018 -84 1067 -84 1132 c 0
 -84 1153 -91 1173 -104 1194 c 0
 -117 1215 -135 1234 -160 1252 c 1
 -110 1272 l 1
 -67 1241 -25 1196 -25 1132 c 0
 -25 1044 -119 986 -211 986 c 0
-213 1181 m 0
 -231 1181 -246 1167 -246 1149 c 0
 -246 1131 -231 1116 -213 1116 c 0
 -195 1116 -180 1131 -180 1149 c 0
 -180 1167 -195 1181 -213 1181 c 0
-213 1084 m 0
 -249 1084 -278 1113 -278 1149 c 0
 -278 1185 -249 1214 -213 1214 c 0
 -175 1214 -148 1185 -148 1149 c 0
 -148 1113 -177 1084 -213 1084 c 0
EndSplineSet
Validated: 1
Substitution2: "Single Substitution Lookup 27" u0981.salt
EndChar

StartChar: u0982
Encoding: 2434 2434 6
GlifName: u0982
Width: 539
VWidth: 1024
GlyphClass: 2
Flags: HMW
LayerCount: 2
Fore
SplineSet
233 710 m 0
 197 710 168 681 168 645 c 0
 168 609 197 580 233 580 c 0
 269 580 298 609 298 645 c 0
 298 663 290 676 279 691 c 0
 266 709 251 710 233 710 c 0
233 524 m 0
 161 524 103 582 103 654 c 0
 103 726 161 784 233 784 c 0
 278 784 300 771 325 746 c 0
 350 721 363 690 363 654 c 0
 363 582 305 524 233 524 c 0
1 307 m 1
 6 410 117 475 215 475 c 2
 223 475 l 1
 293 473 353 447 404 396 c 0
 470 330 511 246 511 125 c 0
 511 87 506 49 496 10 c 1
 395 -91 l 1
 417 -29 429 30 429 89 c 0
 429 196 397 275 340 332 c 0
 309 363 270 391 220 396 c 1
 245 371 259 341 259 305 c 0
 259 235 199 174 129 174 c 0
 61 174 1 229 1 299 c 2
 1 307 l 1
181 305 m 0
 181 332 156 357 129 357 c 0
 102 357 76 332 76 305 c 0
 76 277 101 252 129 252 c 0
 156 252 181 278 181 305 c 0
EndSplineSet
Validated: 1
EndChar

StartChar: u0983
Encoding: 2435 2435 7
GlifName: u0983
Width: 423
VWidth: 1024
GlyphClass: 2
Flags: HMW
LayerCount: 2
Fore
SplineSet
233 195 m 0
 197 195 168 166 168 130 c 0
 168 94 197 65 233 65 c 0
 269 65 298 94 298 130 c 0
 298 166 269 195 233 195 c 0
233 0 m 0
 161 0 103 58 103 130 c 0
 103 202 161 260 233 260 c 0
 305 260 363 202 363 130 c 0
 363 58 305 0 233 0 c 0
233 520 m 0
 197 520 168 491 168 455 c 0
 168 419 197 390 233 390 c 0
 269 390 298 419 298 455 c 0
 298 491 269 520 233 520 c 0
233 325 m 0
 161 325 103 383 103 455 c 0
 103 527 161 585 233 585 c 0
 278 585 300 572 325 547 c 0
 350 522 363 491 363 455 c 0
 363 383 305 325 233 325 c 0
EndSplineSet
Validated: 1
EndChar

StartChar: u09a4
Encoding: 2468 2468 8
GlifName: u09a4
Width: 790
GlyphClass: 2
Flags: HMW
LayerCount: 2
Fore
SplineSet
403 818 m 2
 480 818 538 817 581 817 c 0
 705 817 712 825 712 885 c 0
 712 908 693 945 674 961 c 2
 657 975 l 1
 677 998 l 2
 689 1012 701 1022 705 1023 c 0
 749 1023 790 929 790 882 c 0
 790 843 775 808 745 780 c 0
 705 741 710 742 413 740 c 1
 -1 740 l 1
 -1 741 l 1
 -11 741 l 2
 -30 741 -49 741 -69 742 c 1
 -69 742 -39 756 -20 775 c 0
 -14 781 -7 794 -1 805 c 1
 -1 818 l 1
 7 818 l 1
 8 819 l 1
 8 818 l 1
 403 818 l 2
566 597 m 0
 535 597 492 579 492 542 c 0
 492 513 537 490 562 446 c 2
 575 423 l 1
 532 424 488 426 445 427 c 1
 428 444 l 2
 405 468 386 513 385 543 c 0
 385 632 463 704 557 704 c 0
 695 704 758 571 758 427 c 0
 758 210 607 53 388 42 c 0
 380 42 372 41 364 41 c 0
 145 41 0 200 0 420 c 0
 0 572 51 705 169 705 c 0
 243 705 306 635 306 544 c 0
 304 451 251 384 166 384 c 0
 143 384 120 394 104 394 c 0
 101 394 100 392 100 385 c 0
 100 234 235 131 360 131 c 0
 366 131 373 132 379 132 c 0
 554 145 661 255 661 428 c 0
 661 516 619 597 566 597 c 0
208 541 m 0
 208 568 192 610 163 610 c 0
 139 610 116 579 116 544 c 0
 116 507 141 479 165 479 c 0
 191 479 208 512 208 541 c 0
EndSplineSet
Validated: 1
EndChar

StartChar: u09ce
Encoding: 2510 2510 9
GlifName: u09ce
Width: 502
VWidth: 1024
GlyphClass: 2
Flags: HMW
LayerCount: 2
Fore
SplineSet
249 660 m 0
 153 660 66 604 66 512 c 0
 66 472 87 437 129 408 c 0
 171 379 223 365 283 365 c 0
 341 365 391 348 432 314 c 0
 473 280 493 240 493 192 c 0
 493 121 435 66 372 55 c 1
 283 55 l 1
 349 67 419 119 419 192 c 0
 419 254 349 291 283 291 c 0
 208 291 142 313 89 356 c 0
 36 399 9 451 9 512 c 0
 9 579 30 633 74 673 c 0
 118 713 177 733 251 733 c 0
 371 733 493 676 493 565 c 0
 493 527 480 495 452 468 c 0
 424 441 391 428 351 428 c 0
 289 428 230 472 230 533 c 0
 230 567 259 596 293 596 c 0
 325 596 356 575 356 544 c 0
 356 522 345 506 330 497 c 1
 334 495 340 491 346 491 c 0
 389 491 430 523 430 565 c 0
 430 636 332 660 249 660 c 0
EndSplineSet
Validated: 1
Ligature2: "'half' Half Forms in Bengali lookup 5 subtable" u09a4 u09cd zwj
Colour: ff0000
EndChar

StartChar: zwnj
Encoding: 8204 8204 10
GlifName: zwnj
Width: 0
GlyphClass: 2
Flags: HMW
LayerCount: 2
Fore
SplineSet
-12 683 m 1
 13 683 l 1
 13 12 l 1
 -13 12 l 1
 -12 683 l 1
EndSplineSet
Validated: 1
EndChar

StartChar: zwj
Encoding: 8205 8205 11
GlifName: zwj
Width: 0
GlyphClass: 2
Flags: HMW
LayerCount: 2
Fore
SplineSet
-19 10 m 1
 -19 605 l 1
 -102 532 l 1
 -131 542 l 1
 -34 630 l 1
 -146 688 l 1
 -126 723 l 1
 0 645 l 1
 93 723 l 1
 123 698 l 1
 20 625 l 1
 127 557 l 1
 118 537 l 1
 20 601 l 1
 20 15 l 1
 -19 10 l 1
EndSplineSet
Validated: 1
EndChar

StartChar: quotedblleft
Encoding: 8220 8220 12
GlifName: quotedblleft
Width: 273
GlyphClass: 2
Flags: HMW
LayerCount: 2
Fore
SplineSet
230 532 m 0
 227 531 223 531 220 531 c 0
 216 531 213 531 209 533 c 0
 202 536 197 541 194 549 c 2
 135 684 l 2
 133 689 132 693 132 698 c 0
 132 703 133 709 135 714 c 0
 139 723 147 730 157 734 c 0
 162 736 166 736 171 736 c 0
 176 736 182 735 187 733 c 0
 197 729 203 721 207 710 c 2
 249 569 l 2
 250 566 250 563 250 560 c 0
 250 556 249 551 247 547 c 0
 244 540 238 535 230 532 c 0
117 491 m 0
 113 490 110 489 107 489 c 0
 103 489 99 490 95 492 c 0
 88 495 84 500 81 508 c 2
 21 643 l 2
 19 648 18 652 18 657 c 0
 18 662 20 668 22 673 c 0
 26 683 33 689 44 693 c 0
 48 695 53 696 57 696 c 0
 63 696 69 695 74 692 c 0
 84 687 90 680 94 669 c 2
 134 527 l 2
 135 524 136 520 136 517 c 0
 136 513 136 510 134 506 c 0
 131 499 125 494 117 491 c 0
EndSplineSet
Validated: 1
EndChar

StartChar: euro
Encoding: 8364 8364 14
GlifName: euro
Width: 501
GlyphClass: 2
Flags: HMW
LayerCount: 2
Fore
SplineSet
270 426 m 1
 493 426 l 1
 493 385 l 1
 256 385 l 1
 249 374 l 1
 244 330 l 1
 248 318 253 284 260 269 c 1
 251 312 l 1
 494 312 l 1
 494 267 l 1
 261 267 l 1
 270 248 280 248 293 225 c 0
 316 184 375 129 469 61 c 1
 464 12 l 2
 463 12 462 12 461 12 c 0
 451 12 434 20 409 37 c 0
 395 46 378 58 359 73 c 0
 267 144 236 170 194 267 c 1
 6 267 l 1
 6 313 l 1
 183 313 l 1
 176 330 l 1
 176 347 182 368 193 394 c 1
 188 386 l 1
 6 386 l 1
 6 426 l 1
 200 426 l 1
 207 440 215 454 225 470 c 0
 291 579 376 620 479 627 c 1
 493 574 l 1
 454 571 415 556 376 532 c 0
 343 511 308 487 270 426 c 1
EndSplineSet
Validated: 1
EndChar

StartChar: uni25CC
Encoding: 9676 9676 15
GlifName: uni25C_C_
Width: 845
VWidth: 1024
GlyphClass: 2
Flags: HMW
AnchorPoint: "Anchor-0" 442 748 basechar 0
AnchorPoint: "Anchor-1" 486 -30 basechar 0
LayerCount: 2
Fore
SplineSet
528 88 m 0
 528 113 550 135 575 135 c 0
 600 135 621 113 621 88 c 0
 621 62 601 40 575 40 c 0
 549 40 528 62 528 88 c 0
224 615 m 0
 224 640 245 662 270 662 c 0
 295 662 317 640 317 615 c 0
 317 590 295 568 270 568 c 0
 245 568 224 590 224 615 c 0
640 199 m 0
 640 224 661 246 686 246 c 0
 711 246 733 224 733 199 c 0
 733 174 711 152 686 152 c 0
 661 152 640 174 640 199 c 0
113 503 m 0
 113 528 135 550 160 550 c 0
 185 550 207 528 207 503 c 0
 207 478 185 456 160 456 c 0
 135 456 113 478 113 503 c 0
224 88 m 0
 224 113 245 135 270 135 c 0
 295 135 317 113 317 88 c 0
 317 62 296 40 270 40 c 0
 244 40 224 62 224 88 c 0
528 615 m 0
 528 640 550 662 575 662 c 0
 600 662 621 640 621 615 c 0
 621 590 600 568 575 568 c 0
 550 568 528 590 528 615 c 0
640 503 m 0
 640 528 661 550 686 550 c 0
 711 550 733 528 733 503 c 0
 733 478 711 456 686 456 c 0
 661 456 640 478 640 503 c 0
113 199 m 0
 113 224 135 246 160 246 c 0
 185 246 207 224 207 199 c 0
 207 174 185 152 160 152 c 0
 135 152 113 174 113 199 c 0
680 351 m 0
 680 376 702 398 727 398 c 0
 752 398 774 376 774 351 c 0
 774 326 752 304 727 304 c 0
 702 304 680 326 680 351 c 0
72 351 m 0
 72 376 93 398 118 398 c 0
 143 398 165 376 165 351 c 0
 165 326 143 304 118 304 c 0
 93 304 72 326 72 351 c 0
376 47 m 0
 376 72 398 94 423 94 c 0
 448 94 469 72 469 47 c 0
 469 22 448 0 423 0 c 0
 398 0 376 22 376 47 c 0
376 655 m 0
 376 680 398 702 423 702 c 0
 448 702 469 680 469 655 c 0
 469 630 448 608 423 608 c 0
 398 608 376 630 376 655 c 0
EndSplineSet
Validated: 1
EndChar

StartChar: u0981.salt
Encoding: 65536 -1 16
GlifName: u0981.salt
Width: 0
GlyphClass: 2
Flags: HMW
LayerCount: 2
Fore
SplineSet
-117 694 m 0
 -175 694 -221 720 -221 778 c 1
 -216 786 -212 790 -207 790 c 0
 -202 790 -195 787 -187 781 c 1
 -183 757 -159 729 -130 729 c 2
 -126 729 l 1
 -80 731 -73 750 -58 786 c 1
 -51 790 -46 792 -41 792 c 0
 -33 792 -26 787 -21 778 c 1
 -27 735 -55 707 -104 695 c 0
 -109 695 -113 694 -117 694 c 0
-159 780 m 0
 -159 797 -142 811 -123 811 c 0
 -100 811 -83 801 -83 779 c 2
 -83 778 l 2
 -83 760 -101 749 -123 749 c 0
 -143 749 -159 763 -159 780 c 0
EndSplineSet
Validated: 1
EndChar

StartChar: u099c_u09cd_u099e.akhn
Encoding: 65537 -1 17
GlifName: u099c_u09cd_u099e.akhn
Width: 995
VWidth: 1024
GlyphClass: 3
Flags: HMW
LayerCount: 2
Fore
SplineSet
857 537 m 0
 857 582 821 622 776 622 c 0
 759 622 742 617 725 608 c 0
 724 608 724 607 723 607 c 1
 727 592 729 576 729 560 c 2
 729 426 l 1
 790 432 857 476 857 537 c 0
931 240 m 0
 931 155 866 79 783 79 c 0
 764 79 739 91 709 114 c 0
 697 124 675 130 664 136 c 1
 664 246 l 1
 664 313 l 1
 653 283 653 280 635 249 c 0
 568 133 486 57 388 21 c 0
 348 6 309 -1 270 -1 c 0
 212 -1 155 15 98 48 c 0
 58 71 30 103 14 141 c 0
 6 159 3 176 3 193 c 0
 3 256 52 296 100 309 c 0
 112 312 124 314 136 314 c 0
 159 314 182 308 204 295 c 0
 246 271 271 238 282 194 c 0
 285 182 287 170 287 159 c 0
 287 130 276 106 255 85 c 1
 264 84 272 83 281 83 c 0
 322 83 366 99 411 130 c 0
 466 168 515 223 556 295 c 0
 590 354 609 409 615 462 c 0
 616 472 617 481 617 490 c 0
 617 527 606 552 584 564 c 0
 579 567 573 569 566 569 c 0
 556 569 545 566 532 560 c 0
 510 550 490 533 470 510 c 0
 428 460 381 425 330 407 c 0
 306 399 284 394 263 394 c 0
 176 394 127 462 127 547 c 0
 127 585 138 622 159 659 c 0
 177 690 198 714 221 738 c 1
 1 738 l 1
 1 818 l 1
 341 818 l 2
 624 818 877 818 895 852 c 0
 900 861 904 875 904 884 c 0
 904 907 885 944 866 960 c 2
 849 974 l 1
 869 998 l 2
 880 1011 893 1022 897 1022 c 0
 901 1022 918 1009 935 992 c 0
 959 968 968 954 975 928 c 0
 979 912 982 897 982 882 c 0
 982 843 967 807 937 779 c 0
 898 741 648 741 378 739 c 1
 361 734 344 728 331 719 c 0
 294 692 263 658 238 614 c 0
 225 590 217 567 217 544 c 0
 217 507 235 483 271 483 c 0
 283 483 297 487 312 493 c 0
 340 505 367 526 391 555 c 0
 428 599 469 630 514 646 c 0
 535 653 555 657 573 657 c 0
 594 657 613 652 630 642 c 0
 633 640 637 639 640 639 c 0
 664 639 692 680 692 680 c 1
 718 695 746 703 776 703 c 0
 863 703 931 625 931 537 c 0
 931 461 879 409 821 388 c 1
 879 367 931 314 931 240 c 0
783 166 m 0
 823 166 857 200 857 240 c 0
 857 300 791 344 730 350 c 1
 730 212 l 1
 759 191 765 166 783 166 c 0
124 216 m 0
 105 213 89 199 89 177 c 0
 89 146 118 121 149 121 c 0
 152 121 156 122 159 122 c 0
 179 125 194 138 194 161 c 0
 194 192 166 217 134 217 c 0
 131 217 127 216 124 216 c 0
EndSplineSet
Validated: 1
LCarets2: 2 0 0
Ligature2: "'akhn' Akhand in Bengali lookup 2 subtable" u099c u09cd u099e
EndChar

StartChar: u0995_u09cd_u09b7.akhn
Encoding: 65538 -1 18
GlifName: u0995_u09cd_u09b7.akhn
Width: 1153
VWidth: 1024
GlyphClass: 3
Flags: HMW
LayerCount: 2
Fore
SplineSet
754 68 m 0
 698 68 649 111 628 161 c 1
 585 128 521 104 451 104 c 0
 395 104 340 124 302 159 c 1
 256 178 l 1
 270 196 l 2
 270 197 271 196 271 197 c 0
 257 220 249 246 249 275 c 0
 249 299 254 320 261 338 c 1
 247 350 230 358 214 362 c 0
 199 366 190 368 184 368 c 0
 181 368 178 368 178 366 c 0
 178 363 184 358 192 350 c 0
 216 327 228 304 228 276 c 0
 228 213 174 160 120 160 c 0
 65 160 10 217 10 288 c 0
 10 343 43 396 100 424 c 0
 123 435 135 436 176 436 c 0
 219 436 229 435 256 422 c 0
 271 415 285 405 298 394 c 1
 318 415 340 433 361 452 c 1
 342 460 l 1
 354 478 l 1
 370 500 378 525 378 550 c 0
 378 563 377 577 372 588 c 0
 368 598 359 609 348 618 c 0
 325 630 296 638 269 640 c 1
 271 638 273 635 276 632 c 0
 300 609 312 586 312 558 c 0
 312 495 258 442 204 442 c 0
 149 442 96 499 96 570 c 0
 96 625 129 678 186 706 c 0
 208 716 219 718 256 718 c 1
 256 738 l 1
 189 738 l 1
 58 738 l 2
 53 738 49 741 44 741 c 0
 25 741 6 741 -14 742 c 1
 -14 742 16 756 35 775 c 0
 43 782 51 801 58 812 c 1
 58 817 l 1
 61 817 l 1
 62 818 62 819 63 819 c 1
 63 817 l 1
 448 817 l 2
 533 817 601 816 653 816 c 0
 784 816 1070 824 1070 884 c 0
 1070 907 1051 944 1032 960 c 2
 1015 974 l 1
 1035 997 l 2
 1046 1010 1059 1022 1063 1022 c 0
 1106 1022 1148 929 1148 882 c 0
 1148 869 1150 856 1150 844 c 0
 1150 817 1141 793 1081 774 c 0
 1054 765 1027 763 1002 763 c 0
 964 763 932 769 925 769 c 0
 922 769 921 768 921 767 c 0
 921 761 955 741 955 741 c 2
 955 740 1138 589 1138 463 c 0
 1138 422 1127 380 1106 340 c 0
 1086 302 1038 257 1000 239 c 0
 974 227 965 226 922 226 c 0
 866 226 839 235 804 267 c 0
 771 297 753 334 753 374 c 0
 753 461 831 525 902 525 c 0
 949 525 988 491 988 452 c 0
 988 414 960 388 928 388 c 0
 906 388 885 400 876 423 c 0
 872 433 869 442 868 443 c 2
 868 443 868 444 867 444 c 0
 860 444 836 420 830 407 c 0
 827 400 825 391 825 381 c 0
 825 324 869 294 923 294 c 0
 940 294 957 298 972 305 c 0
 1023 330 1055 399 1055 467 c 0
 1055 496 1049 525 1037 550 c 0
 1016 592 977 629 929 652 c 2
 889 671 l 1
 713 671 l 1
 689 671 l 1
 689 247 l 2
 689 206 714 166 754 166 c 0
 795 166 825 200 845 230 c 1
 897 174 l 1
 865 128 818 68 754 68 c 0
345 739 m 1
 424 708 490 629 490 535 c 0
 490 458 453 398 406 364 c 0
 385 349 360 325 351 297 c 0
 351 290 352 281 352 270 c 0
 352 265 351 261 351 256 c 0
 365 226 412 210 451 210 c 0
 515 210 568 239 611 269 c 1
 611 740 l 1
 572 739 522 739 458 739 c 2
 345 739 l 1
196 612 m 0
 175 612 156 585 156 560 c 0
 156 541 184 514 202 514 c 0
 223 514 236 537 236 562 c 0
 236 587 219 612 196 612 c 0
110 330 m 0
 89 330 70 303 70 278 c 0
 70 259 98 232 116 232 c 0
 137 232 152 255 152 280 c 0
 152 305 133 330 110 330 c 0
EndSplineSet
Validated: 1
LCarets2: 2 0 0
Ligature2: "'akhn' Akhand in Bengali lookup 2 subtable" u0995 u09cd u09b7
EndChar

StartChar: u09b9_u09cd_u09ae.cjct
Encoding: 65539 -1 19
GlifName: u09b9_u09cd_u09ae.cjct
Width: 693
GlyphClass: 3
Flags: HMW
LayerCount: 2
Fore
SplineSet
318 486 m 1
 317 485 317 484 316 483 c 0
 310 474 304 467 304 465 c 0
 304 463 308 456 314 448 c 0
 326 432 335 408 338 388 c 1
 335 424 328 456 318 486 c 1
156 130 m 0
 156 105 171 78 195 78 c 0
 223 78 248 98 270 138 c 0
 292 178 307 227 312 286 c 1
 265 269 228 246 199 218 c 0
 170 190 156 160 156 130 c 0
292 586 m 0
 292 626 279 665 239 665 c 0
 214 665 182 638 176 622 c 1
 130 615 l 1
 145 658 l 1
 150 670 l 1
 152 670 159 680 159 680 c 1
 159 680 205 712 242 712 c 0
 311 712 347 650 347 587 c 0
 347 580 347 573 346 566 c 0
 367 513 384 452 384 384 c 1
 425 401 459 426 488 455 c 1
 488 456 l 2
 488 467 556 544 572 570 c 0
 574 574 576 577 575 578 c 0
 582 592 585 603 585 611 c 0
 585 622 582 630 574 638 c 0
 572 640 486 710 453 738 c 1
 416 738 372 737 316 737 c 2
 -61 737 l 1
 0 815 l 1
 306 815 l 2
 383 815 441 814 484 814 c 0
 608 814 615 822 615 882 c 0
 615 905 596 942 577 958 c 2
 560 972 l 1
 580 995 l 2
 591 1008 604 1020 608 1020 c 0
 651 1020 693 927 693 880 c 0
 693 841 677 806 648 777 c 0
 625 755 617 745 561 741 c 1
 582 723 610 694 620 684 c 0
 640 664 650 640 650 611 c 0
 650 540 609 486 566 449 c 1
 599 379 624 302 624 208 c 0
 624 198 623 189 622 180 c 0
 611 97 554 35 494 0 c 1
 442 65 l 1
 474 84 499 106 518 131 c 0
 537 156 546 182 546 208 c 0
 546 284 538 354 514 403 c 1
 475 371 435 339 390 319 c 1
 390 231 371 156 333 94 c 0
 295 32 249 0 195 0 c 0
 123 0 65 58 65 130 c 0
 65 171 88 213 133 255 c 0
 178 297 265 334 339 361 c 1
 290 361 l 1
 284 387 l 2
 280 404 271 435 265 435 c 0
 264 435 256 431 246 425 c 0
 214 405 180 396 148 396 c 0
 98 396 36 424 36 464 c 0
 36 511 100 534 150 534 c 0
 181 534 214 527 244 512 c 2
 265 501 l 1
 271 508 l 2
 285 524 292 552 292 586 c 0
223 469 m 0
 223 485 165 492 142 492 c 0
 123 492 90 483 90 465 c 0
 90 449 124 445 149 445 c 2
 157 445 l 1
 181 447 223 462 223 469 c 0
EndSplineSet
Validated: 1
LCarets2: 2 0 0
Ligature2: "'cjct' Conjunct Forms in Bengali2 lookup 13" u09b9 u09cd u09ae
EndChar

StartChar: u09a4_u09cd_u09a4.cjct
Encoding: 65540 -1 20
GlifName: u09a4_u09cd_u09a4.cjct
Width: 784
GlyphClass: 3
Flags: HMW
LayerCount: 2
Fore
SplineSet
426 818 m 2
 522 818 467 817 521 817 c 0
 676 817 685 825 685 885 c 0
 685 908 662 945 638 961 c 2
 616 975 l 1
 641 998 l 2
 656 1012 671 1022 676 1023 c 0
 731 1023 783 929 783 882 c 0
 783 843 764 808 726 780 c 0
 676 741 810 742 439 740 c 1
 -79 740 l 1
 -79 741 l 1
 -83 741 -87 741 -91 741 c 0
 -115 741 -139 741 -164 742 c 1
 -164 742 -126 756 -102 775 c 0
 -94 781 -87 794 -79 805 c 1
 -79 818 l 1
 -69 818 l 1
 -67 819 l 1
 -67 818 l 1
 426 818 l 2
474 661 m 0
 450 661 419 650 419 628 c 0
 419 611 452 597 471 571 c 2
 481 557 l 1
 449 558 416 558 384 559 c 1
 370 570 l 2
 352 584 340 611 339 629 c 0
 339 682 398 726 468 726 c 0
 572 726 618 645 618 559 c 0
 618 429 504 335 340 328 c 1
 323 328 l 2
 159 328 50 423 50 555 c 0
 50 646 87 726 176 726 c 0
 231 726 279 685 279 630 c 0
 278 574 238 534 174 534 c 0
 156 534 140 540 128 540 c 0
 126 540 125 538 125 534 c 0
 125 443 226 382 320 382 c 2
 334 382 l 1
 465 390 545 456 545 560 c 0
 545 613 514 661 474 661 c 0
205 628 m 0
 205 644 192 669 171 669 c 0
 153 669 136 651 136 630 c 0
 136 608 156 591 174 591 c 0
 194 591 205 611 205 628 c 0
474 265 m 0
 450 265 419 254 419 232 c 0
 419 215 452 201 471 175 c 2
 481 161 l 1
 449 162 416 162 384 163 c 1
 370 174 l 2
 352 188 340 215 339 233 c 0
 339 286 398 330 468 330 c 0
 572 330 618 249 618 163 c 0
 618 33 504 -61 340 -68 c 1
 323 -68 l 2
 159 -68 50 27 50 159 c 0
 50 250 87 330 176 330 c 0
 231 330 279 289 279 234 c 0
 278 178 238 138 174 138 c 0
 156 138 140 144 128 144 c 0
 126 144 125 142 125 138 c 0
 125 47 226 -14 320 -14 c 2
 334 -14 l 1
 465 -6 545 60 545 164 c 0
 545 217 514 265 474 265 c 0
205 232 m 0
 205 248 192 273 171 273 c 0
 153 273 136 255 136 234 c 0
 136 212 156 195 174 195 c 0
 194 195 205 215 205 232 c 0
EndSplineSet
Validated: 1
LCarets2: 2 -77 -77
Ligature2: "'cjct' Conjunct Forms in Bengali2 lookup 13" u09a4 u09cd u09a4
EndChar

StartChar: u09b0_u09cd.rphf
Encoding: 65578 -1 58
GlifName: u09b0_u09cd.rphf
Width: 0
VWidth: 1024
GlyphClass: 4
Flags: HMW
AnchorPoint: "Anchor-0" -272 812 mark 0
LayerCount: 2
Fore
SplineSet
-242 890 m 0
 -242 859 -228 834 -205 817 c 1
 -316 817 l 1
 -327 841 -333 864 -333 890 c 0
 -333 937 -316 977 -280 1010 c 0
 -244 1043 -201 1059 -151 1059 c 2
 -9 1059 l 1
 -9 981 l 1
 -151 981 l 2
 -201 981 -242 940 -242 890 c 0
EndSplineSet
Validated: 1
Ligature2: "'rphf' Reph Form in Bengali lookup 3 subtable" u09b0 u09cd
Ligature2: "'rphf' Reph Form in Bengali lookup 3 subtable" u09f0 u09cd
LCarets2: 1 0
EndChar

StartChar: u09af_u09cd.pstf
Encoding: 65579 -1 59
GlifName: u09af_u09cd.pstf
Width: 472
VWidth: 1024
GlyphClass: 3
Flags: HMW
LayerCount: 2
Fore
SplineSet
110 86 m 0
 142 86 162 118 162 151 c 0
 162 184 142 216 110 216 c 0
 78 216 58 184 58 151 c 0
 58 118 78 86 110 86 c 0
240 151 m 1
 259 178 302 238 302 278 c 0
 302 293 295 306 279 313 c 0
 221 336 194 478 194 567 c 0
 194 605 198 633 208 639 c 0
 224 649 247 665 265 681 c 0
 287 702 330 730 330 741 c 1
 -35 741 l 1
 -80 741 l 1
 -80 768 0 792 0 819 c 1
 279 819 l 1
 335 819 l 2
 374 819 384 835 391 851 c 0
 395 860 399 875 399 884 c 0
 399 907 380 944 361 960 c 2
 344 974 l 1
 364 997 l 2
 375 1010 388 1022 392 1022 c 0
 396 1022 413 1009 430 992 c 0
 454 968 463 954 470 928 c 0
 474 912 477 897 477 882 c 0
 477 852 477 843 459 819 c 1
 421 741 l 1
 416 734 l 1
 416 734 401 722 392 713 c 0
 366 688 362 674 326 648 c 0
 322 645 318 642 314 640 c 0
 300 631 293 603 293 566 c 0
 293 544 296 520 300 494 c 0
 311 424 337 349 370 313 c 0
 385 297 391 279 391 259 c 0
 391 200 334 130 298 83 c 0
 250 20 191 -12 123 -12 c 0
 41 -12 -20 67 -20 151 c 0
 -20 232 32 313 110 313 c 0
 188 313 240 232 240 151 c 1
EndSplineSet
Validated: 1
LCarets2: 1 0
Ligature2: "'pstf' Post Base Forms in Bengali lookup 6 subtable" u09cd u09af
EndChar

StartChar: u09b0_u09cd.blwf
Encoding: 65580 -1 60
GlifName: u09b0_u09cd.blwf
Width: 0
VWidth: 1024
GlyphClass: 4
Flags: HMW
AnchorPoint: "Anchor-1" -75 45 basechar 0
LayerCount: 2
Fore
SplineSet
-110 38 m 1
 -41 38 l 1
 -66 -38 -93 -102 -125 -153 c 0
 -157 -204 -190 -241 -226 -261 c 0
 -267 -285 -316 -297 -376 -297 c 0
 -436 -297 -500 -286 -568 -264 c 1
 -548 -203 l 1
 -494 -221 -442 -229 -393 -229 c 0
 -275 -229 -227 -188 -178 -106 c 0
 -152 -62 -131 -28 -110 38 c 1
EndSplineSet
Validated: 1
Ligature2: "'blwf' Below Base Forms in Bengali2 lookup 4 subtable" u09cd u09b0
Ligature2: "'blwf' Below Base Forms in Bengali2 lookup 4 subtable" u09cd u09f0
LCarets2: 1 24
EndChar

StartChar: u09ac_u09cd.blwf
Encoding: 65581 -1 61
GlifName: u09ac_u09cd.blwf
Width: 0
GlyphClass: 4
Flags: HMW
LayerCount: 2
Fore
SplineSet
-312 157 m 1
 -228 157 l 1
 -228 -40 l 2
 -228 -58 -215 -63 -185 -63 c 0
 -162 -63 -125 -45 -111 -45 c 0
 -105 -45 -68 -61 -68 -63 c 0
 -68 -77 -142 -96 -188 -96 c 0
 -271 -96 -293 -71 -312 -42 c 0
 -315 -42 -326 -46 -337 -51 c 0
 -382 -70 -437 -79 -492 -79 c 0
 -614 -79 -744 -35 -744 43 c 0
 -744 115 -646 146 -512 164 c 0
 -502 166 -493 166 -483 166 c 0
 -425 166 -358 147 -336 137 c 2
 -312 126 l 1
 -312 157 l 1
-492 -40 m 0
 -410 -40 -317 -12 -315 41 c 1
 -315 45 l 2
 -315 91 -392 127 -488 127 c 0
 -577 127 -665 96 -665 43 c 0
 -665 -11 -576 -40 -492 -40 c 0
EndSplineSet
Validated: 1
EndChar

StartChar: u0995_u09b0_u09cd
Encoding: 65582 -1 62
GlifName: u0995_u09b0_u09cd.blwf.vatu
Width: 1089
GlyphClass: 3
Flags: HMW
LayerCount: 2
Fore
SplineSet
352 114 m 0
 444 114 547 176 550 297 c 1
 550 309 l 2
 550 412 463 490 355 490 c 0
 262 490 160 427 160 315 c 2
 160 300 l 2
 160 179 259 114 352 114 c 0
707 78 m 0
 734 78 775 118 791 118 c 0
 797 118 839 81 839 77 c 0
 839 75 838 74 838 72 c 1
 841 72 l 1
 816 -4 789 -68 757 -119 c 0
 725 -170 692 -207 656 -227 c 0
 615 -251 566 -263 506 -263 c 0
 446 -263 382 -252 314 -230 c 1
 334 -169 l 1
 388 -187 440 -195 489 -195 c 0
 607 -195 655 -154 704 -72 c 0
 720 -44 735 -20 749 10 c 1
 733 6 718 3 704 3 c 0
 604 3 595 63 565 123 c 0
 562 123 549 117 537 105 c 0
 487 61 424 40 362 40 c 0
 226 40 78 139 78 316 c 0
 78 463 204 591 372 591 c 0
 438 591 512 548 537 526 c 2
 563 502 l 1
 563 741 l 1
 11 741 l 1
 -11 741 l 2
 -30 741 -49 741 -69 742 c 1
 -69 742 -39 756 -20 775 c 0
 -13 781 -6 796 0 807 c 1
 0 825 l 1
 945 825 l 2
 978 825 1005 827 1005 865 c 0
 1005 871 1002 876 1002 876 c 1
 1002 890 l 1
 995 891 l 1
 995 893 992 898 979 911 c 2
 965 925 l 1
 983 946 l 2
 993 958 1004 968 1008 968 c 0
 1047 968 1084 885 1084 842 c 0
 1084 758 1056 749 948 741 c 1
 948 741 834 742 748 742 c 0
 705 742 669 742 658 741 c 1
 658 741 655 652 654 615 c 1
 900 615 1059 556 1059 361 c 0
 1059 249 982 147 865 147 c 0
 781 147 713 203 713 280 c 0
 713 360 783 417 847 417 c 0
 890 417 924 385 924 350 c 0
 924 316 899 293 871 293 c 0
 833 293 836 323 816 343 c 1
 800 343 778 311 778 287 c 0
 778 235 817 209 865 209 c 0
 945 209 984 290 984 365 c 0
 984 450 933 501 871 531 c 2
 835 548 l 1
 651 548 l 1
 651 359 l 2
 651 263 650 202 650 164 c 0
 650 90 658 78 707 78 c 0
EndSplineSet
Validated: 1
Ligature2: "'vatu' Vattu Variants in Bengali lookup 7 subtable" u0995 u09b0_u09cd.blwf
LCarets2: 1 0
EndChar

StartChar: u0996_u09b0_u09cd.blwf.vatu
Encoding: 65583 -1 63
GlifName: u0996_u09b0_u09cd.blwf.vatu
Width: 993
VWidth: 1024
GlyphClass: 3
Flags: HMW
LayerCount: 2
Fore
SplineSet
156 791 m 0
 124 791 106 771 106 739 c 0
 106 719 121 705 145 705 c 0
 173 705 197 734 197 759 c 0
 197 780 179 791 156 791 c 0
802 62 m 0
 708 62 631 139 631 233 c 2
 631 296 l 1
 585 173 470 62 311 62 c 0
 161 62 22 124 22 264 c 0
 22 355 232 516 303 541 c 1
 232 566 22 548 22 639 c 0
 22 655 27 671 27 686 c 0
 27 698 23 710 23 722 c 0
 23 795 75 865 160 865 c 0
 222 865 261 822 261 760 c 0
 261 694 210 653 156 653 c 0
 151 653 138 652 132 650 c 0
 132 646 131 643 131 639 c 0
 131 613 219 608 221 608 c 1
 221 609 484 698 495 819 c 1
 529 709 l 1
 529 700 227 376 182 363 c 0
 140 350 131 302 131 264 c 0
 131 187 218 155 303 155 c 0
 508 155 636 395 636 608 c 2
 636 822 l 1
 719 822 784 821 826 821 c 0
 861 821 880 822 880 824 c 0
 880 828 903 849 903 849 c 1
 903 853 906 852 908 857 c 0
 909 860 910 867 911 871 c 0
 913 879 913 884 913 889 c 0
 913 912 894 949 875 965 c 2
 858 979 l 1
 878 1002 l 2
 889 1015 895 1027 899 1027 c 0
 942 1027 991 934 991 887 c 0
 991 848 977 771 973 769 c 0
 966 766 864 753 864 753 c 1
 864 750 832 750 832 750 c 1
 727 750 l 1
 727 233 l 2
 727 190 759 155 802 155 c 0
 851 155 885 187 911 218 c 1
 974 155 l 1
 972 153 971 151 969 149 c 0
 945 76 918 14 887 -35 c 0
 855 -86 822 -123 786 -143 c 0
 745 -167 696 -179 636 -179 c 0
 576 -179 224 -168 156 -146 c 1
 176 -85 l 1
 230 -103 570 -111 619 -111 c 0
 737 -111 785 -70 834 12 c 0
 847 34 858 53 869 75 c 1
 848 67 826 62 802 62 c 0
EndSplineSet
Validated: 1
LCarets2: 1 0
Ligature2: "'vatu' Vattu Variants in Bengali lookup 7 subtable" u0996 u09b0_u09cd.blwf
EndChar

StartChar: u0997_u09b0_u09cd.blwf.vatu
Encoding: 65584 -1 64
GlifName: u0997_u09b0_u09cd.blwf.vatu
Width: 867
VWidth: 1024
GlyphClass: 3
Flags: HMW
LayerCount: 2
Fore
SplineSet
818 127 m 0
 818 84 725 42 678 42 c 0
 639 42 580 131 552 161 c 1
 551 162 l 1
 540 138 528 117 516 97 c 0
 484 46 451 9 415 -11 c 0
 374 -35 325 -47 265 -47 c 0
 205 -47 141 -36 73 -14 c 1
 93 47 l 1
 147 29 199 21 248 21 c 0
 366 21 414 62 463 144 c 0
 483 179 500 206 517 249 c 0
 517 254 516 258 516 262 c 0
 516 300 534 320 534 443 c 0
 534 446 534 449 534 452 c 2
 534 739 l 1
 221 739 l 2
 177 739 130 715 130 674 c 0
 130 523 494 599 494 401 c 0
 494 298 381 232 273 232 c 0
 150 232 57 314 0 395 c 1
 65 440 l 1
 110 377 179 310 273 310 c 0
 335 310 403 343 403 401 c 0
 403 456 335 487 279 492 c 0
 170 502 39 567 39 674 c 0
 39 760 131 819 221 819 c 2
 752 819 l 1
 752 823 772 839 775 845 c 0
 780 855 785 873 785 885 c 0
 785 908 766 944 747 960 c 2
 730 974 l 1
 750 998 l 2
 761 1011 774 1022 778 1022 c 0
 821 1022 863 930 863 883 c 0
 863 844 848 808 818 780 c 0
 778 741 769 741 617 740 c 1
 617 462 l 2
 617 374 615 308 615 259 c 0
 615 242 616 227 616 214 c 1
 623 214 l 1
 621 208 619 202 617 196 c 0
 621 134 636 120 680 120 c 0
 703 120 740 139 756 158 c 2
 770 175 l 1
 794 155 l 2
 807 144 818 131 818 127 c 0
EndSplineSet
Validated: 1
LCarets2: 1 0
Ligature2: "'vatu' Vattu Variants in Bengali lookup 7 subtable" u0997 u09b0_u09cd.blwf
EndChar

StartChar: u0998_u09b0_u09cd.blwf.vatu
Encoding: 65585 -1 65
GlifName: u0998_u09b0_u09cd.blwf.vatu
Width: 973
VWidth: 1024
GlyphClass: 3
Flags: HMW
LayerCount: 2
Fore
SplineSet
766 146 m 1
 769 146 l 1
 769 145 l 1
 777 142 785 141 794 141 c 0
 842 141 877 173 903 203 c 1
 966 141 l 1
 927 94 869 47 794 47 c 0
 774 47 755 50 737 57 c 1
 721 19 704 -15 685 -45 c 0
 653 -96 620 -133 584 -153 c 0
 543 -177 494 -189 434 -189 c 0
 374 -189 310 -178 242 -156 c 1
 262 -95 l 1
 316 -113 368 -121 417 -121 c 0
 535 -121 583 -80 632 2 c 0
 650 32 665 58 680 92 c 1
 645 124 623 169 623 219 c 2
 623 281 l 1
 578 159 461 47 303 47 c 0
 154 47 14 111 14 250 c 0
 14 341 76 412 147 437 c 1
 76 462 14 534 14 625 c 0
 14 638 64 688 92 741 c 1
 10 741 l 1
 0 741 l 2
 -7 741 -14 741 -21 741 c 0
 -37 741 -53 742 -69 742 c 1
 -69 742 -39 756 -20 775 c 0
 -13 781 -6 796 0 807 c 1
 0 817 l 1
 2 817 4 817 6 817 c 0
 7 818 7 819 8 819 c 1
 8 817 l 1
 294 817 859 817 877 851 c 0
 882 860 885 875 885 884 c 0
 885 907 866 944 847 960 c 2
 830 974 l 1
 850 997 l 2
 861 1010 874 1022 878 1022 c 0
 921 1022 963 929 963 882 c 0
 963 843 947 808 918 779 c 0
 912 773 890 764 890 764 c 1
 890 764 830 750 830 747 c 0
 830 741 813 742 715 741 c 1
 715 219 l 2
 715 186 736 157 766 146 c 1
483 442 m 1
 370 442 123 369 123 250 c 0
 123 173 210 141 295 141 c 0
 499 141 623 382 630 593 c 1
 630 740 l 1
 206 740 l 1
 176 689 123 638 123 625 c 0
 123 534 183 509 302 509 c 0
 368 509 440 514 465 514 c 1
 483 442 l 1
EndSplineSet
Validated: 1
LCarets2: 1 0
Ligature2: "'vatu' Vattu Variants in Bengali lookup 7 subtable" u0998 u09b0_u09cd.blwf
EndChar

StartChar: u0999_u09b0_u09cd.blwf.vatu
Encoding: 65586 -1 66
GlifName: u0999_u09b0_u09cd.blwf.vatu
Width: 700
VWidth: 1024
GlyphClass: 3
Flags: HMW
AnchorPoint: "Anchor-1" 488 -56 basechar 0
LayerCount: 2
Fore
SplineSet
327 587 m 0
 297 587 214 546 214 501 c 2
 214 488 l 1
 215 460 234 442 268 442 c 0
 319 442 359 472 388 500 c 0
 434 545 487 583 569 583 c 0
 660 583 700 517 700 440 c 0
 700 346 651 260 575 192 c 1
 550 116 549 52 517 1 c 0
 485 -50 452 -87 416 -107 c 0
 375 -131 326 -143 266 -143 c 0
 206 -143 142 -132 74 -110 c 1
 94 -49 l 1
 148 -67 200 -75 249 -75 c 0
 367 -75 415 -34 464 48 c 0
 483 80 499 108 515 146 c 1
 443 98 357 63 268 49 c 0
 263 48 258 48 252 48 c 0
 173 48 0 113 -0 206 c 2
 0 207 l 1
 1 265 64 304 134 304 c 0
 218 304 283 245 283 180 c 0
 283 157 272 137 251 120 c 1
 260 119 268 118 277 118 c 0
 448 118 614 304 614 448 c 0
 614 481 599 511 561 511 c 0
 519 511 491 486 466 463 c 0
 414 413 351 370 260 370 c 0
 173 370 124 425 124 494 c 0
 124 522 136 574 166 593 c 1
 103 611 51 651 51 723 c 0
 51 763 58 785 77 804 c 1
 89 817 l 1
 108 811 127 804 146 798 c 1
 133 784 l 2
 117 766 109 745 109 725 c 0
 109 679 162 644 219 644 c 0
 222 644 224 644 224 646 c 0
 224 648 219 652 211 658 c 0
 187 677 175 696 175 719 c 0
 175 770 229 812 283 812 c 0
 327 812 388 775 388 726 c 0
 388 677 334 611 332 611 c 0
 327 611 326 608 326 604 c 0
 326 599 328 592 328 589 c 0
 328 587 328 587 327 587 c 0
292 674 m 0
 313 674 332 695 332 716 c 0
 332 731 304 753 286 753 c 0
 264 753 250 732 250 713 c 0
 250 693 269 674 292 674 c 0
120 235 m 1
 100 233 85 221 85 202 c 0
 85 176 116 157 147 157 c 0
 150 157 152 158 155 158 c 0
 175 160 190 171 190 190 c 0
 190 215 162 235 130 235 c 2
 120 235 l 1
EndSplineSet
Validated: 1
Ligature2: "'vatu' Vattu Variants in Bengali lookup 7 subtable" u0999 u09b0_u09cd.blwf
LCarets2: 1 0
EndChar

StartChar: u099a_u09b0_u09cd.blwf.vatu
Encoding: 65587 -1 67
GlifName: u099a_u09b0_u09cd.blwf.vatu
Width: 888
GlyphClass: 3
Flags: HMW
LayerCount: 2
Fore
SplineSet
310 372 m 1
 313 238 429 171 531 171 c 0
 636 171 748 243 748 379 c 0
 748 512 638 588 527 588 c 0
 407 588 310 500 310 384 c 2
 310 372 l 1
150 46 m 0
 91 46 0 89 0 128 c 0
 0 132 47 174 54 174 c 0
 72 174 117 129 146 129 c 0
 200 129 207 142 207 219 c 2
 207 735 l 1
 -60 735 l 1
 -60 763 2 791 2 819 c 1
 25 819 l 2
 172 819 498 811 498 811 c 1
 638 811 l 2
 797 811 807 817 807 882 c 0
 807 905 788 941 769 957 c 2
 752 971 l 1
 773 995 l 2
 784 1008 797 1019 801 1019 c 0
 844 1019 885 928 885 881 c 0
 885 809 836 737 752 737 c 2
 304 737 l 1
 304 579 l 1
 336 604 l 1
 364 629 446 677 519 677 c 0
 707 677 844 534 844 371 c 0
 844 249 783 162 701 112 c 1
 677 39 650 -23 619 -72 c 0
 587 -123 554 -160 518 -180 c 0
 477 -204 428 -216 368 -216 c 0
 308 -216 244 -205 176 -183 c 1
 196 -122 l 1
 250 -140 302 -148 351 -148 c 0
 469 -148 517 -107 566 -25 c 0
 586 9 603 36 619 77 c 1
 590 69 560 65 531 65 c 0
 462 65 392 88 336 137 c 0
 322 149 310 158 306 158 c 0
 305 158 305 157 305 157 c 1
 281 86 254 46 150 46 c 0
EndSplineSet
Validated: 1
LCarets2: 1 0
Ligature2: "'vatu' Vattu Variants in Bengali lookup 7 subtable" u099a u09b0_u09cd.blwf
EndChar

StartChar: u099b_u09b0_u09cd.blwf.vatu
Encoding: 65588 -1 68
GlifName: u099b_u09b0_u09cd.blwf.vatu
Width: 905
GlyphClass: 3
Flags: HMW
LayerCount: 2
Fore
SplineSet
218 476 m 1
 221 382 300 334 372 334 c 0
 445 334 524 386 524 480 c 0
 524 573 448 626 370 626 c 0
 285 626 218 565 218 483 c 2
 218 476 l 1
108 232 m 0
 66 232 3 262 3 289 c 0
 3 291 35 321 40 321 c 0
 53 321 85 290 106 290 c 0
 143 290 147 316 147 370 c 2
 147 424 l 2
 147 512 142 632 142 741 c 1
 11 741 l 1
 -11 741 l 2
 -30 741 -49 741 -69 742 c 1
 -69 742 -39 756 -20 775 c 0
 -13 781 -6 796 0 807 c 1
 0 819 l 1
 23 819 l 2
 170 819 424 811 424 811 c 1
 495 811 554 810 604 810 c 0
 766 810 826 818 826 882 c 0
 826 905 807 941 788 957 c 2
 771 971 l 1
 792 995 l 2
 803 1008 816 1019 820 1019 c 0
 863 1019 904 928 904 881 c 0
 904 808 857 741 771 741 c 2
 210 741 l 1
 210 621 l 1
 238 638 l 1
 258 655 316 689 367 689 c 0
 495 689 595 588 595 477 c 2
 595 468 l 1
 620 473 649 478 671 478 c 0
 767 478 873 429 873 340 c 0
 873 246 778 260 729 211 c 0
 716 198 711 188 711 179 c 0
 711 136 755 108 805 95 c 1
 868 95 l 1
 867 92 866 90 865 87 c 1
 867 87 l 1
 867 -3 l 1
 856 -3 844 -2 832 -1 c 1
 817 -36 801 -68 784 -96 c 0
 752 -147 719 -184 683 -204 c 0
 642 -228 593 -240 533 -240 c 0
 473 -240 81 -177 13 -155 c 1
 33 -94 l 1
 87 -112 467 -172 516 -172 c 0
 634 -172 682 -131 731 -49 c 0
 744 -27 756 -8 767 14 c 1
 693 40 633 96 633 171 c 0
 633 235 673 244 717 270 c 0
 741 285 775 309 775 340 c 0
 775 378 715 392 671 392 c 0
 647 392 610 380 589 380 c 0
 583 378 585 378 569 368 c 1
 569 369 l 1
 528 300 451 260 375 260 c 0
 327 260 278 276 239 311 c 0
 229 320 221 325 218 325 c 1
 218 325 180 254 163 244 c 0
 145 233 138 232 108 232 c 0
EndSplineSet
Validated: 1
LCarets2: 1 0
Ligature2: "'vatu' Vattu Variants in Bengali lookup 7 subtable" u099b u09b0_u09cd.blwf
EndChar

StartChar: u099c_u09b0_u09cd.blwf.vatu
Encoding: 65589 -1 69
GlifName: u099c_u09b0_u09cd.blwf.vatu
Width: 1207
VWidth: 1024
GlyphClass: 3
Flags: HMW
LayerCount: 2
Fore
SplineSet
1052 139 m 1
 1096 150 1104 211 1104 274 c 0
 1104 310 1101 346 1101 373 c 0
 1101 468 1045 526 975 559 c 2
 935 578 l 1
 762 578 l 1
 773 553 777 524 777 488 c 0
 777 247 570 6 343 6 c 0
 230 6 76 76 76 198 c 0
 76 271 139 321 209 321 c 0
 293 321 360 248 360 168 c 0
 360 139 349 113 328 92 c 1
 337 91 345 90 354 90 c 0
 525 90 691 320 691 497 c 0
 691 538 676 576 639 576 c 0
 598 576 567 545 543 517 c 0
 491 456 428 401 337 401 c 0
 250 401 201 469 201 555 c 0
 201 633 250 698 293 741 c 1
 11 741 l 1
 -11 741 l 2
 -30 741 -49 741 -69 742 c 1
 -69 742 -39 756 -20 775 c 0
 -15 780 -10 789 -5 798 c 1
 -5 821 l 1
 802 821 l 2
 876 821 933 820 976 820 c 0
 1103 820 1111 828 1111 887 c 0
 1111 910 1092 947 1073 963 c 2
 1056 977 l 1
 1076 1001 l 2
 1087 1014 1100 1025 1104 1025 c 0
 1147 1025 1189 932 1189 885 c 0
 1189 846 1174 810 1144 782 c 0
 1104 743 1108 743 811 742 c 1
 433 742 l 1
 375 716 291 635 291 552 c 0
 291 515 308 490 344 490 c 0
 395 490 435 527 464 562 c 0
 509 616 566 665 645 665 c 0
 669 665 691 657 707 647 c 1
 743 647 l 1
 780 653 809 661 834 661 c 0
 1038 661 1183 531 1183 370 c 0
 1183 244 1142 91 1118 91 c 1
 1076 57 l 1
 1051 -19 978 -3 946 -54 c 0
 914 -105 881 -142 845 -162 c 0
 804 -186 755 -198 695 -198 c 0
 635 -198 191 -160 123 -138 c 1
 143 -77 l 1
 197 -95 629 -130 678 -130 c 0
 796 -130 844 -89 893 -7 c 0
 919 37 980 25 1001 91 c 1
 1052 139 l 1
EndSplineSet
Validated: 1
LCarets2: 1 0
Ligature2: "'vatu' Vattu Variants in Bengali lookup 7 subtable" u099c u09b0_u09cd.blwf
EndChar

StartChar: u099d_u09b0_u09cd.blwf.vatu
Encoding: 65590 -1 70
GlifName: u099d_u09b0_u09cd.blwf.vatu
Width: 1143
GlyphClass: 3
Flags: HMW
LayerCount: 2
Fore
SplineSet
349 181 m 0
 451 181 567 249 570 382 c 1
 570 394 l 2
 570 510 473 598 353 598 c 0
 242 598 132 521 132 389 c 0
 132 253 244 181 349 181 c 0
1039 597 m 0
 1039 705 964 722 859 722 c 1
 859 741 l 1
 659 741 l 1
 659 564 l 1
 686 474 796 302 895 302 c 0
 1001 302 1039 487 1039 597 c 0
732 124 m 0
 761 124 807 169 825 169 c 0
 831 169 871 134 878 125 c 1
 883 125 l 1
 858 49 831 -15 799 -66 c 0
 767 -117 734 -154 698 -174 c 0
 657 -198 608 -210 548 -210 c 0
 488 -210 424 -199 356 -177 c 1
 376 -116 l 1
 430 -134 482 -142 531 -142 c 0
 649 -142 697 -101 746 -19 c 0
 760 5 773 26 785 51 c 1
 765 45 746 41 729 41 c 0
 625 41 598 104 574 175 c 1
 574 175 574 176 573 176 c 0
 569 176 556 166 542 154 c 0
 486 105 417 82 348 82 c 0
 196 82 34 193 34 388 c 0
 34 567 155 645 323 690 c 0
 335 693 347 695 360 695 c 0
 433 695 515 647 543 622 c 2
 573 596 l 1
 573 742 l 1
 11 742 l 1
 11 741 l 1
 -11 741 l 2
 -30 741 -49 741 -69 742 c 1
 -69 742 -39 756 -20 775 c 0
 -12 782 -4 801 3 812 c 1
 3 817 l 1
 6 817 l 1
 7 817 l 1
 425 817 l 2
 510 817 634 808 745 808 c 0
 884 808 1003 822 1003 884 c 0
 1003 907 984 944 965 960 c 2
 948 974 l 1
 968 997 l 2
 978 1008 989 1009 995 1009 c 0
 1049 1009 1081 934 1081 882 c 0
 1081 828 1048 776 1001 756 c 1
 1077 705 1130 703 1130 597 c 0
 1130 441 1049 224 895 224 c 0
 805 224 687 365 658 435 c 1
 658 364 657 308 657 266 c 0
 657 134 665 124 732 124 c 0
EndSplineSet
Validated: 1
LCarets2: 1 0
Ligature2: "'vatu' Vattu Variants in Bengali lookup 7 subtable" u099d u09b0_u09cd.blwf
EndChar

StartChar: u099e_u09b0_u09cd.blwf.vatu
Encoding: 65591 -1 71
GlifName: u099e_u09b0_u09cd.blwf.vatu
Width: 961
VWidth: 1024
GlyphClass: 3
Flags: HMW
LayerCount: 2
Fore
SplineSet
140 306 m 0
 140 276 163 254 192 254 c 0
 219 254 244 279 244 306 c 0
 244 335 221 358 192 358 c 0
 161 358 140 337 140 306 c 0
682 759 m 1
 713 759 741 785 775 785 c 0
 862 785 930 707 930 619 c 0
 930 543 878 491 820 470 c 1
 878 449 930 396 930 322 c 0
 930 237 865 161 782 161 c 0
 774 161 765 164 755 169 c 1
 734 110 711 60 685 18 c 0
 653 -33 620 -70 584 -90 c 0
 543 -114 494 -126 434 -126 c 0
 374 -126 310 -115 242 -93 c 1
 262 -32 l 1
 316 -50 368 -58 417 -58 c 0
 535 -58 583 -17 632 65 c 0
 657 108 678 141 698 203 c 1
 689 209 681 214 674 218 c 1
 674 218 672 233 672 245 c 1
 650 226 l 1
 590 131 461 44 322 44 c 0
 183 44 62 154 62 292 c 0
 62 367 118 434 192 434 c 0
 264 434 322 376 322 304 c 0
 322 232 264 174 192 174 c 1
 221 149 269 136 322 136 c 0
 475 136 592 261 650 376 c 1
 650 642 l 2
 650 688 617 733 572 733 c 0
 536 733 507 704 507 668 c 0
 507 654 510 638 520 636 c 1
 524 658 546 675 572 675 c 0
 603 675 624 647 624 616 c 0
 624 578 585 551 546 551 c 0
 483 551 429 606 429 668 c 0
 429 746 494 811 572 811 c 0
 615 811 652 795 682 762 c 1
 682 759 l 1
856 619 m 0
 856 664 820 704 775 704 c 0
 758 704 745 699 728 690 c 1
 728 508 l 1
 789 514 856 558 856 619 c 0
782 248 m 0
 822 248 856 282 856 322 c 0
 856 382 790 426 729 432 c 1
 729 294 l 1
 712 279 l 1
 741 258 764 248 782 248 c 0
EndSplineSet
Validated: 1
LCarets2: 1 0
Ligature2: "'vatu' Vattu Variants in Bengali lookup 7 subtable" u099e u09b0_u09cd.blwf
EndChar

StartChar: u099f_u09b0_u09cd.blwf.vatu
Encoding: 65592 -1 72
GlifName: u099f_u09b0_u09cd.blwf.vatu
Width: 897
GlyphClass: 3
Flags: HMW
LayerCount: 2
Fore
SplineSet
543 1073 m 0
 543 1094 516 1113 491 1113 c 0
 472 1113 444 1085 444 1067 c 0
 444 1045 469 1031 494 1031 c 0
 519 1031 543 1050 543 1073 c 0
620 399 m 0
 620 425 603 437 580 437 c 0
 547 437 512 414 512 375 c 0
 512 350 529 333 557 333 c 0
 597 333 620 357 620 399 c 0
548 680 m 2
 675 680 l 2
 714 680 848 509 848 381 c 0
 848 272 798 190 728 138 c 1
 703 64 677 2 646 -48 c 0
 614 -99 581 -136 545 -156 c 0
 504 -180 455 -192 395 -192 c 0
 335 -192 271 -181 203 -159 c 1
 223 -98 l 1
 277 -116 329 -124 378 -124 c 0
 496 -124 544 -83 593 -1 c 0
 611 30 628 57 643 93 c 1
 608 81 570 74 534 74 c 0
 465 74 396 97 340 146 c 0
 326 159 313 168 309 168 c 1
 309 167 l 1
 285 96 257 34 153 34 c 0
 94 34 3 78 3 115 c 0
 3 119 50 161 57 161 c 0
 75 161 121 117 150 117 c 0
 203 117 209 130 209 206 c 2
 209 733 l 1
 -12 733 l 1
 -12 741 l 1
 -31 741 -50 741 -69 742 c 1
 -69 742 -39 756 -20 775 c 0
 -17 777 -15 782 -12 786 c 1
 -12 820 l 1
 -12 820 233 815 367 812 c 1
 367 818 495 901 528 915 c 0
 559 928 591 975 591 1018 c 0
 591 1021 591 1023 589 1023 c 0
 586 1023 581 1018 573 1009 c 0
 551 985 527 974 499 974 c 0
 436 974 384 1027 384 1082 c 0
 384 1137 440 1191 510 1191 c 0
 589 1191 660 1127 660 1025 c 0
 660 939 621 892 563 862 c 0
 555 858 516 822 511 810 c 1
 567 810 l 1
 815 829 784 816 801 849 c 0
 806 858 810 872 810 881 c 0
 810 904 791 941 772 957 c 2
 755 971 l 1
 775 995 l 2
 786 1008 799 1019 803 1019 c 0
 846 1019 888 927 888 880 c 0
 888 809 839 736 755 736 c 2
 307 736 l 1
 307 382 l 1
 310 253 434 180 534 180 c 0
 668 180 775 295 775 452 c 0
 775 540 683 605 674 611 c 1
 656 611 l 1
 649 612 649 614 642 614 c 0
 616 614 576 605 576 605 c 2
 495 593 431 577 431 481 c 0
 431 458 446 408 452 408 c 0
 455 408 459 416 462 432 c 0
 475 488 513 532 583 532 c 0
 649 532 716 489 716 414 c 0
 716 325 634 258 551 258 c 0
 445 258 355 350 349 456 c 0
 349 460 348 465 348 470 c 0
 348 577 439 680 548 680 c 2
EndSplineSet
Validated: 1
LCarets2: 1 0
Ligature2: "'vatu' Vattu Variants in Bengali lookup 7 subtable" u099f u09b0_u09cd.blwf
EndChar

StartChar: u09a0_u09b0_u09cd.blwf.vatu
Encoding: 65593 -1 73
GlifName: u09a0_u09b0_u09cd.blwf.vatu
Width: 539
VWidth: 1024
GlyphClass: 3
Flags: HMW
LayerCount: 2
Fore
SplineSet
281 42 m 0
 160 42 91 194 91 325 c 0
 91 422 136 547 224 547 c 2
 300 547 l 2
 380 547 369 652 394 689 c 1
 388 689 380 706 362 729 c 0
 353 741 259 744 169 744 c 0
 102 744 36 742 11 741 c 1
 -11 741 l 2
 -30 741 -49 741 -69 742 c 1
 -69 742 -39 756 -20 775 c 0
 -13 781 -6 796 0 807 c 1
 0 819 l 1
 185 819 l 1
 158 861 117 901 117 964 c 2
 117 978 l 2
 117 1066 185 1142 272 1142 c 0
 320 1142 362 1107 362 1060 c 0
 362 1015 326 978 281 978 c 0
 236 978 199 1015 199 1060 c 1
 183 1040 174 1014 174 978 c 0
 174 936 188 897 218 858 c 0
 233 838 262 837 296 819 c 1
 441 819 l 2
 463 819 481 879 481 909 c 0
 481 910 481 911 481 912 c 0
 480 930 482 925 462 956 c 1
 500 1023 l 1
 532 975 537 987 537 912 c 0
 537 849 492 741 446 741 c 1
 487 699 508 575 508 466 c 0
 508 340 472 177 394 95 c 1
 397 95 l 1
 373 19 347 -45 317 -96 c 0
 287 -147 256 -184 222 -204 c 0
 183 -228 137 -240 80 -240 c 0
 23 -240 56 -229 -8 -207 c 1
 11 -146 l 1
 64 -172 l 1
 64 -172 221 -131 267 -49 c 0
 285 -17 300 9 315 46 c 1
 304 43 293 42 281 42 c 0
422 562 m 1
 404 496 363 421 290 421 c 2
 214 421 l 2
 172 421 148 366 148 320 c 0
 148 247 200 178 271 178 c 0
 379 178 432 340 432 461 c 0
 432 497 427 529 422 562 c 1
281 1092 m 0
 262 1092 249 1078 249 1059 c 0
 249 1041 263 1027 281 1027 c 0
 300 1027 314 1040 314 1059 c 0
 314 1078 300 1092 281 1092 c 0
EndSplineSet
Validated: 1
LCarets2: 1 0
Ligature2: "'vatu' Vattu Variants in Bengali lookup 7 subtable" u09a0 u09b0_u09cd.blwf
EndChar

StartChar: u09a1_u09b0_u09cd.blwf.vatu
Encoding: 65594 -1 74
GlifName: u09a1_u09b0_u09cd.blwf.vatu
Width: 728
VWidth: 1024
GlyphClass: 3
Flags: HMW
LayerCount: 2
Fore
SplineSet
124 232 m 0
 105 229 89 218 89 199 c 0
 89 172 118 151 149 151 c 2
 159 151 l 1
 179 154 194 165 194 185 c 0
 194 212 166 233 134 233 c 0
 131 233 127 232 124 232 c 0
643 1022 m 0
 686 1022 728 929 728 882 c 0
 728 843 713 807 683 779 c 0
 644 741 646 757 378 739 c 0
 303 734 217 591 217 513 c 0
 217 481 235 461 271 461 c 0
 322 461 362 493 391 523 c 0
 437 570 492 610 573 610 c 0
 663 610 702 542 703 463 c 1
 703 459 l 2
 703 357 653 256 576 179 c 1
 577 179 l 1
 552 103 525 39 493 -12 c 0
 461 -63 428 -100 392 -120 c 0
 351 -144 302 -156 242 -156 c 0
 182 -156 118 -145 50 -123 c 1
 70 -62 l 1
 124 -80 176 -88 225 -88 c 0
 343 -88 391 -47 440 35 c 0
 454 59 467 79 479 104 c 1
 416 67 344 46 270 46 c 0
 155 46 3 106 3 212 c 0
 3 274 67 316 136 316 c 0
 221 316 287 252 287 183 c 0
 287 158 276 138 255 120 c 1
 264 119 272 118 281 118 c 0
 452 118 617 315 617 467 c 0
 617 501 602 535 566 535 c 0
 525 535 494 508 470 484 c 0
 418 431 355 385 263 385 c 0
 176 385 127 443 127 516 c 0
 127 584 179 694 221 738 c 1
 1 738 l 1
 1 741 l 1
 -3 741 -7 741 -11 741 c 0
 -30 741 -49 741 -69 742 c 1
 -69 742 -39 756 -20 775 c 0
 -13 782 -6 798 1 809 c 1
 1 818 l 1
 7 818 l 1
 8 819 l 1
 8 818 l 1
 341 818 l 2
 415 818 472 817 515 817 c 0
 642 817 650 825 650 884 c 0
 650 907 631 944 612 960 c 2
 595 974 l 1
 615 998 l 2
 626 1011 639 1022 643 1022 c 0
EndSplineSet
Validated: 1
LCarets2: 1 0
Ligature2: "'vatu' Vattu Variants in Bengali lookup 7 subtable" u09a1 u09b0_u09cd.blwf
EndChar

StartChar: u09a2_u09b0_u09cd.blwf.vatu
Encoding: 65595 -1 75
GlifName: u09a2_u09b0_u09cd.blwf.vatu
Width: 906
GlyphClass: 3
Flags: HMW
LayerCount: 2
Fore
SplineSet
568 341 m 0
 609 345 632 363 632 407 c 0
 632 433 614 444 592 444 c 0
 561 444 524 422 524 383 c 0
 524 358 541 341 568 341 c 0
344 493 m 2
 344 601 435 703 544 703 c 0
 551 703 663 697 670 696 c 0
 711 696 844 533 844 404 c 0
 844 284 784 196 702 146 c 1
 677 71 651 8 619 -42 c 0
 587 -93 554 -130 518 -150 c 0
 477 -174 428 -186 368 -186 c 0
 308 -186 244 -175 176 -153 c 1
 196 -92 l 1
 250 -110 302 -118 351 -118 c 0
 469 -118 517 -77 566 5 c 0
 586 39 603 68 620 110 c 1
 590 101 559 97 529 97 c 0
 460 97 391 120 335 169 c 0
 321 181 308 191 305 191 c 1
 305 190 l 1
 281 119 253 56 149 56 c 0
 89 56 -1 99 -1 138 c 0
 -1 142 46 184 53 184 c 0
 71 184 116 139 145 139 c 0
 199 139 208 149 208 230 c 2
 208 741 l 1
 11 741 l 1
 -11 741 l 2
 -30 741 -49 741 -69 742 c 1
 -69 742 -39 756 -20 775 c 0
 -15 780 -9 790 -4 800 c 1
 -4 819 l 1
 496 819 l 1
 636 819 l 2
 795 819 805 825 805 890 c 0
 805 913 786 949 767 965 c 2
 750 980 l 1
 771 1003 l 2
 782 1016 794 1028 798 1028 c 0
 840 1028 883 936 883 889 c 0
 883 814 836 749 750 749 c 2
 304 749 l 1
 304 405 l 1
 307 275 429 203 530 203 c 0
 663 203 771 318 771 474 c 0
 771 563 679 626 670 633 c 1
 652 633 l 1
 645 634 645 635 638 636 c 0
 612 636 571 627 571 627 c 2
 491 616 426 599 426 505 c 0
 426 482 441 430 448 430 c 0
 451 430 453 439 457 454 c 0
 470 510 509 554 579 554 c 0
 645 554 711 511 711 437 c 0
 711 347 631 280 547 280 c 0
 441 280 350 372 344 479 c 1
 344 493 l 2
EndSplineSet
Validated: 1
LCarets2: 1 0
Ligature2: "'vatu' Vattu Variants in Bengali lookup 7 subtable" u09a2 u09b0_u09cd.blwf
EndChar

StartChar: u09a3_u09b0_u09cd.blwf.vatu
Encoding: 65596 -1 76
GlifName: u09a3_u09b0_u09cd.blwf.vatu
Width: 704
GlyphClass: 3
Flags: HMW
LayerCount: 2
Fore
SplineSet
277 516 m 2
 255 494 257 461 216 461 c 0
 184 461 156 487 156 525 c 0
 156 564 195 598 242 598 c 0
 313 598 391 534 391 447 c 0
 391 361 314 299 222 299 c 0
 91 299 7 411 7 536 c 0
 7 686 131 812 321 817 c 0
 350 818 391 819 448 819 c 2
 465 819 l 1
 557 822 626 830 626 884 c 0
 626 907 607 944 588 960 c 2
 571 974 l 1
 591 997 l 2
 602 1010 615 1022 619 1022 c 0
 662 1022 704 929 704 882 c 0
 704 794 599 746 489 742 c 1
 489 468 l 2
 489 389 488 327 488 280 c 0
 488 151 496 127 555 127 c 0
 578 127 615 146 631 165 c 2
 645 182 l 1
 669 162 l 2
 678 154 686 146 690 140 c 1
 691 140 l 1
 691 139 l 1
 692 137 693 135 693 134 c 0
 693 123 687 113 678 103 c 1
 657 43 634 -8 607 -51 c 0
 575 -102 542 -139 506 -159 c 0
 465 -183 416 -195 356 -195 c 0
 296 -195 232 -184 164 -162 c 1
 184 -101 l 1
 238 -119 290 -127 339 -127 c 0
 457 -127 505 -86 554 -4 c 0
 566 16 577 34 587 54 c 1
 574 51 563 49 553 49 c 0
 514 49 478 64 450 94 c 0
 411 134 410 161 401 458 c 1
 401 741 l 1
 256 741 l 1
 216 725 l 1
 146 692 89 635 89 540 c 0
 89 457 133 367 221 367 c 0
 275 367 319 397 319 454 c 0
 319 479 294 517 278 517 c 0
 277 517 277 516 277 516 c 2
EndSplineSet
Validated: 1
LCarets2: 1 0
Ligature2: "'vatu' Vattu Variants in Bengali lookup 7 subtable" u09a3 u09b0_u09cd.blwf
EndChar

StartChar: u09a4_u09b0_u09cd
Encoding: 65597 -1 77
GlifName: u09a4_u09b0_u09cd.blwf.vatu
Width: 790
GlyphClass: 3
Flags: HMW
LayerCount: 2
Fore
SplineSet
208 541 m 0
 208 568 192 610 163 610 c 0
 139 610 116 579 116 544 c 0
 116 507 141 479 165 479 c 0
 191 479 208 512 208 541 c 0
566 597 m 0
 535 597 492 579 492 542 c 0
 492 513 537 490 562 446 c 2
 575 423 l 1
 532 424 488 426 445 427 c 1
 428 444 l 2
 405 468 386 513 385 543 c 0
 385 632 463 704 557 704 c 0
 695 704 758 571 758 427 c 0
 758 302 708 197 623 128 c 1
 599 55 572 -7 541 -57 c 0
 509 -108 476 -145 440 -165 c 0
 399 -189 350 -201 290 -201 c 0
 230 -201 166 -190 98 -168 c 1
 118 -107 l 1
 172 -125 224 -133 273 -133 c 0
 391 -133 439 -92 488 -10 c 0
 505 18 520 42 534 74 c 1
 490 56 441 45 388 42 c 0
 380 42 372 41 364 41 c 0
 145 41 0 200 0 420 c 0
 0 572 51 705 169 705 c 0
 243 705 306 635 306 544 c 0
 304 451 251 384 166 384 c 0
 143 384 120 394 104 394 c 0
 101 394 100 392 100 385 c 0
 100 234 235 131 360 131 c 0
 366 131 373 132 379 132 c 0
 554 145 661 255 661 428 c 0
 661 516 619 597 566 597 c 0
403 818 m 2
 480 818 538 817 581 817 c 0
 705 817 712 825 712 885 c 0
 712 908 693 945 674 961 c 2
 657 975 l 1
 677 998 l 2
 689 1012 701 1022 705 1023 c 0
 749 1023 790 929 790 882 c 0
 790 843 775 808 745 780 c 0
 705 741 710 742 413 740 c 1
 -1 740 l 1
 -1 741 l 1
 -11 741 l 2
 -30 741 -49 741 -69 742 c 1
 -69 742 -39 756 -20 775 c 0
 -14 781 -7 794 -1 805 c 1
 -1 818 l 1
 7 818 l 1
 8 819 l 1
 8 818 l 1
 403 818 l 2
EndSplineSet
Validated: 1
Ligature2: "'vatu' Vattu Variants in Bengali lookup 7 subtable" u09a4 u09b0_u09cd.blwf
LCarets2: 1 0
EndChar

StartChar: u09a5_u09b0_u09cd.blwf.vatu
Encoding: 65598 -1 78
GlifName: u09a5_u09b0_u09cd.blwf.vatu
Width: 951
VWidth: 1049
GlyphClass: 3
Flags: HMW
LayerCount: 2
Fore
SplineSet
108 577 m 0
 108 555 135 537 160 537 c 0
 179 537 207 565 207 583 c 0
 207 605 182 619 157 619 c 0
 132 619 108 600 108 577 c 0
156 733 m 0
 104 733 66 677 66 626 c 0
 66 624 63 614 63 611 c 0
 63 610 64 610 64 610 c 1
 67 610 76 625 84 634 c 0
 106 659 130 670 158 670 c 0
 221 670 273 617 273 562 c 0
 273 507 216 452 147 452 c 0
 54 452 0 523 0 641 c 2
 0 654 l 2
 0 727 74 794 164 794 c 0
 207 794 291 791 291 791 c 2
 317 791 480 724 498 713 c 0
 523 698 531 661 531 621 c 0
 531 460 426 388 269 349 c 0
 205 333 119 311 119 253 c 0
 119 201 204 141 295 141 c 0
 422 141 533 196 589 311 c 1
 615 355 l 1
 615 819 l 1
 710 819 l 2
 814 819 823 822 823 823 c 2
 846 846 l 1
 846 846 856 874 856 885 c 0
 856 909 838 945 818 961 c 2
 801 975 l 1
 822 999 l 2
 833 1012 846 1022 850 1022 c 0
 894 1022 935 931 935 884 c 0
 935 845 890 781 890 781 c 1
 890 778 882 769 881 765 c 0
 879 759 867 744 864 742 c 0
 863 741 863 741 809 741 c 2
 710 741 l 1
 710 485 l 2
 710 188 711 184 752 163 c 0
 763 157 780 152 790 152 c 0
 815 152 862 175 882 197 c 1
 899 214 l 1
 925 189 l 2
 939 175 951 158 951 152 c 0
 951 116 851 58 787 58 c 0
 760 58 731 65 705 77 c 1
 684 20 663 -28 637 -69 c 0
 605 -120 572 -157 536 -177 c 0
 495 -201 446 -213 386 -213 c 0
 326 -213 262 -202 194 -180 c 1
 214 -119 l 1
 268 -137 320 -145 369 -145 c 0
 487 -145 535 -104 584 -22 c 0
 609 20 630 53 650 114 c 1
 632 131 621 151 621 170 c 0
 621 180 620 186 616 186 c 0
 611 186 602 176 588 157 c 0
 540 88 434 30 315 30 c 0
 166 30 9 102 9 248 c 0
 9 430 283 444 386 530 c 1
 386 530 428 574 428 607 c 0
 428 613 426 619 423 624 c 0
 387 680 323 695 273 707 c 1
 262 710 l 1
 250 715 l 1
 250 717 196 733 156 733 c 0
EndSplineSet
Validated: 1
LCarets2: 1 0
Ligature2: "'vatu' Vattu Variants in Bengali lookup 7 subtable" u09a5 u09b0_u09cd.blwf
EndChar

StartChar: u09a6_u09b0_u09cd.blwf.vatu
Encoding: 65599 -1 79
GlifName: u09a6_u09b0_u09cd.blwf.vatu
Width: 562
VWidth: 1024
GlyphClass: 3
Flags: HMW
LayerCount: 2
Fore
SplineSet
326 58 m 0
 233 58 124 108 124 194 c 0
 124 287 220 314 268 362 c 0
 281 375 288 387 288 396 c 0
 288 456 200 486 132 486 c 1
 132 739 l 1
 0 739 l 1
 0 741 l 1
 -11 741 l 2
 -30 741 -49 741 -69 742 c 1
 -69 742 -39 756 -20 775 c 0
 -13 781 -6 796 0 807 c 1
 0 817 l 1
 6 817 l 1
 7 818 7 819 8 819 c 1
 8 817 l 1
 419 817 l 2
 455 817 484 846 484 882 c 0
 484 920 457 952 432 973 c 1
 477 1025 l 1
 517 991 562 944 562 882 c 0
 562 804 497 739 419 739 c 2
 207 739 l 1
 207 568 l 1
 286 548 366 485 366 402 c 0
 366 340 325 291 282 266 c 0
 258 251 222 226 222 194 c 0
 222 159 285 142 326 142 c 0
 390 142 450 167 496 194 c 1
 542 130 l 1
 540 128 538 127 536 125 c 0
 512 52 485 -10 454 -60 c 0
 422 -111 389 -148 353 -168 c 0
 312 -192 263 -204 203 -204 c 0
 143 -204 79 -193 11 -171 c 1
 31 -110 l 1
 85 -128 137 -136 186 -136 c 0
 304 -136 352 -95 401 -13 c 0
 419 17 435 43 450 78 c 1
 414 65 372 58 326 58 c 0
EndSplineSet
Validated: 1
LCarets2: 1 0
Ligature2: "'vatu' Vattu Variants in Bengali lookup 7 subtable" u09a6 u09b0_u09cd.blwf
EndChar

StartChar: u09a7_u09b0_u09cd.blwf.vatu
Encoding: 65600 -1 80
GlifName: u09a7_u09b0_u09cd.blwf.vatu
Width: 730
VWidth: 1024
GlyphClass: 3
Flags: HMW
LayerCount: 2
Fore
SplineSet
448 400 m 1
 307 395 142 398 142 260 c 0
 142 189 203 151 278 151 c 0
 353 151 407 207 448 257 c 1
 448 400 l 1
584 58 m 0
 532 58 490 96 467 142 c 1
 424 99 360 58 285 58 c 0
 154 58 56 132 56 260 c 0
 56 346 101 421 161 448 c 1
 101 475 56 549 56 635 c 0
 56 734 116 838 211 838 c 0
 292 838 352 764 352 682 c 0
 352 617 304 557 241 557 c 1
 241 635 l 1
 263 635 278 659 278 682 c 0
 278 710 247 728 217 728 c 0
 173 728 142 681 142 635 c 0
 142 497 307 500 448 495 c 1
 448 817 l 1
 490 819 571 823 571 884 c 0
 571 907 552 944 533 960 c 2
 516 974 l 1
 536 997 l 2
 547 1010 560 1022 564 1022 c 0
 610 1022 650 924 650 875 c 0
 650 857 629 768 590 768 c 0
 587 768 590 778 571 778 c 0
 561 778 546 775 522 767 c 1
 522 229 l 2
 522 190 547 151 584 151 c 0
 623 151 652 185 671 214 c 1
 720 151 l 2
 720 150 719 150 719 149 c 1
 724 149 l 1
 699 73 672 9 640 -42 c 0
 608 -93 575 -130 539 -150 c 0
 498 -174 449 -186 389 -186 c 0
 329 -186 265 -175 197 -153 c 1
 217 -92 l 1
 271 -110 323 -118 372 -118 c 0
 490 -118 538 -77 587 5 c 0
 599 25 610 44 620 64 c 1
 609 60 597 58 584 58 c 0
EndSplineSet
Validated: 1
LCarets2: 1 0
Ligature2: "'vatu' Vattu Variants in Bengali lookup 7 subtable" u09a7 u09b0_u09cd.blwf
EndChar

StartChar: u09a8_u09b0_u09cd.blwf.vatu
Encoding: 65601 -1 81
GlifName: u09a8_u09b0_u09cd.blwf.vatu
Width: 653
GlyphClass: 3
Flags: HMW
LayerCount: 2
Fore
SplineSet
245 819 m 2
 307 819 356 818 397 818 c 0
 538 818 564 826 564 890 c 0
 564 912 544 954 524 973 c 2
 509 987 l 1
 532 1011 l 2
 545 1024 559 1034 565 1034 c 0
 597 1034 648 945 648 888 c 0
 648 821 576 740 526 740 c 0
 521 740 519 738 519 735 c 0
 519 725 543 703 566 686 c 0
 612 652 653 489 653 386 c 0
 653 299 634 206 587 146 c 1
 589 146 l 1
 564 70 537 6 505 -45 c 0
 473 -96 440 -133 404 -153 c 0
 363 -177 314 -189 254 -189 c 0
 194 -189 130 -178 62 -156 c 1
 82 -95 l 1
 136 -113 188 -121 237 -121 c 0
 355 -121 403 -80 452 2 c 0
 469 31 484 56 498 88 c 1
 485 85 472 83 457 83 c 0
 271 83 313 345 205 418 c 0
 192 427 181 432 171 432 c 0
 122 432 101 368 101 316 c 0
 101 229 132 144 183 93 c 1
 209 68 l 1
 173 41 l 2
 153 26 135 15 132 15 c 0
 75 15 3 233 3 309 c 0
 3 420 58 530 170 530 c 0
 255 530 334 448 367 314 c 0
 382 256 400 181 453 181 c 0
 500 181 548 256 553 338 c 0
 553 345 554 352 554 360 c 0
 554 481 497 664 401 711 c 1
 361 730 l 1
 241 731 122 733 2 734 c 1
 2 741 l 1
 -11 741 l 2
 -30 741 -49 741 -69 742 c 1
 -69 742 -39 756 -20 775 c 0
 -13 782 -5 800 2 811 c 1
 2 819 l 1
 245 819 l 2
EndSplineSet
Validated: 1
LCarets2: 1 0
Ligature2: "'vatu' Vattu Variants in Bengali lookup 7 subtable" u09a8 u09b0_u09cd.blwf
EndChar

StartChar: u09aa_u09b0_u09cd.blwf.vatu
Encoding: 65602 -1 82
GlifName: u09aa_u09b0_u09cd.blwf.vatu
Width: 786
VWidth: 1024
GlyphClass: 3
Flags: HMW
LayerCount: 2
Fore
SplineSet
538 486 m 0
 538 622 406 720 266 720 c 0
 201 720 122 689 122 630 c 0
 122 565 197 526 266 526 c 1
 266 448 l 1
 198 448 122 408 122 344 c 0
 122 283 210 252 278 252 c 0
 414 252 538 353 538 486 c 0
534 291 m 1
 473 218 402 161 274 161 c 0
 155 161 28 231 28 343 c 0
 28 415 84 469 144 485 c 1
 83 501 28 556 28 629 c 0
 28 739 147 811 262 811 c 0
 381 811 477 761 534 693 c 1
 534 816 l 1
 559 816 l 2
 588 816 611 815 630 815 c 0
 676 815 694 823 694 883 c 0
 694 906 675 943 656 959 c 2
 639 973 l 1
 659 996 l 2
 670 1009 683 1021 687 1021 c 0
 730 1021 772 928 772 881 c 0
 771 776 718 739 612 738 c 1
 612 189 l 1
 605 151 l 1
 606 152 l 1
 609 152 611 134 611 111 c 0
 611 75 604 25 578 3 c 0
 499 -65 393 -87 326 -87 c 0
 259 -87 187 -76 111 -54 c 1
 133 7 l 1
 193 -11 252 -19 307 -19 c 0
 439 -19 493 22 548 104 c 0
 552 110 553 117 553 125 c 0
 553 143 547 167 546 190 c 1
 534 291 l 1
EndSplineSet
Validated: 1
LCarets2: 1 0
Ligature2: "'vatu' Vattu Variants in Bengali lookup 7 subtable" u09aa u09b0_u09cd.blwf
EndChar

StartChar: u09ab_u09b0_u09cd.blwf.vatu
Encoding: 65603 -1 83
GlifName: u09ab_u09b0_u09cd.blwf.vatu
Width: 1140
GlyphClass: 3
Flags: HMW
LayerCount: 2
Fore
SplineSet
159 742 m 1
 237 711 304 621 304 528 c 0
 304 451 267 391 220 357 c 0
 194 338 161 305 161 268 c 0
 161 226 218 203 265 203 c 0
 329 203 384 232 427 262 c 1
 427 661 l 1
 866 661 l 1
 994 614 1106 491 1106 364 c 0
 1106 245 1017 141 893 141 c 0
 800 141 724 203 724 289 c 0
 724 376 802 440 873 440 c 0
 920 440 959 406 959 367 c 0
 959 329 931 303 899 303 c 0
 857 303 861 336 839 358 c 2
 839 358 839 359 838 359 c 0
 822 359 796 321 796 296 c 0
 796 239 840 209 894 209 c 0
 982 209 1026 299 1026 382 c 0
 1026 476 969 534 900 567 c 2
 860 586 l 1
 508 586 l 1
 508 240 l 2
 508 199 528 159 568 159 c 0
 609 159 639 193 659 223 c 1
 703 176 l 1
 709 176 l 1
 708 174 708 173 707 171 c 1
 711 167 l 1
 708 163 704 159 701 154 c 0
 678 88 654 31 625 -15 c 0
 593 -66 560 -103 524 -123 c 0
 483 -147 434 -159 374 -159 c 0
 314 -159 250 -148 182 -126 c 1
 202 -65 l 1
 256 -83 308 -91 357 -91 c 0
 475 -91 523 -50 572 32 c 0
 578 43 584 53 590 63 c 1
 583 61 576 61 568 61 c 0
 512 61 463 104 442 154 c 1
 399 121 335 97 265 97 c 0
 161 97 63 167 63 268 c 0
 63 380 157 416 207 478 c 0
 220 494 226 507 226 519 c 0
 226 590 145 633 70 633 c 1
 70 738 l 1
 3 738 l 1
 3 741 l 1
 -11 741 l 2
 -30 741 -49 741 -69 742 c 1
 -69 742 -39 756 -20 775 c 0
 -12 782 -4 801 3 812 c 1
 3 817 l 1
 6 817 l 1
 7 818 7 819 8 819 c 1
 8 817 l 1
 262 817 l 2
 545 817 1031 817 1049 851 c 0
 1054 860 1057 875 1057 884 c 0
 1057 907 1038 944 1019 960 c 2
 1002 974 l 1
 1022 997 l 2
 1033 1010 1046 1022 1050 1022 c 0
 1093 1022 1135 929 1135 882 c 0
 1135 743 970 742 814 742 c 2
 159 742 l 1
EndSplineSet
Validated: 1
LCarets2: 1 0
Ligature2: "'vatu' Vattu Variants in Bengali lookup 7 subtable" u09ab u09b0_u09cd.blwf
EndChar

StartChar: u09ac_u09b0_u09cd.blwf.vatu
Encoding: 65604 -1 84
GlifName: u09ac_u09b0_u09cd.blwf.vatu
Width: 870
GlyphClass: 3
Flags: HMW
LayerCount: 2
Fore
SplineSet
732 130 m 0
 761 130 807 175 825 175 c 0
 832 175 879 133 879 129 c 0
 879 118 871 106 858 95 c 1
 835 34 811 -17 783 -60 c 0
 749 -111 715 -148 677 -168 c 0
 634 -192 582 -204 519 -204 c 0
 456 -204 172 -137 101 -115 c 1
 122 -54 l 1
 179 -72 449 -136 501 -136 c 0
 625 -136 675 -95 727 -13 c 0
 741 9 753 29 765 52 c 1
 752 49 740 47 729 47 c 0
 625 47 598 110 574 181 c 1
 574 181 574 182 573 182 c 0
 569 182 556 172 542 160 c 0
 486 111 417 88 348 88 c 0
 196 88 34 199 34 394 c 0
 34 573 155 651 323 696 c 0
 335 699 347 701 360 701 c 0
 433 701 515 653 543 628 c 2
 573 602 l 1
 573 739 l 1
 3 739 l 1
 3 741 l 1
 -11 741 l 2
 -30 741 -49 741 -69 742 c 1
 -69 742 -39 756 -20 775 c 0
 -12 782 -4 801 3 812 c 1
 3 817 l 1
 6 817 l 1
 7 818 7 819 8 819 c 1
 8 817 l 1
 425 817 l 2
 502 817 563 816 612 816 c 0
 751 816 789 824 789 884 c 0
 789 907 770 944 751 960 c 2
 734 974 l 1
 754 997 l 2
 765 1010 778 1022 782 1022 c 0
 825 1022 867 929 867 882 c 0
 867 823 866 769 797 747 c 0
 778 741 697 742 679 741 c 1
 679 186 l 2
 679 143 694 130 732 130 c 0
349 187 m 0
 451 187 567 255 570 388 c 1
 570 400 l 2
 570 516 473 604 353 604 c 0
 242 604 132 527 132 395 c 0
 132 259 244 187 349 187 c 0
EndSplineSet
Validated: 1
LCarets2: 1 0
Ligature2: "'vatu' Vattu Variants in Bengali lookup 7 subtable" u09ac u09b0_u09cd.blwf
EndChar

StartChar: u09ad_u09b0_u09cd.blwf.vatu
Encoding: 65605 -1 85
GlifName: u09ad_u09b0_u09cd.blwf.vatu
Width: 711
VWidth: 1024
GlyphClass: 3
Flags: HMW
LayerCount: 2
Fore
SplineSet
316 739 m 1
 365 730 402 685 402 639 c 0
 402 589 355 541 297 541 c 0
 272 541 250 551 231 572 c 0
 232 573 230 576 227 579 c 1
 224 568 223 556 223 545 c 0
 224 514 240 494 271 494 c 0
 317 494 352 526 379 558 c 0
 419 607 472 651 543 651 c 0
 625 651 660 577 660 491 c 0
 660 382 612 272 539 190 c 1
 541 190 l 1
 516 114 489 50 457 -1 c 0
 425 -52 392 -89 356 -109 c 0
 315 -133 266 -145 206 -145 c 0
 146 -145 82 -134 14 -112 c 1
 34 -51 l 1
 88 -69 140 -77 189 -77 c 0
 307 -77 355 -36 404 46 c 0
 416 67 427 85 438 106 c 1
 386 75 329 57 271 57 c 0
 169 57 30 121 30 232 c 0
 30 296 86 341 149 341 c 0
 226 341 285 274 285 202 c 0
 285 176 276 154 257 135 c 1
 264 134 272 133 279 133 c 0
 431 133 582 338 582 498 c 0
 582 535 570 571 535 571 c 0
 499 571 472 542 450 517 c 0
 404 462 347 414 265 414 c 0
 187 414 142 474 142 552 c 0
 142 641 217 730 293 739 c 1
 0 739 l 1
 0 741 l 1
 -11 741 l 2
 -30 741 -49 741 -69 742 c 1
 -69 742 -39 756 -20 775 c 0
 -13 781 -6 796 0 807 c 1
 0 817 l 1
 6 817 l 1
 7 818 7 819 8 819 c 1
 8 817 l 1
 320 817 l 2
 397 817 455 816 498 816 c 0
 622 816 629 824 629 884 c 0
 629 907 610 944 591 960 c 2
 574 974 l 1
 594 997 l 2
 605 1010 618 1022 622 1022 c 0
 665 1022 707 929 707 882 c 0
 707 843 692 807 662 779 c 0
 622 740 627 741 330 739 c 1
 316 739 l 1
146 268 m 0
 130 265 114 253 114 234 c 0
 114 204 140 181 170 181 c 0
 173 181 175 182 177 182 c 0
 194 185 209 198 209 218 c 0
 209 245 182 269 155 269 c 0
 152 269 149 268 146 268 c 0
328 654 m 0
 328 674 305 690 281 690 c 0
 264 690 240 665 240 648 c 0
 240 629 262 616 284 616 c 0
 306 616 328 633 328 654 c 0
EndSplineSet
Validated: 1
LCarets2: 1 0
Ligature2: "'vatu' Vattu Variants in Bengali lookup 7 subtable" u09ad u09b0_u09cd.blwf
EndChar

StartChar: u09ae_u09b0_u09cd.blwf.vatu
Encoding: 65606 -1 86
GlifName: u09ae_u09b0_u09cd.blwf.vatu
Width: 715
VWidth: 1024
GlyphClass: 3
Flags: HMW
LayerCount: 2
Fore
SplineSet
585 636 m 0
 585 670 500 701 452 740 c 1
 420 740 382 739 337 739 c 2
 248 739 l 1
 325 662 384 556 384 409 c 1
 425 426 459 451 488 480 c 1
 488 481 l 1
 488 481 575 594 575 603 c 1
 582 617 585 628 585 636 c 0
390 344 m 1
 390 203 323 25 195 25 c 0
 123 25 65 83 65 155 c 0
 65 268 211 346 312 383 c 1
 312 588 238 631 108 737 c 1
 0 737 l 1
 0 741 l 1
 -11 741 l 2
 -30 741 -49 741 -69 742 c 1
 -69 742 -39 756 -20 775 c 0
 -13 781 -6 796 0 807 c 1
 0 817 l 1
 6 817 l 1
 7 818 7 819 8 819 c 1
 8 817 l 1
 327 817 l 2
 404 817 462 816 505 816 c 0
 629 816 636 824 636 884 c 0
 636 907 617 944 598 960 c 2
 581 974 l 1
 601 997 l 2
 612 1010 625 1022 629 1022 c 0
 672 1022 714 929 714 882 c 0
 714 797 665 747 561 742 c 1
 603 708 650 696 650 636 c 0
 650 565 609 511 566 474 c 1
 599 404 624 327 624 233 c 0
 624 139 565 68 500 28 c 1
 481 -23 460 -67 436 -105 c 0
 404 -156 371 -193 335 -213 c 0
 294 -237 245 -249 185 -249 c 0
 125 -249 61 -238 -7 -216 c 1
 13 -155 l 1
 67 -173 119 -181 168 -181 c 0
 286 -181 334 -140 383 -58 c 0
 408 -15 429 18 449 81 c 1
 442 90 l 1
 490 119 546 167 546 233 c 0
 546 309 538 379 514 428 c 1
 475 396 435 364 390 344 c 1
312 311 m 1
 244 286 156 234 156 155 c 0
 156 130 171 103 195 103 c 0
 268 103 305 230 312 311 c 1
EndSplineSet
Validated: 1
LCarets2: 1 0
Ligature2: "'vatu' Vattu Variants in Bengali lookup 7 subtable" u09ae u09b0_u09cd.blwf
EndChar

StartChar: u09af_u09b0_u09cd.blwf.vatu
Encoding: 65607 -1 87
GlifName: u09af_u09b0_u09cd.blwf.vatu
Width: 721
VWidth: 1024
GlyphClass: 3
Flags: HMW
LayerCount: 2
Fore
SplineSet
159 739 m 1
 238 708 304 629 304 535 c 0
 304 458 267 398 220 364 c 0
 194 345 161 312 161 275 c 0
 161 233 218 210 265 210 c 0
 329 210 382 239 425 269 c 1
 425 740 l 1
 386 739 336 739 272 739 c 2
 159 739 l 1
568 68 m 0
 512 68 463 111 442 161 c 1
 399 128 335 104 265 104 c 0
 161 104 63 174 63 275 c 0
 63 387 157 423 207 485 c 0
 220 501 226 514 226 526 c 0
 226 597 145 640 70 640 c 1
 70 738 l 1
 3 738 l 1
 3 741 l 1
 -11 741 l 2
 -30 741 -49 741 -69 742 c 1
 -69 742 -39 756 -20 775 c 0
 -12 782 -4 801 3 812 c 1
 3 817 l 1
 6 817 l 1
 7 818 7 819 8 819 c 1
 8 817 l 1
 262 817 l 2
 347 817 415 816 467 816 c 0
 598 816 637 824 637 884 c 0
 637 907 618 944 599 960 c 2
 582 974 l 1
 602 997 l 2
 613 1010 626 1022 630 1022 c 0
 673 1022 715 929 715 882 c 0
 715 769 630 749 503 742 c 1
 503 247 l 2
 503 206 528 166 568 166 c 0
 609 166 639 200 659 230 c 1
 711 174 l 1
 710 172 708 171 707 169 c 1
 709 169 l 1
 684 93 657 29 625 -22 c 0
 593 -73 560 -110 524 -130 c 0
 483 -154 434 -166 374 -166 c 0
 314 -166 250 -155 182 -133 c 1
 202 -72 l 1
 256 -90 308 -98 357 -98 c 0
 475 -98 523 -57 572 25 c 0
 582 42 591 57 600 73 c 1
 590 70 579 68 568 68 c 0
EndSplineSet
Validated: 1
LCarets2: 1 0
Ligature2: "'vatu' Vattu Variants in Bengali lookup 7 subtable" u09af u09b0_u09cd.blwf
EndChar

StartChar: u09b0_u09b0_u09cd.blwf.vatu
Encoding: 65608 -1 88
GlifName: u09b0_u09b0_u09cd.blwf.vatu
Width: 870
GlyphClass: 3
Flags: HMW
LayerCount: 2
Fore
SplineSet
732 130 m 0
 761 130 807 175 825 175 c 0
 830 175 855 154 869 140 c 1
 874 140 l 1
 874 139 873 138 873 137 c 0
 877 133 879 130 879 129 c 0
 879 118 871 107 859 96 c 1
 838 39 816 -10 790 -51 c 0
 758 -102 725 -139 689 -159 c 0
 648 -183 599 -195 539 -195 c 0
 479 -195 415 -184 347 -162 c 1
 367 -101 l 1
 421 -119 473 -127 522 -127 c 0
 640 -127 688 -86 737 -4 c 0
 749 16 759 34 769 53 c 1
 755 49 741 47 729 47 c 0
 625 47 598 110 574 181 c 1
 574 181 574 182 573 182 c 0
 569 182 556 172 542 160 c 0
 486 111 417 88 348 88 c 0
 196 88 34 199 34 394 c 0
 34 573 155 651 323 696 c 0
 335 699 347 701 360 701 c 0
 433 701 515 653 543 628 c 2
 573 602 l 1
 573 739 l 1
 3 739 l 1
 3 741 l 1
 -11 741 l 2
 -30 741 -49 741 -69 742 c 1
 -69 742 -39 756 -20 775 c 0
 -12 782 -4 801 3 812 c 1
 3 817 l 1
 6 817 l 1
 7 818 7 819 8 819 c 1
 8 817 l 1
 425 817 l 2
 502 817 563 816 612 816 c 0
 751 816 789 824 789 884 c 0
 789 907 770 944 751 960 c 2
 734 974 l 1
 754 997 l 2
 765 1010 778 1022 782 1022 c 0
 825 1022 867 929 867 882 c 0
 867 823 866 769 797 747 c 0
 778 741 697 742 679 741 c 1
 679 186 l 2
 679 143 694 130 732 130 c 0
349 187 m 0
 451 187 567 255 570 388 c 1
 570 400 l 2
 570 516 473 604 353 604 c 0
 242 604 132 527 132 395 c 0
 132 259 244 187 349 187 c 0
142 40 m 0
 142 3 108 -21 73 -23 c 0
 45 -23 17 -10 17 19 c 0
 17 58 50 96 88 96 c 0
 122 96 142 68 142 40 c 0
EndSplineSet
Validated: 1
LCarets2: 1 0
Ligature2: "'vatu' Vattu Variants in Bengali lookup 7 subtable" u09b0 u09b0_u09cd.blwf
EndChar

StartChar: u09b2_u09b0_u09cd.blwf.vatu
Encoding: 65609 -1 89
GlifName: u09b2_u09b0_u09cd.blwf.vatu
Width: 1140
GlyphClass: 2
Flags: HMW
LayerCount: 2
Fore
SplineSet
352 262 m 2
 330 240 332 207 291 207 c 0
 259 207 231 233 231 271 c 0
 231 310 270 344 317 344 c 0
 388 344 466 280 466 193 c 0
 466 107 389 45 297 45 c 0
 166 45 82 157 82 282 c 0
 82 495 250 565 523 565 c 2
 572 565 l 1
 596 579 620 585 644 585 c 0
 729 585 807 435 841 301 c 0
 856 243 874 168 927 168 c 0
 974 168 1022 243 1027 325 c 0
 1027 332 1028 407 1028 415 c 0
 1028 536 971 664 875 711 c 1
 835 730 l 1
 -60 730 l 1
 0 819 l 1
 719 819 l 2
 781 819 832 818 874 818 c 0
 1020 818 1056 826 1056 890 c 0
 1056 912 1036 954 1016 973 c 2
 1001 987 l 1
 1024 1011 l 2
 1037 1024 1051 1034 1057 1034 c 0
 1089 1034 1140 945 1140 888 c 0
 1140 821 1050 740 1000 740 c 0
 995 740 993 738 993 735 c 0
 993 725 1017 703 1040 686 c 0
 1086 652 1127 544 1127 441 c 0
 1127 334 1100 178 1023 107 c 1
 1024 107 l 1
 997 31 968 -33 933 -84 c 0
 898 -135 862 -172 823 -192 c 0
 778 -216 725 -228 660 -228 c 0
 595 -228 526 -217 452 -195 c 1
 474 -134 l 1
 533 -152 589 -160 642 -160 c 0
 770 -160 822 -119 875 -37 c 0
 897 -2 917 27 935 70 c 1
 931 70 l 2
 745 70 787 400 679 473 c 0
 666 482 655 487 645 487 c 0
 596 487 575 423 575 371 c 0
 575 284 606 199 657 148 c 1
 683 123 l 1
 647 96 l 2
 627 81 609 70 606 70 c 0
 549 70 477 288 477 364 c 0
 477 411 487 456 505 492 c 1
 331 492 l 1
 291 471 l 1
 221 438 164 381 164 286 c 0
 164 203 208 113 296 113 c 0
 350 113 394 143 394 200 c 0
 394 225 369 263 353 263 c 0
 352 263 352 262 352 262 c 2
EndSplineSet
Validated: 1
LCarets2: 1 0
Ligature2: "'vatu' Vattu Variants in Bengali lookup 7 subtable" u09b2 u09b0_u09cd.blwf
EndChar

StartChar: u09b6_u09b0_u09cd.blwf.vatu
Encoding: 65610 -1 90
GlifName: u09b6_u09b0_u09cd.blwf.vatu
Width: 1052
GlyphClass: 3
Flags: HMW
AnchorPoint: "Anchor-0" 577 834 basechar 0
AnchorPoint: "Anchor-1" 607 -60 basechar 0
LayerCount: 2
Fore
SplineSet
218 316 m 0
 275 316 322 363 322 420 c 0
 322 478 276 524 218 524 c 0
 160 524 114 478 114 420 c 0
 114 363 161 316 218 316 c 0
517 316 m 0
 573 316 621 364 621 420 c 0
 621 477 574 524 517 524 c 0
 460 524 413 477 413 420 c 0
 413 364 461 316 517 316 c 0
842 191 m 1
 829 163 805 107 789 84 c 0
 754 33 718 -4 679 -24 c 0
 634 -48 581 -60 516 -60 c 0
 451 -60 173 -49 99 -27 c 1
 121 34 l 1
 180 16 445 8 498 8 c 0
 626 8 678 49 731 131 c 0
 743 150 754 167 765 186 c 1
 762 230 761 301 761 424 c 2
 761 732 l 1
 504 732 l 1
 443 710 400 644 400 563 c 1
 431 589 469 615 517 615 c 0
 624 615 712 527 712 420 c 0
 712 313 624 225 517 225 c 0
 449 225 395 269 368 316 c 1
 341 268 287 225 218 225 c 0
 111 225 23 313 23 420 c 0
 23 527 111 615 218 615 c 0
 266 615 304 589 335 563 c 1
 335 636 359 699 400 732 c 1
 515 815 l 1
 907 815 l 1
 908 815 l 2
 944 815 972 844 972 880 c 0
 972 921 956 951 933 971 c 1
 972 1023 l 1
 1011 991 1050 942 1050 880 c 0
 1050 804 989 737 914 737 c 2
 907 737 l 1
 844 737 l 1
 844 434 l 1
 843 345 841 282 841 237 c 0
 841 219 841 204 842 191 c 1
EndSplineSet
Validated: 1
LCarets2: 1 0
Ligature2: "'vatu' Vattu Variants in Bengali lookup 7 subtable" u09b6 u09b0_u09cd.blwf
EndChar

StartChar: u09b7_u09b0_u09cd.blwf.vatu
Encoding: 65611 -1 91
GlifName: u09b7_u09b0_u09cd.blwf.vatu
Width: 721
VWidth: 1024
GlyphClass: 3
Flags: HMW
LayerCount: 2
Fore
SplineSet
568 68 m 0
 512 68 463 111 442 161 c 1
 399 128 335 104 265 104 c 0
 161 104 63 174 63 275 c 0
 63 387 157 423 207 485 c 0
 220 501 226 514 226 526 c 0
 226 597 145 640 70 640 c 1
 70 738 l 1
 3 738 l 1
 3 817 l 1
 262 817 l 2
 347 817 415 816 467 816 c 0
 598 816 637 824 637 884 c 0
 637 907 618 944 599 960 c 2
 582 974 l 1
 602 997 l 2
 613 1010 626 1022 630 1022 c 0
 673 1022 715 929 715 882 c 0
 715 769 630 749 503 742 c 1
 503 247 l 2
 503 206 528 166 568 166 c 0
 609 166 639 200 659 230 c 1
 698 188 l 1
 706 188 l 1
 705 186 705 184 704 182 c 1
 711 174 l 1
 705 166 699 157 692 148 c 0
 671 89 648 39 622 -3 c 0
 590 -54 557 -91 521 -111 c 0
 480 -135 431 -147 371 -147 c 0
 311 -147 247 -136 179 -114 c 1
 199 -53 l 1
 253 -71 305 -79 354 -79 c 0
 472 -79 520 -38 569 44 c 0
 574 53 579 61 584 69 c 1
 579 68 573 68 568 68 c 0
303 515 m 1
 339 515 397 502 425 490 c 1
 425 740 l 1
 386 739 336 739 272 739 c 2
 159 739 l 1
 238 708 304 629 304 535 c 0
 304 528 304 522 303 515 c 1
277 430 m 1
 249 379 161 343 161 275 c 0
 161 233 218 210 265 210 c 0
 329 210 382 239 425 269 c 1
 425 372 l 1
 400 377 383 408 353 419 c 0
 326 429 300 427 277 430 c 1
EndSplineSet
Validated: 1
LCarets2: 1 0
Ligature2: "'vatu' Vattu Variants in Bengali lookup 7 subtable" u09b7 u09b0_u09cd.blwf
EndChar

StartChar: u09b8_u09b0_u09cd.blwf.vatu
Encoding: 65612 -1 92
GlifName: u09b8_u09b0_u09cd.blwf.vatu
Width: 776
VWidth: 1024
GlyphClass: 3
Flags: HMW
LayerCount: 2
Fore
SplineSet
776 885 m 0
 776 807 711 742 633 742 c 2
 213 742 l 1
 214 741 l 1
 170 740 130 640 130 599 c 0
 130 535 224 501 292 495 c 0
 376 488 449 446 481 382 c 1
 481 690 l 1
 481 741 l 1
 483 740 l 1
 563 740 l 1
 563 448 l 2
 563 362 562 300 562 255 c 0
 562 146 570 139 626 139 c 0
 649 139 686 158 702 177 c 2
 716 194 l 1
 740 174 l 2
 751 165 760 155 763 149 c 0
 764 148 764 147 764 146 c 0
 764 137 760 128 753 119 c 0
 731 56 707 2 679 -42 c 0
 647 -93 614 -130 578 -150 c 0
 537 -174 488 -186 428 -186 c 0
 368 -186 304 -175 236 -153 c 1
 256 -92 l 1
 310 -110 362 -118 411 -118 c 0
 529 -118 577 -77 626 5 c 0
 639 26 650 46 661 67 c 1
 647 63 634 61 624 61 c 0
 585 61 549 76 521 106 c 0
 492 137 485 141 483 271 c 1
 454 201 365 157 273 157 c 0
 150 157 57 239 0 320 c 1
 65 365 l 1
 109 303 181 235 273 235 c 0
 334 235 403 269 403 326 c 0
 403 381 335 412 279 417 c 0
 169 427 39 491 39 599 c 0
 39 668 59 724 119 741 c 1
 8 741 l 1
 -79 741 l 1
 -51 764 -14 764 2 820 c 1
 633 820 l 2
 669 820 698 849 698 885 c 0
 698 924 671 955 646 976 c 1
 698 1028 l 1
 737 995 776 949 776 885 c 0
EndSplineSet
Validated: 1
LCarets2: 1 0
Ligature2: "'vatu' Vattu Variants in Bengali lookup 7 subtable" u09b8 u09b0_u09cd.blwf
EndChar

StartChar: u09b9_u09b0_u09cd.blwf.vatu
Encoding: 65613 -1 93
GlifName: u09b9_u09b0_u09cd.blwf.vatu
Width: 693
GlyphClass: 3
Flags: HMW
LayerCount: 2
Fore
SplineSet
306 815 m 2
 383 815 441 814 484 814 c 0
 608 814 615 822 615 882 c 0
 615 905 596 942 577 958 c 2
 560 972 l 1
 580 995 l 2
 591 1008 604 1020 608 1020 c 0
 651 1020 693 927 693 880 c 0
 693 841 677 806 648 777 c 0
 608 738 613 739 316 737 c 1
 -61 737 l 1
 0 815 l 1
 306 815 l 2
512 471 m 0
 512 551 486 628 405 628 c 0
 355 628 293 573 280 542 c 1
 188 528 l 1
 218 615 l 1
 228 638 l 1
 232 638 245 657 246 658 c 0
 247 659 337 723 411 723 c 0
 549 723 621 598 621 472 c 0
 621 399 601 321 560 265 c 0
 547 247 536 231 536 228 c 0
 536 225 544 210 555 195 c 0
 582 157 603 98 605 56 c 1
 605 20 l 1
 579 20 l 1
 560 -29 540 -72 517 -108 c 0
 485 -159 452 -196 416 -216 c 0
 375 -240 326 -252 266 -252 c 0
 206 -252 142 -241 74 -219 c 1
 94 -158 l 1
 148 -176 200 -184 249 -184 c 0
 367 -184 415 -143 464 -61 c 0
 480 -34 494 -10 508 20 c 1
 507 20 l 1
 495 72 l 2
 487 106 469 168 458 168 c 0
 456 168 438 159 419 148 c 0
 354 109 288 90 223 90 c 0
 123 90 0 146 0 227 c 0
 0 321 128 367 227 367 c 0
 289 367 355 352 415 322 c 2
 458 301 l 1
 469 315 l 1
 496 347 512 404 512 471 c 0
373 236 m 0
 373 267 257 282 211 282 c 0
 173 282 107 264 107 228 c 0
 107 197 176 189 226 189 c 2
 241 189 l 1
 290 193 373 222 373 236 c 0
EndSplineSet
Validated: 1
LCarets2: 1 0
Ligature2: "'vatu' Vattu Variants in Bengali lookup 7 subtable" u09b9 u09b0_u09cd.blwf
EndChar

StartChar: janya_u09b0_u09cd.blwf.vatu
Encoding: 65614 -1 94
GlifName: janya_u09b0_u09cd.blwf.vatu
Width: 995
VWidth: 1024
GlyphClass: 3
Flags: HMW
LayerCount: 2
Fore
SplineSet
750 85 m 1
 738 91 725 100 710 111 c 0
 698 121 676 127 665 133 c 1
 665 243 l 1
 665 310 l 1
 654 280 654 277 636 246 c 0
 569 130 487 54 389 18 c 0
 349 3 310 -4 271 -4 c 0
 213 -4 156 12 99 45 c 0
 59 68 31 100 15 138 c 0
 7 156 4 173 4 190 c 0
 4 253 53 293 101 306 c 0
 113 309 125 311 137 311 c 0
 160 311 183 305 205 292 c 0
 247 268 272 235 283 191 c 0
 286 179 288 167 288 156 c 0
 288 127 277 103 256 82 c 1
 265 81 273 80 282 80 c 0
 323 80 367 96 412 127 c 0
 467 165 516 220 557 292 c 0
 591 351 610 406 616 459 c 0
 617 469 618 478 618 487 c 0
 618 524 607 549 585 561 c 0
 580 564 574 566 567 566 c 0
 557 566 546 563 533 557 c 0
 511 547 491 530 471 507 c 0
 429 457 382 422 331 404 c 0
 307 396 285 391 264 391 c 0
 177 391 128 459 128 544 c 0
 128 582 139 619 160 656 c 0
 178 687 199 711 222 735 c 1
 2 735 l 1
 2 815 l 1
 342 815 l 2
 625 815 878 815 896 849 c 0
 901 858 905 872 905 881 c 0
 905 904 886 941 867 957 c 2
 850 971 l 1
 870 995 l 2
 881 1008 894 1019 898 1019 c 0
 902 1019 919 1006 936 989 c 0
 960 965 969 951 976 925 c 0
 980 909 983 894 983 879 c 0
 983 840 968 804 938 776 c 0
 899 738 649 738 379 736 c 1
 362 731 345 725 332 716 c 0
 295 689 264 655 239 611 c 0
 226 587 218 564 218 541 c 0
 218 504 236 480 272 480 c 0
 284 480 298 484 313 490 c 0
 341 502 368 523 392 552 c 0
 429 596 470 627 515 643 c 0
 536 650 556 654 574 654 c 0
 595 654 614 649 631 639 c 0
 634 637 638 636 641 636 c 0
 665 636 693 677 693 677 c 1
 719 692 747 700 777 700 c 0
 864 700 932 622 932 534 c 0
 932 458 880 406 822 385 c 1
 880 364 932 311 932 237 c 0
 932 165 885 99 820 81 c 1
 795 5 766 -66 734 -117 c 0
 702 -168 669 -205 633 -225 c 0
 592 -249 543 -261 483 -261 c 0
 423 -261 359 -250 291 -228 c 1
 311 -167 l 1
 365 -185 417 -193 466 -193 c 0
 584 -193 632 -152 681 -70 c 0
 706 -28 730 23 750 85 c 1
858 534 m 0
 858 579 822 619 777 619 c 0
 760 619 743 614 726 605 c 0
 725 605 725 604 724 604 c 1
 728 589 730 573 730 557 c 2
 730 423 l 1
 791 429 858 473 858 534 c 0
784 163 m 0
 824 163 858 197 858 237 c 0
 858 297 792 341 731 347 c 1
 731 209 l 1
 760 188 766 163 784 163 c 0
125 213 m 0
 106 210 90 196 90 174 c 0
 90 143 119 118 150 118 c 0
 153 118 157 119 160 119 c 0
 180 122 195 135 195 158 c 0
 195 189 167 214 135 214 c 0
 132 214 128 213 125 213 c 0
EndSplineSet
Validated: 1
EndChar

StartChar: u0995_u09cd_u0995.cjct
Encoding: 65617 -1 97
GlifName: u0995_u09cd_u0995.cjct
Width: 1089
GlyphClass: 3
Flags: HMW
AnchorPoint: "Anchor-1" 708 -1 basechar 0
AnchorPoint: "Anchor-0" 610 849 basechar 0
LayerCount: 2
Fore
SplineSet
652 381 m 1
 652 381 654 348 654 327 c 0
 654 324 654 321 654 318 c 1
 900 318 1059 289 1059 191 c 0
 1059 135 982 84 865 84 c 0
 781 84 713 113 713 151 c 0
 713 191 783 219 847 219 c 0
 890 219 924 203 924 185 c 0
 924 168 899 157 871 157 c 0
 833 157 836 172 816 182 c 1
 800 182 778 166 778 154 c 0
 778 128 817 115 865 115 c 0
 945 115 984 155 984 193 c 0
 984 235 933 261 871 276 c 2
 835 285 l 1
 651 285 l 1
 651 190 l 2
 651 142 650 112 650 93 c 0
 650 56 658 49 707 49 c 0
 734 49 775 69 791 69 c 0
 797 69 839 51 839 49 c 0
 839 31 757 12 704 12 c 0
 604 12 595 42 565 72 c 0
 562 72 549 69 537 63 c 0
 487 41 424 31 362 31 c 0
 226 31 78 81 78 169 c 0
 78 243 204 306 372 306 c 0
 438 306 512 284 537 273 c 2
 563 261 l 1
 563 289 l 1
 563 376 l 1
 563 377 l 2
 563 385 565 425 565 435 c 2
 565 437 l 1
 562 437 549 434 537 428 c 0
 487 406 424 396 362 396 c 0
 226 396 78 446 78 534 c 0
 78 608 204 671 372 671 c 0
 438 671 512 649 537 638 c 2
 563 626 l 1
 563 741 l 1
 11 741 l 1
 -11 741 l 2
 -30 741 -49 741 -69 742 c 1
 -69 742 -39 756 -20 775 c 0
 -13 781 -6 796 0 807 c 1
 0 825 l 1
 945 825 l 2
 978 825 1005 827 1005 865 c 0
 1005 871 1002 876 1002 876 c 1
 1002 890 l 1
 995 891 l 1
 995 893 992 898 979 911 c 2
 965 925 l 1
 983 946 l 2
 993 958 1004 968 1008 968 c 0
 1047 968 1084 885 1084 842 c 0
 1084 758 1056 749 948 741 c 1
 948 741 834 742 748 742 c 0
 705 742 669 742 658 741 c 1
 658 741 655 701 654 683 c 1
 900 683 1059 654 1059 556 c 0
 1059 500 982 449 865 449 c 0
 781 449 713 478 713 516 c 0
 713 556 783 584 847 584 c 0
 890 584 924 568 924 550 c 0
 924 533 899 522 871 522 c 0
 833 522 836 537 816 547 c 1
 800 547 778 531 778 519 c 0
 778 493 817 480 865 480 c 0
 945 480 984 520 984 558 c 0
 984 600 933 626 871 641 c 2
 835 650 l 1
 651 650 l 1
 651 555 l 2
 651 507 650 477 650 458 c 2
 650 444 l 2
 650 422 650 386 652 381 c 1
352 432 m 0
 444 432 547 464 550 524 c 1
 550 530 l 2
 550 582 463 620 355 620 c 0
 262 620 160 589 160 533 c 2
 160 526 l 2
 160 466 259 432 352 432 c 0
352 67 m 0
 444 67 547 99 550 159 c 1
 550 165 l 2
 550 217 463 255 355 255 c 0
 262 255 160 224 160 168 c 2
 160 161 l 2
 160 101 259 67 352 67 c 0
EndSplineSet
Validated: 1
LCarets2: 2 0 0
Ligature2: "'cjct' Conjunct Forms in Bengali2 lookup 13" u0995 u09cd u0995
EndChar

StartChar: u0995_u09cd_u099f.cjct
Encoding: 65618 -1 98
GlifName: u0995_u09cd_u099f.cjct
Width: 1242
GlyphClass: 3
Flags: HMW
LayerCount: 2
Fore
SplineSet
654 411 m 1
 653 411 653 410 653 407 c 0
 653 400 655 384 655 377 c 0
 655 374 654 373 654 373 c 1
 654 188 l 2
 654 136 781 107 881 107 c 0
 1015 107 1122 153 1122 216 c 0
 1122 251 1030 278 1021 280 c 1
 1003 280 l 2
 996 280 996 281 989 281 c 0
 963 281 923 277 923 277 c 2
 842 272 778 266 778 228 c 0
 778 219 793 198 799 198 c 0
 802 198 806 202 809 208 c 0
 822 230 860 248 930 248 c 0
 996 248 1063 231 1063 201 c 0
 1063 165 981 138 898 138 c 0
 792 138 702 176 696 218 c 0
 696 220 695 221 695 223 c 0
 695 266 786 307 895 307 c 2
 1022 307 l 2
 1061 307 1195 239 1195 188 c 0
 1195 110 1033 65 881 65 c 0
 812 65 743 74 687 94 c 0
 673 99 660 102 656 102 c 0
 632 74 604 49 500 49 c 0
 441 49 350 66 350 81 c 0
 350 83 397 100 404 100 c 0
 422 100 468 82 497 82 c 0
 550 82 556 88 556 118 c 2
 556 431 l 1
 551 430 540 427 530 422 c 0
 480 400 417 390 355 390 c 0
 219 390 71 440 71 528 c 0
 71 602 197 665 365 665 c 0
 431 665 505 643 530 632 c 2
 556 620 l 1
 556 733 l 1
 335 733 l 1
 335 735 l 1
 4 735 l 1
 -18 735 l 2
 -37 735 -56 735 -76 736 c 1
 -76 736 -46 750 -27 769 c 0
 -20 775 -13 790 -7 801 c 1
 -7 819 l 1
 335 819 l 1
 335 820 l 1
 335 820 359 820 396 819 c 1
 721 819 l 1
 748 840 847 903 875 915 c 0
 906 928 938 975 938 1018 c 0
 938 1021 938 1023 936 1023 c 0
 933 1023 928 1018 920 1009 c 0
 898 985 874 974 846 974 c 0
 783 974 731 1027 731 1082 c 0
 731 1137 787 1191 857 1191 c 0
 936 1191 1007 1127 1007 1025 c 0
 1007 939 968 892 910 862 c 0
 903 859 877 834 864 819 c 1
 938 819 l 2
 943 819 953 817 966 814 c 0
 1157 827 1132 819 1148 849 c 0
 1153 858 1157 872 1157 881 c 0
 1157 904 1138 941 1119 957 c 2
 1102 971 l 1
 1122 995 l 2
 1133 1008 1146 1019 1150 1019 c 0
 1193 1019 1235 927 1235 880 c 0
 1235 809 1186 736 1102 736 c 2
 968 736 l 2
 960 736 951 736 941 735 c 1
 941 735 827 736 741 736 c 0
 701 736 668 735 654 735 c 1
 654 677 l 1
 896 676 1052 647 1052 550 c 0
 1052 494 975 443 858 443 c 0
 774 443 706 472 706 510 c 0
 706 550 776 578 840 578 c 0
 883 578 917 562 917 544 c 0
 917 527 892 516 864 516 c 0
 826 516 829 531 809 541 c 1
 793 541 771 525 771 513 c 0
 771 487 810 474 858 474 c 0
 938 474 977 514 977 552 c 0
 977 594 926 620 864 635 c 2
 828 644 l 1
 654 644 l 1
 654 411 l 1
967 195 m 0
 967 205 950 210 927 210 c 0
 894 210 859 201 859 185 c 0
 859 175 876 168 904 168 c 0
 944 168 967 178 967 195 c 0
890 1073 m 0
 890 1094 863 1113 838 1113 c 0
 819 1113 791 1085 791 1067 c 0
 791 1045 816 1031 841 1031 c 0
 866 1031 890 1050 890 1073 c 0
344 432 m 0
 436 432 539 464 542 524 c 1
 542 530 l 2
 542 582 455 620 347 620 c 0
 254 620 152 589 152 533 c 2
 152 526 l 2
 152 466 251 432 344 432 c 0
EndSplineSet
Validated: 1
LCarets2: 2 0 0
Ligature2: "'cjct' Conjunct Forms in Bengali2 lookup 13" u0995 u09cd u099f
EndChar

StartChar: u0995_u09cd_u09a4.cjct
Encoding: 65619 -1 99
GlifName: u0995_u09cd_u09a4.cjct
Width: 1089
GlyphClass: 3
Flags: HMW
LayerCount: 2
Fore
SplineSet
437 297 m 0
 437 313 425 338 404 338 c 0
 386 338 368 320 368 299 c 0
 368 277 388 260 406 260 c 0
 426 260 437 280 437 297 c 0
352 432 m 0
 444 432 547 464 550 524 c 1
 550 530 l 2
 550 582 463 620 355 620 c 0
 262 620 160 589 160 533 c 2
 160 526 l 2
 160 466 259 432 352 432 c 0
707 414 m 0
 734 414 775 434 791 434 c 0
 797 434 839 416 839 414 c 0
 839 402 803 390 763 383 c 1
 823 357 850 294 850 228 c 0
 850 98 736 4 572 -3 c 1
 555 -3 l 2
 391 -3 282 92 282 224 c 0
 282 315 319 395 408 395 c 0
 463 395 511 354 511 299 c 0
 510 243 470 203 406 203 c 0
 388 203 372 209 360 209 c 0
 358 209 357 207 357 203 c 0
 357 112 458 51 552 51 c 2
 566 51 l 1
 697 59 777 125 777 229 c 0
 777 282 746 330 706 330 c 0
 682 330 651 319 651 297 c 0
 651 280 685 266 704 240 c 2
 714 226 l 1
 682 227 648 227 616 228 c 1
 602 239 l 2
 584 253 572 280 571 298 c 0
 571 335 599 366 639 383 c 1
 597 393 587 415 565 437 c 0
 562 437 549 434 537 428 c 0
 487 406 424 396 362 396 c 0
 226 396 78 446 78 534 c 0
 78 608 204 671 372 671 c 0
 438 671 512 649 537 638 c 2
 563 626 l 1
 563 741 l 1
 11 741 l 1
 -11 741 l 2
 -30 741 -49 741 -69 742 c 1
 -69 742 -39 756 -20 775 c 0
 -13 781 -6 796 0 807 c 1
 0 825 l 1
 945 825 l 2
 978 825 1005 827 1005 865 c 0
 1005 871 1002 876 1002 876 c 1
 1002 890 l 1
 995 891 l 1
 995 893 992 898 979 911 c 2
 965 925 l 1
 983 946 l 2
 993 958 1004 968 1008 968 c 0
 1047 968 1084 885 1084 842 c 0
 1084 758 1056 749 948 741 c 1
 948 741 834 742 748 742 c 0
 705 742 669 742 658 741 c 1
 658 741 655 701 654 683 c 1
 900 683 1059 654 1059 556 c 0
 1059 500 982 449 865 449 c 0
 781 449 713 478 713 516 c 0
 713 556 783 584 847 584 c 0
 890 584 924 568 924 550 c 0
 924 533 899 522 871 522 c 0
 833 522 836 537 816 547 c 1
 800 547 778 531 778 519 c 0
 778 493 817 480 865 480 c 0
 945 480 984 520 984 558 c 0
 984 600 933 626 871 641 c 2
 835 650 l 1
 651 650 l 1
 651 555 l 2
 651 507 650 477 650 458 c 0
 650 421 658 414 707 414 c 0
EndSplineSet
Validated: 1
LCarets2: 2 0 0
Ligature2: "'cjct' Conjunct Forms in Bengali2 lookup 13" u0995 u09cd u09a4
EndChar

StartChar: u0995_u09cd_u09a8.cjct
Encoding: 65620 -1 100
GlifName: u0995_u09cd_u09a8.cjct
Width: 1089
GlyphClass: 3
Flags: HMW
LayerCount: 2
Fore
SplineSet
352 432 m 0
 444 432 547 464 550 524 c 1
 550 530 l 2
 550 582 463 620 355 620 c 0
 262 620 160 589 160 533 c 2
 160 526 l 2
 160 466 259 432 352 432 c 0
707 414 m 0
 734 414 775 434 791 434 c 0
 797 434 839 416 839 414 c 0
 839 403 810 392 775 385 c 1
 821 368 862 286 862 235 c 0
 862 164 813 84 666 84 c 0
 480 84 522 215 414 251 c 0
 401 255 390 258 380 258 c 0
 331 258 310 226 310 200 c 0
 310 156 341 115 392 89 c 2
 418 76 l 1
 382 63 l 2
 362 55 344 50 341 50 c 0
 284 50 212 159 212 197 c 0
 212 253 267 307 379 307 c 0
 464 307 543 266 576 199 c 0
 591 170 609 133 662 133 c 0
 709 133 757 170 762 211 c 0
 762 215 763 218 763 222 c 0
 763 272 724 344 656 380 c 1
 600 388 589 413 565 437 c 0
 562 437 549 434 537 428 c 0
 487 406 424 396 362 396 c 0
 226 396 78 446 78 534 c 0
 78 608 204 671 372 671 c 0
 438 671 512 649 537 638 c 2
 563 626 l 1
 563 741 l 1
 11 741 l 1
 -11 741 l 2
 -30 741 -49 741 -69 742 c 1
 -69 742 -39 756 -20 775 c 0
 -13 781 -6 796 0 807 c 1
 0 825 l 1
 945 825 l 2
 978 825 1005 827 1005 865 c 0
 1005 871 1002 876 1002 876 c 1
 1002 890 l 1
 995 891 l 1
 995 893 992 898 979 911 c 2
 965 925 l 1
 983 946 l 2
 993 958 1004 968 1008 968 c 0
 1047 968 1084 885 1084 842 c 0
 1084 758 1056 749 948 741 c 1
 948 741 834 742 748 742 c 0
 705 742 669 742 658 741 c 1
 658 741 655 701 654 683 c 1
 900 683 1059 654 1059 556 c 0
 1059 500 982 449 865 449 c 0
 781 449 713 478 713 516 c 0
 713 556 783 584 847 584 c 0
 890 584 924 568 924 550 c 0
 924 533 899 522 871 522 c 0
 833 522 836 537 816 547 c 1
 800 547 778 531 778 519 c 0
 778 493 817 480 865 480 c 0
 945 480 984 520 984 558 c 0
 984 600 933 626 871 641 c 2
 835 650 l 1
 651 650 l 1
 651 555 l 2
 651 507 650 477 650 458 c 0
 650 421 658 414 707 414 c 0
EndSplineSet
Validated: 1
LCarets2: 2 0 0
Ligature2: "'cjct' Conjunct Forms in Bengali2 lookup 13" u0995 u09cd u09a8
EndChar

StartChar: u0995_u09cd_u09ae.cjct
Encoding: 65621 -1 101
GlifName: u0995_u09cd_u09ae.cjct
Width: 1243
VWidth: 1024
GlyphClass: 3
Flags: HMW
LayerCount: 2
Fore
SplineSet
837 410 m 1
 866 406 897 404 897 393 c 1
 948 410 991 435 1027 464 c 1
 1027 465 l 2
 1027 476 1112 553 1132 579 c 0
 1134 583 1136 586 1135 587 c 0
 1144 601 1148 612 1148 620 c 0
 1148 631 1144 639 1134 647 c 0
 1132 649 1031 716 987 745 c 1
 975 744 962 743 948 742 c 1
 948 742 834 743 748 743 c 0
 705 743 669 743 658 742 c 1
 658 742 655 702 654 684 c 1
 900 684 1059 655 1059 557 c 0
 1059 501 982 450 865 450 c 0
 781 450 713 479 713 517 c 0
 713 557 783 585 847 585 c 0
 890 585 924 569 924 551 c 0
 924 534 899 523 871 523 c 0
 833 523 836 538 816 548 c 1
 800 548 778 532 778 520 c 0
 778 494 817 481 865 481 c 0
 945 481 984 521 984 559 c 0
 984 601 933 627 871 642 c 2
 835 651 l 1
 651 651 l 1
 651 556 l 2
 651 508 650 478 650 459 c 0
 650 422 658 415 707 415 c 0
 734 415 775 435 791 435 c 0
 797 435 839 417 839 415 c 0
 839 413 838 412 837 410 c 1
967 824 m 1
 967 827 l 1
 1100 829 1103 836 1120 860 c 0
 1126 869 1130 884 1130 893 c 0
 1130 916 1107 953 1083 969 c 2
 1062 983 l 1
 1087 1006 l 2
 1101 1019 1117 1031 1122 1031 c 0
 1127 1031 1148 1018 1169 1001 c 0
 1199 977 1210 963 1219 937 c 0
 1224 921 1228 906 1228 891 c 0
 1228 852 1209 817 1172 788 c 0
 1152 772 1138 764 1106 758 c 1
 1132 743 1178 704 1192 693 c 0
 1217 673 1229 649 1229 620 c 0
 1229 549 1178 495 1124 458 c 1
 1165 388 1197 311 1197 217 c 0
 1197 120 1118 48 1034 9 c 1
 969 74 l 1
 1009 93 1040 115 1064 140 c 0
 1088 165 1099 191 1099 217 c 0
 1099 293 1089 363 1059 412 c 1
 1010 380 960 348 904 328 c 1
 904 240 881 165 833 103 c 0
 785 41 728 9 660 9 c 0
 570 9 498 67 498 139 c 0
 498 180 527 222 583 264 c 0
 639 306 715 340 807 367 c 1
 807 378 804 385 801 392 c 1
 773 384 734 378 704 378 c 0
 604 378 595 408 565 438 c 0
 562 438 549 435 537 429 c 0
 487 407 424 397 362 397 c 0
 226 397 78 447 78 535 c 0
 78 609 204 672 372 672 c 0
 438 672 512 650 537 639 c 2
 563 627 l 1
 563 742 l 1
 11 742 l 1
 -11 742 l 2
 -30 742 -49 742 -69 743 c 1
 -69 743 -39 757 -20 776 c 0
 -13 782 -6 797 0 808 c 1
 0 826 l 1
 945 826 l 2
 950 826 958 825 967 824 c 1
352 432 m 0
 444 432 547 464 550 524 c 1
 550 530 l 2
 550 582 463 620 355 620 c 0
 262 620 160 589 160 533 c 2
 160 526 l 2
 160 466 259 432 352 432 c 0
590 130 m 0
 590 105 609 78 639 78 c 0
 674 78 702 100 733 138 c 0
 766 178 780 227 786 286 c 1
 727 269 680 246 644 218 c 0
 608 190 590 160 590 130 c 0
EndSplineSet
Validated: 1
LCarets2: 2 0 0
Ligature2: "'cjct' Conjunct Forms in Bengali2 lookup 13" u0995 u09cd u09ae
EndChar

StartChar: u0995_u09cd_u09b2.cjct
Encoding: 65622 -1 102
GlifName: u0995_u09cd_u09b2.cjct
Width: 1089
GlyphClass: 3
Flags: HMW
LayerCount: 2
Fore
SplineSet
752 424 m 1
 768 429 783 434 791 434 c 0
 797 434 839 416 839 414 c 0
 839 413 839 411 838 410 c 1
 840 409 842 407 845 406 c 0
 882 389 916 272 916 220 c 0
 916 149 876 34 757 34 c 0
 607 34 640 200 553 236 c 0
 542 240 533 242 525 242 c 0
 485 242 469 210 469 184 c 0
 469 140 494 99 535 73 c 2
 556 60 l 1
 527 47 l 2
 511 39 497 34 494 34 c 0
 448 34 389 143 389 181 c 0
 389 205 398 227 412 245 c 1
 271 245 l 1
 238 234 l 1
 181 218 136 190 136 142 c 0
 136 100 172 56 243 56 c 0
 287 56 322 71 322 99 c 0
 322 111 302 130 289 130 c 2
 288 130 l 1
 270 119 271 102 238 102 c 0
 212 102 190 115 190 134 c 0
 190 154 222 171 260 171 c 0
 318 171 380 140 380 96 c 0
 380 53 319 22 244 22 c 0
 138 22 69 78 69 140 c 0
 69 246 205 282 426 282 c 2
 466 282 l 1
 486 289 504 292 524 292 c 0
 592 292 656 217 684 150 c 0
 697 121 711 83 754 83 c 0
 792 83 831 121 835 162 c 0
 835 166 836 202 836 206 c 0
 836 251 810 334 764 383 c 1
 744 379 722 377 704 377 c 0
 604 377 595 407 565 437 c 0
 562 437 549 434 537 428 c 0
 487 406 424 396 362 396 c 0
 226 396 78 446 78 534 c 0
 78 608 204 671 372 671 c 0
 438 671 512 649 537 638 c 2
 563 626 l 1
 563 741 l 1
 11 741 l 1
 -11 741 l 2
 -30 741 -49 741 -69 742 c 1
 -69 742 -39 756 -20 775 c 0
 -13 781 -6 796 0 807 c 1
 0 825 l 1
 945 825 l 2
 978 825 1005 827 1005 865 c 0
 1005 871 1002 876 1002 876 c 1
 1002 890 l 1
 995 891 l 1
 995 893 992 898 979 911 c 2
 965 925 l 1
 983 946 l 2
 993 958 1004 968 1008 968 c 0
 1047 968 1084 885 1084 842 c 0
 1084 758 1056 749 948 741 c 1
 948 741 834 742 748 742 c 0
 705 742 669 742 658 741 c 1
 658 741 655 701 654 683 c 1
 900 683 1059 654 1059 556 c 0
 1059 500 982 449 865 449 c 0
 781 449 713 478 713 516 c 0
 713 556 783 584 847 584 c 0
 890 584 924 568 924 550 c 0
 924 533 899 522 871 522 c 0
 833 522 836 537 816 547 c 1
 800 547 778 531 778 519 c 0
 778 493 817 480 865 480 c 0
 945 480 984 520 984 558 c 0
 984 600 933 626 871 641 c 2
 835 650 l 1
 651 650 l 1
 651 555 l 2
 651 507 650 477 650 458 c 0
 650 421 658 414 707 414 c 0
 711 414 716 414 720 415 c 1
 717 416 715 417 712 418 c 2
 679 428 l 1
 752 424 l 1
352 432 m 0
 444 432 547 464 550 524 c 1
 550 530 l 2
 550 582 463 620 355 620 c 0
 262 620 160 589 160 533 c 2
 160 526 l 2
 160 466 259 432 352 432 c 0
EndSplineSet
Validated: 1
LCarets2: 2 0 0
Ligature2: "'cjct' Conjunct Forms in Bengali2 lookup 13" u0995 u09cd u09b2
EndChar

StartChar: u0995_u09cd_u09b8.cjct
Encoding: 65623 -1 103
GlifName: u0995_u09cd_u09b8.cjct
Width: 1371
GlyphClass: 3
Flags: HMW
LayerCount: 2
Fore
SplineSet
683 381 m 1
 603 385 594 412 566 440 c 0
 563 440 550 437 538 431 c 0
 488 409 425 399 363 399 c 0
 227 399 79 449 79 537 c 0
 79 611 205 674 373 674 c 0
 439 674 513 652 538 641 c 2
 564 629 l 1
 564 744 l 1
 12 744 l 1
 -10 744 l 2
 -29 744 -48 744 -68 745 c 1
 -68 745 -38 759 -19 778 c 0
 -12 784 -5 799 1 810 c 1
 1 823 l 1
 1225 823 l 2
 1261 823 1290 852 1290 888 c 0
 1290 927 1263 958 1238 979 c 1
 1290 1031 l 1
 1329 998 1368 952 1368 888 c 0
 1368 810 1301 746 1225 745 c 1
 1165 745 l 1
 1165 451 l 1
 1162 365 1154 303 1154 258 c 0
 1154 149 1162 142 1218 142 c 0
 1241 142 1278 161 1294 180 c 2
 1308 197 l 1
 1332 177 l 2
 1345 166 1356 153 1356 149 c 0
 1356 106 1263 64 1216 64 c 0
 1177 64 1141 79 1113 109 c 0
 1108 115 1103 117 1099 117 c 0
 1092 117 1087 111 1083 111 c 0
 1078 111 1076 124 1075 188 c 1
 1047 119 963 74 869 74 c 2
 865 74 l 1
 742 76 649 156 592 237 c 1
 657 282 l 1
 701 220 773 152 865 152 c 0
 926 152 995 186 995 243 c 0
 995 298 927 329 871 334 c 0
 792 341 721 335 683 381 c 1
1072 741 m 2
 1072 746 1052 748 1023 748 c 0
 981 748 920 745 869 745 c 2
 853 745 l 1
 794 745 l 2
 735 745 666 745 659 744 c 1
 659 744 656 704 655 686 c 1
 901 686 1060 657 1060 559 c 0
 1060 503 983 452 866 452 c 0
 782 452 714 481 714 519 c 0
 714 559 784 587 848 587 c 0
 891 587 925 571 925 553 c 0
 925 536 900 525 872 525 c 0
 834 525 837 540 817 550 c 1
 801 550 779 534 779 522 c 0
 779 496 818 483 866 483 c 0
 946 483 985 523 985 561 c 0
 985 603 934 629 872 644 c 2
 836 653 l 1
 652 653 l 1
 652 558 l 2
 652 510 651 480 651 461 c 0
 651 429 656 419 689 417 c 1
 718 425 765 437 788 437 c 2
 792 437 l 2
 798 437 840 419 840 417 c 0
 840 415 839 413 837 411 c 1
 845 411 854 413 868 413 c 0
 873 413 878 413 884 412 c 0
 968 405 1041 363 1073 299 c 1
 1073 607 l 1
 1072 741 l 2
352 432 m 0
 444 432 547 464 550 524 c 1
 550 530 l 2
 550 582 463 620 355 620 c 0
 262 620 160 589 160 533 c 2
 160 526 l 2
 160 466 259 432 352 432 c 0
EndSplineSet
Validated: 1
LCarets2: 2 0 0
Ligature2: "'cjct' Conjunct Forms in Bengali2 lookup 13" u0995 u09cd u09b8
EndChar

StartChar: bn_ka_ssa.akhn_u09cd_u09a3.cjct
Encoding: 65624 -1 104
GlifName: bn_ka_ssa.akhn_u09cd_u09a3.cjct
Width: 1135
VWidth: 1024
GlyphClass: 3
Flags: HMW
LayerCount: 2
Fore
SplineSet
644 137 m 1
 499 137 l 1
 459 127 l 1
 389 107 332 73 332 16 c 0
 332 -34 376 -88 464 -88 c 0
 518 -88 562 -69 562 -35 c 0
 562 -20 537 2 521 2 c 2
 520 2 l 1
 498 -11 500 -31 459 -31 c 0
 427 -31 399 -16 399 7 c 0
 399 30 438 51 485 51 c 0
 556 51 634 12 634 -40 c 0
 634 -92 557 -128 465 -128 c 0
 334 -128 250 -61 250 14 c 0
 250 104 374 178 564 182 c 0
 580 182 650 198 680 198 c 1
 671 203 660 235 660 243 c 1
 626 256 615 260 601 287 c 1
 558 261 494 241 424 241 c 0
 368 241 313 257 275 285 c 1
 229 300 l 1
 243 315 l 1
 243 315 244 315 244 316 c 0
 230 334 222 355 222 378 c 0
 222 397 227 414 234 428 c 1
 220 438 203 445 187 448 c 0
 172 451 163 452 157 452 c 0
 154 452 151 453 151 451 c 0
 151 449 157 444 165 438 c 0
 189 420 201 401 201 379 c 0
 201 329 147 286 93 286 c 0
 38 286 -17 331 -17 388 c 0
 -17 432 16 475 73 497 c 0
 96 506 108 507 149 507 c 0
 192 507 202 506 229 496 c 0
 244 490 258 482 271 473 c 1
 291 490 313 505 334 520 c 1
 315 526 l 1
 327 540 l 2
 342 558 351 578 351 598 c 0
 351 608 350 619 345 628 c 0
 341 636 333 647 321 652 c 0
 298 662 269 668 242 670 c 1
 244 668 246 666 249 664 c 0
 273 646 285 626 285 604 c 0
 285 554 231 512 177 512 c 0
 122 512 69 557 69 614 c 0
 69 658 101 689 159 715 c 0
 181 725 192 727 229 727 c 1
 229 747 l 1
 162 747 l 1
 31 747 l 2
 26 747 22 750 17 750 c 0
 -2 750 -21 750 -41 751 c 1
 -41 751 -12 766 8 784 c 0
 16 791 24 810 31 821 c 1
 31 826 l 1
 34 826 l 2
 35 826 35 828 36 828 c 1
 36 826 l 1
 421 826 l 2
 506 826 574 825 626 825 c 0
 757 825 1043 833 1043 893 c 0
 1043 916 1024 953 1005 969 c 2
 988 983 l 1
 1008 1006 l 2
 1019 1019 1032 1031 1036 1031 c 0
 1079 1031 1121 938 1121 891 c 0
 1121 878 1123 865 1123 853 c 0
 1123 826 1114 802 1054 783 c 0
 1027 774 1000 772 975 772 c 0
 937 772 905 778 898 778 c 0
 895 778 894 777 894 776 c 0
 894 770 928 750 928 750 c 2
 928 749 1111 629 1111 528 c 0
 1111 495 1100 462 1079 430 c 0
 1059 400 1011 363 973 349 c 0
 947 339 938 339 895 339 c 0
 839 339 812 346 777 372 c 0
 744 396 726 425 726 457 c 0
 726 527 804 578 875 578 c 0
 922 578 961 551 961 520 c 0
 961 490 933 468 901 468 c 0
 879 468 858 478 849 496 c 0
 845 504 842 511 841 512 c 2
 841 512 841 513 840 513 c 0
 833 513 809 495 803 484 c 0
 800 478 798 471 798 463 c 0
 798 417 842 393 896 393 c 0
 913 393 930 396 945 402 c 0
 996 422 1028 478 1028 532 c 0
 1028 555 1022 578 1010 598 c 0
 989 632 950 662 902 680 c 2
 862 695 l 1
 686 695 l 1
 662 695 l 1
 662 356 l 2
 662 335 672 313 690 301 c 0
 695 299 699 297 704 294 c 0
 711 292 719 291 727 291 c 0
 768 291 798 318 818 342 c 1
 870 297 l 1
 845 268 690 151 644 137 c 1
318 748 m 1
 397 717 463 661 463 586 c 0
 463 524 426 476 379 449 c 0
 358 437 324 420 324 396 c 0
 324 390 325 383 325 374 c 0
 325 371 323 368 323 365 c 0
 323 364 324 364 324 363 c 0
 338 339 385 326 424 326 c 0
 488 326 541 349 584 373 c 1
 584 749 l 1
 545 748 495 748 431 748 c 2
 318 748 l 1
169 648 m 0
 148 648 129 626 129 606 c 0
 129 591 157 569 175 569 c 0
 196 569 209 588 209 608 c 0
 209 628 192 648 169 648 c 0
83 422 m 0
 62 422 43 400 43 380 c 0
 43 365 71 344 89 344 c 0
 110 344 125 362 125 382 c 0
 125 402 106 422 83 422 c 0
EndSplineSet
Validated: 1
LCarets2: 2 0 0
Ligature2: "'cjct' Conjunct Forms in Bengali2 lookup 13" u0995_u09cd_u09b7.akhn u09cd u09a3
EndChar

StartChar: bn_ka_ssa.akhn_u09cd_u09ae.cjct
Encoding: 65625 -1 105
GlifName: bn_ka_ssa.akhn_u09cd_u09ae.cjct
Width: 1165
VWidth: 1024
GlyphClass: 3
Flags: HMW
LayerCount: 2
Fore
SplineSet
686 375 m 1
 736 398 804 433 826 455 c 1
 826 456 l 2
 826 465 873 520 898 553 c 0
 899 554 900 554 900 555 c 0
 904 561 908 566 910 570 c 0
 912 574 914 577 913 578 c 0
 920 592 923 603 923 611 c 0
 923 622 920 630 912 638 c 0
 910 640 818 723 787 748 c 0
 784 748 781 741 778 741 c 2
 740 741 l 1
 740 739 724 738 703 738 c 0
 661 738 599 741 599 741 c 1
 599 679 l 1
 717 679 l 1
 792 623 l 2
 792 622 814 594 814 531 c 0
 814 511 808 489 798 469 c 0
 788 450 764 428 745 419 c 0
 732 413 728 412 706 412 c 0
 678 412 665 417 647 433 c 0
 631 448 622 466 622 486 c 0
 622 530 660 562 696 562 c 0
 720 562 739 545 739 525 c 0
 739 506 725 493 709 493 c 0
 698 493 687 499 683 511 c 2
 679 521 l 1
 678 521 l 2
 674 521 663 509 660 503 c 0
 658 499 658 495 658 490 c 0
 658 462 679 446 706 446 c 0
 714 446 723 448 731 452 c 0
 757 464 772 499 772 533 c 0
 772 547 770 562 764 574 c 0
 754 595 734 613 710 625 c 2
 690 635 l 1
 602 635 l 1
 602 423 l 1
 590 421 l 2
 590 402 603 382 622 382 c 0
 642 382 658 399 668 414 c 1
 694 386 l 1
 692 383 689 379 686 375 c 1
494 130 m 0
 494 105 509 78 533 78 c 0
 561 78 586 98 608 138 c 0
 630 178 645 227 650 286 c 1
 603 269 566 246 537 218 c 0
 508 190 494 160 494 130 c 0
746 818 m 1
 778 818 l 1
 884 820 888 827 901 851 c 0
 906 860 909 875 909 884 c 0
 909 907 890 944 871 960 c 2
 854 974 l 1
 874 997 l 2
 885 1010 898 1022 902 1022 c 0
 906 1022 923 1009 940 992 c 0
 964 968 973 954 980 928 c 0
 984 912 987 897 987 882 c 0
 987 843 971 808 942 779 c 0
 926 763 916 755 890 749 c 1
 911 734 947 695 958 684 c 0
 978 664 988 640 988 611 c 0
 988 540 947 486 904 449 c 1
 937 379 962 302 962 208 c 0
 962 111 899 39 832 0 c 1
 780 65 l 1
 812 84 837 106 856 131 c 0
 875 156 884 182 884 208 c 0
 884 284 876 354 852 403 c 1
 813 371 773 339 728 319 c 1
 728 231 709 156 671 94 c 0
 633 32 587 0 533 0 c 0
 461 0 403 58 403 130 c 0
 403 171 426 213 471 255 c 0
 506 287 547 315 598 338 c 1
 581 346 566 362 559 380 c 1
 537 364 505 351 470 351 c 0
 442 351 415 361 396 379 c 1
 373 388 l 1
 380 397 l 1
 380 398 l 1
 373 410 370 423 370 437 c 0
 370 449 372 459 376 468 c 1
 369 474 360 478 352 480 c 0
 344 482 340 483 337 483 c 0
 335 483 334 483 334 482 c 0
 334 480 337 478 341 474 c 0
 353 462 359 451 359 437 c 0
 359 405 332 379 305 379 c 0
 277 379 250 407 250 443 c 0
 250 471 267 497 295 511 c 0
 307 517 313 517 333 517 c 0
 355 517 359 516 373 510 c 0
 381 506 388 502 394 496 c 1
 404 506 416 515 426 525 c 1
 416 529 l 1
 422 538 l 2
 430 549 434 562 434 574 c 0
 434 580 433 587 431 593 c 0
 429 598 425 604 419 608 c 0
 407 614 394 618 380 619 c 1
 381 618 381 617 383 615 c 0
 395 603 401 592 401 578 c 0
 401 546 374 520 347 520 c 0
 319 520 293 548 293 584 c 0
 293 612 310 638 338 652 c 0
 349 657 355 658 373 658 c 1
 214 741 l 1
 147 741 l 1
 16 741 l 2
 11 741 7 744 2 744 c 0
 -17 744 -36 744 -56 745 c 1
 -56 745 -26 759 -7 778 c 0
 1 785 9 804 16 815 c 1
 16 820 l 1
 19 820 l 1
 20 821 20 822 21 822 c 1
 21 820 l 1
 406 820 l 2
 491 820 694 818 746 818 c 1
318 748 m 1
 397 717 505 620 505 573 c 0
 505 535 487 505 463 488 c 0
 453 480 440 468 436 454 c 1
 436 440 l 2
 436 438 436 436 436 434 c 0
 443 419 466 410 486 410 c 0
 518 410 540 410 562 425 c 1
 562 741 l 1
 555 741 l 2
 519 741 491 748 431 748 c 2
 318 748 l 1
358 612 m 0
 348 612 338 598 338 586 c 0
 338 576 352 562 361 562 c 0
 371 562 378 574 378 586 c 0
 378 598 370 612 358 612 c 0
315 470 m 0
 305 470 295 456 295 444 c 0
 295 434 309 422 318 422 c 0
 328 422 336 434 336 446 c 0
 336 458 327 470 315 470 c 0
EndSplineSet
LCarets2: 2 0 0
Ligature2: "'cjct' Conjunct Forms in Bengali2 lookup 13" u0995_u09cd_u09b7.akhn u09cd u09ae
EndChar

StartChar: u0997_u09cd_u0997.cjct
Encoding: 65626 -1 106
GlifName: u0997_u09cd_u0997.cjct
Width: 867
VWidth: 1024
GlyphClass: 3
Flags: HMW
AnchorPoint: "Anchor-1" 676 28 basechar 0
AnchorPoint: "Anchor-0" 541 824 basechar 0
LayerCount: 2
Fore
SplineSet
818 127 m 0
 818 84 725 42 678 42 c 0
 639 42 603 57 575 87 c 0
 542 121 537 146 535 330 c 1
 222 330 l 2
 178 330 131 314 131 294 c 0
 131 218 495 257 495 158 c 0
 495 106 382 74 274 74 c 0
 151 74 58 115 1 155 c 1
 66 178 l 1
 111 146 180 112 274 112 c 0
 336 112 404 129 404 158 c 0
 404 186 336 202 280 204 c 0
 171 209 40 240 40 294 c 0
 40 337 132 369 222 370 c 2
 535 370 l 1
 535 395 534 422 534 452 c 2
 534 739 l 1
 221 739 l 2
 177 739 130 726 130 699 c 0
 130 600 494 650 494 520 c 0
 494 452 381 409 273 409 c 0
 150 409 57 463 0 516 c 1
 65 545 l 1
 110 504 179 460 273 460 c 0
 335 460 403 482 403 520 c 0
 403 556 335 577 279 580 c 0
 170 587 39 629 39 699 c 0
 39 755 131 819 221 819 c 1
 752 819 l 1
 752 823 772 839 775 845 c 0
 780 855 785 873 785 885 c 0
 785 908 766 944 747 960 c 2
 730 974 l 1
 750 998 l 2
 761 1011 774 1022 778 1022 c 0
 821 1022 863 930 863 883 c 0
 863 844 848 808 818 780 c 0
 778 741 769 741 617 740 c 1
 617 462 l 2
 617 374 615 308 615 259 c 0
 615 144 624 120 680 120 c 0
 703 120 740 139 756 158 c 2
 770 175 l 1
 794 155 l 2
 807 144 818 131 818 127 c 0
EndSplineSet
LCarets2: 2 0 0
Ligature2: "'cjct' Conjunct Forms in Bengali2 lookup 13" u0997 u09cd u0997
EndChar

StartChar: u0997_u09cd_u09a4.cjct
Encoding: 65627 -1 107
GlifName: u0997_u09cd_u09a4.cjct
Width: 750
GlyphClass: 3
Flags: HMW
LayerCount: 2
Fore
SplineSet
350 360 m 0
 350 376 340 401 323 401 c 0
 309 401 295 383 295 362 c 0
 295 340 311 323 325 323 c 0
 341 323 350 343 350 360 c 0
565 393 m 0
 546 393 521 382 521 360 c 0
 521 343 548 329 563 303 c 2
 571 289 l 1
 545 290 519 290 493 291 c 1
 482 302 l 2
 468 316 458 343 457 361 c 0
 457 407 492 447 538 456 c 1
 538 720 l 1
 225 720 l 1
 206.882352941 720 188.256055363 721.186851211 172.611846123 721.186851211 c 0
 150.262975779 721.186851211 134 718.764705882 134 707 c 0
 134 631 498 669 498 570 c 0
 498 518 385 486 277 486 c 0
 154 486 61 527 4 567 c 1
 69 590 l 1
 114 558 183 525 277 525 c 0
 339 525 407 541 407 570 c 0
 407 598 339 614 283 616 c 0
 174 621 43 653 43 707 c 0
 43 750 135 800 225 800 c 1
 638 800 l 1
 638 804 658 820 661 826 c 0
 666 836 671 854 671 866 c 0
 671 889 652 925 633 941 c 2
 616 955 l 1
 636 979 l 2
 647 992 660 1003 664 1003 c 0
 707 1003 749 911 749 864 c 0
 749 825 734 789 704 761 c 0
 664 722 673 721 621 721 c 1
 621 440 l 2
 621 439 623 438 624 437 c 0
 629 433 633 429 637 424 c 0
 642 420 646 417 646 415 c 2
 646 414 l 1
 669 382 680 338 680 291 c 0
 680 161 589 67 458 60 c 1
 444 60 l 2
 313 60 226 155 226 287 c 0
 226 378 256 458 327 458 c 0
 371 458 409 417 409 362 c 0
 408 306 376 266 325 266 c 0
 311 266 298 272 288 272 c 0
 286 272 286 270 286 266 c 0
 286 175 367 114 442 114 c 2
 453 114 l 1
 558 122 622 188 622 292 c 0
 622 345 597 393 565 393 c 0
EndSplineSet
LCarets2: 2 0 0
Ligature2: "'cjct' Conjunct Forms in Bengali2 lookup 13" u0997 u09cd u09a4
EndChar

StartChar: u0997_u09cd_u09a6.cjct
Encoding: 65628 -1 108
GlifName: u0997_u09cd_u09a6.cjct
Width: 997
VWidth: 1024
GlyphClass: 3
Flags: HMW
LayerCount: 2
Fore
SplineSet
755 58 m 0
 662 58 553 108 553 194 c 0
 553 287 649 314 697 362 c 0
 710 375 717 387 717 396 c 0
 717 456 629 486 561 486 c 1
 561 739 l 1
 533 739 l 1
 221 739 l 2
 177 738 130 708 130 667 c 0
 130 516 494 592 494 394 c 0
 494 291 381 225 273 225 c 0
 150 225 57 307 0 388 c 1
 65 433 l 1
 110 370 179 303 273 303 c 0
 335 303 403 336 403 394 c 0
 403 449 335 480 279 485 c 0
 170 495 39 560 39 667 c 0
 39 753 131 815 221 817 c 2
 429 817 l 1
 435 817 l 1
 436 818 436 819 437 819 c 1
 437 817 l 1
 440 819 l 1
 528 819 l 1
 528 817 l 1
 848 817 l 2
 884 817 913 846 913 882 c 0
 913 920 886 952 861 973 c 1
 906 1025 l 1
 946 991 991 944 991 882 c 0
 991 804 926 739 848 739 c 2
 636 739 l 1
 636 568 l 1
 715 548 795 485 795 402 c 0
 795 340 754 291 711 266 c 0
 687 251 651 226 651 194 c 0
 651 159 714 142 755 142 c 0
 819 142 879 167 925 194 c 1
 971 130 l 1
 919 87 847 58 755 58 c 0
EndSplineSet
LCarets2: 2 0 0
Ligature2: "'cjct' Conjunct Forms in Bengali2 lookup 13" u0997 u09cd u09a6
EndChar

StartChar: u0997_u09cd_u09a7.cjct
Encoding: 65629 -1 109
GlifName: u0997_u09cd_u09a7.cjct
Width: 1150
VWidth: 1024
GlyphClass: 3
Flags: HMW
LayerCount: 2
Fore
SplineSet
1013 58 m 0
 961 58 919 96 896 142 c 1
 853 99 789 58 714 58 c 0
 583 58 485 132 485 260 c 0
 485 346 530 421 590 448 c 1
 530 475 485 549 485 635 c 0
 485 671 493 706 507 738 c 1
 221 738 l 2
 177 737 130 708 130 667 c 0
 130 516 494 592 494 394 c 0
 494 291 381 225 273 225 c 0
 150 225 57 307 0 388 c 1
 65 433 l 1
 110 370 179 303 273 303 c 0
 335 303 403 336 403 394 c 0
 403 449 335 480 279 485 c 0
 170 495 39 560 39 667 c 0
 39 753 131 817 221 819 c 2
 573 819 l 1
 593 831 615 838 640 838 c 0
 721 838 781 764 781 682 c 0
 781 617 733 557 670 557 c 1
 670 635 l 1
 692 635 707 659 707 682 c 0
 707 710 676 728 646 728 c 0
 602 728 571 681 571 635 c 0
 571 497 736 500 877 495 c 1
 877 817 l 1
 919 819 1071 823 1071 884 c 0
 1071 907 1052 944 1033 960 c 2
 1016 974 l 1
 1036 997 l 2
 1047 1010 1060 1022 1064 1022 c 0
 1110 1022 1150 924 1150 875 c 0
 1150 857 1108 749 1108 749 c 1
 1107 749 l 0
 1103 749 1090 741 1072 741 c 0
 1065 741 1027 745 995 745 c 0
 979 745 964 744 956 741 c 1
 956 229 l 2
 956 190 976 151 1013 151 c 0
 1052 151 1081 185 1100 214 c 1
 1149 151 l 1
 1119 106 1075 58 1013 58 c 0
877 400 m 1
 736 395 571 398 571 260 c 0
 571 189 632 151 707 151 c 0
 782 151 836 207 877 257 c 1
 877 400 l 1
EndSplineSet
LCarets2: 2 0 0
Ligature2: "'cjct' Conjunct Forms in Bengali2 lookup 13" u0997 u09cd u09a7
EndChar

StartChar: u0997_u09cd_u09a8.cjct
Encoding: 65630 -1 110
GlifName: u0997_u09cd_u09a8.cjct
Width: 867
VWidth: 1024
GlyphClass: 3
Flags: HMW
LayerCount: 2
Fore
SplineSet
535 272 m 1
 535 311 534 397 534 452 c 2
 534 739 l 1
 221 739 l 2
 177 739 130 715 130 674 c 0
 130 523 494 599 494 401 c 0
 494 298 381 232 273 232 c 0
 150 232 57 314 0 395 c 1
 65 440 l 1
 110 377 179 310 273 310 c 0
 335 310 403 343 403 401 c 0
 403 456 335 487 279 492 c 0
 170 502 39 567 39 674 c 0
 39 760 131 819 221 819 c 2
 752 819 l 1
 752 823 772 839 775 845 c 0
 780 855 785 873 785 885 c 0
 785 908 766 944 747 960 c 2
 730 974 l 1
 750 998 l 2
 761 1011 774 1022 778 1022 c 0
 821 1022 863 930 863 883 c 0
 863 844 848 808 818 780 c 0
 778 741 769 741 617 740 c 1
 617 462 l 2
 617 402 616 353 615 312 c 1
 647 311 670 266 673 265 c 0
 719 248 760 167 760 115 c 0
 760 44 711 -36 564 -36 c 0
 378 -36 420 95 312 131 c 0
 299 135 288 138 278 138 c 0
 229 138 208 106 208 80 c 0
 208 36 239 -5 290 -31 c 2
 316 -44 l 1
 280 -57 l 2
 260 -65 242 -70 239 -70 c 0
 182 -70 110 39 110 77 c 0
 110 133 165 187 277 187 c 0
 362 187 441 146 474 79 c 0
 489 50 507 13 560 13 c 0
 607 13 655 50 660 91 c 0
 660 95 661 98 661 102 c 0
 661 159 622 243 535 272 c 1
EndSplineSet
Validated: 1
LCarets2: 2 0 0
Ligature2: "'cjct' Conjunct Forms in Bengali2 lookup 13" u0997 u09cd u09a8
EndChar

StartChar: u0997_u09cd_u09ae.cjct
Encoding: 65631 -1 111
GlifName: u0997_u09cd_u09ae.cjct
Width: 1056
VWidth: 1024
GlyphClass: 3
Flags: HMW
LayerCount: 2
Fore
SplineSet
645 302 m 1
 577 277 489 225 489 146 c 0
 489 121 504 94 528 94 c 0
 601 94 638 221 645 302 c 1
918 627 m 0
 918 661 833 692 785 731 c 1
 753 731 715 730 670 730 c 2
 593 730 l 1
 670 653 717 547 717 400 c 1
 758 417 792 442 821 471 c 1
 821 472 l 1
 821 472 908 585 908 594 c 1
 915 608 918 619 918 627 c 0
229 731 m 0
 185 730 138 707 138 666 c 0
 138 515 502 591 502 393 c 0
 502 290 389 224 281 224 c 0
 158 224 65 306 8 387 c 1
 73 432 l 1
 118 369 187 302 281 302 c 0
 343 302 411 335 411 393 c 0
 411 448 343 479 287 484 c 0
 178 494 47 559 47 666 c 0
 47 752 139 811 229 813 c 2
 342 813 l 1
 342 814 l 1
 363 818 l 1
 548 818 l 1
 548 813 l 1
 673 813 814 812 837 812 c 0
 848 812 859 812 868 812 c 0
 963 812 971 814 971 869 c 0
 971 892 952 929 933 945 c 2
 916 959 l 1
 936 982 l 2
 947 995 960 1007 964 1007 c 0
 1007 1007 1049 914 1049 867 c 0
 1049 782 1000 732 896 727 c 1
 938 693 985 681 985 621 c 0
 985 550 944 496 901 459 c 1
 934 389 959 312 959 218 c 0
 959 121 896 49 829 10 c 1
 777 75 l 1
 825 104 881 152 881 218 c 0
 881 294 873 364 849 413 c 1
 810 381 770 349 725 329 c 1
 725 188 658 10 530 10 c 0
 458 10 400 68 400 140 c 0
 400 253 546 331 647 368 c 1
 647 573 573 616 443 722 c 1
 335 722 l 1
 324 726 l 2
 305 726 249 730 229 731 c 0
EndSplineSet
LCarets2: 2 0 0
Ligature2: "'cjct' Conjunct Forms in Bengali2 lookup 13" u0997 u09cd u09ae
EndChar

StartChar: u0997_u09cd_u09b2.cjct
Encoding: 65632 -1 112
GlifName: u0997_u09cd_u09b2.cjct
Width: 1114
GlyphClass: 3
Flags: HMW
LayerCount: 2
Fore
SplineSet
877 270 m 0
 854 295 826 316 793 324 c 1
 779 339 l 1
 778 383 775 380 775 452 c 2
 775 739 l 1
 462 739 l 2
 418 739 371 715 371 674 c 0
 371 523 735 599 735 401 c 0
 735 298 622 232 514 232 c 0
 391 232 298 314 241 395 c 1
 306 440 l 1
 351 377 420 310 514 310 c 0
 576 310 644 343 644 401 c 0
 644 456 576 487 520 492 c 0
 411 502 280 567 280 674 c 0
 280 760 372 819 462 819 c 2
 993 819 l 1
 993 823 1013 839 1016 845 c 0
 1021 855 1026 873 1026 885 c 0
 1026 908 1007 944 988 960 c 2
 971 974 l 1
 991 998 l 2
 1002 1011 1015 1022 1019 1022 c 0
 1062 1022 1104 930 1104 883 c 0
 1104 844 1089 808 1059 780 c 0
 1019 741 1010 741 858 740 c 1
 858 462 l 1
 858 369 l 1
 919 325 l 1
 928 320 944 316 958 311 c 0
 1004 294 1045 176 1045 124 c 0
 1045 53 996 -61 849 -61 c 0
 663 -61 705 104 597 140 c 0
 584 144 573 148 563 148 c 0
 514 148 493 116 493 90 c 0
 493 46 524 4 575 -22 c 1
 601 -34 l 1
 565 -48 l 2
 545 -56 527 -61 524 -61 c 0
 467 -61 395 48 395 86 c 0
 395 110 405 132 423 150 c 1
 249 150 l 1
 209 140 l 1
 139 124 82 95 82 47 c 0
 82 5 126 -40 214 -40 c 0
 268 -40 312 -24 312 4 c 0
 312 16 287 36 271 36 c 0
 270 36 270 35 270 35 c 1
 248 24 250 8 209 8 c 0
 177 8 149 21 149 40 c 0
 149 60 188 76 235 76 c 0
 306 76 384 44 384 0 c 0
 384 -43 307 -74 215 -74 c 0
 84 -74 0 -17 0 45 c 0
 0 151 168 186 441 186 c 2
 490 186 l 1
 514 193 538 196 562 196 c 0
 647 196 725 121 759 54 c 0
 774 25 792 -12 845 -12 c 0
 892 -12 940 25 945 66 c 0
 945 70 946 108 946 112 c 0
 946 152 921 221 877 270 c 0
EndSplineSet
Validated: 1
LCarets2: 2 0 0
Ligature2: "'cjct' Conjunct Forms in Bengali2 lookup 13" u0997 u09cd u09b2
EndChar

StartChar: u0999_u09cd_u0995.cjct
Encoding: 65633 -1 113
GlifName: u0999_u09cd_u0995.cjct
Width: 1200
GlyphClass: 3
Flags: HMW
LayerCount: 2
Fore
SplineSet
292 658 m 0
 313 658 332 668 332 679 c 0
 332 687 304 698 286 698 c 0
 264 698 250 688 250 678 c 0
 250 668 269 658 292 658 c 0
120 431 m 1
 100 430 85 424 85 415 c 0
 85 402 116 392 147 392 c 2
 155 392 l 1
 175 393 190 400 190 409 c 0
 190 422 162 431 130 431 c 2
 120 431 l 1
483 66 m 0
 575 66 678 97 681 157 c 1
 681 163 l 2
 681 215 594 254 486 254 c 0
 393 254 291 222 291 166 c 2
 291 158 l 2
 291 98 390 66 483 66 c 0
838 48 m 0
 865 48 906 68 922 68 c 0
 928 68 970 49 970 47 c 0
 970 29 888 10 835 10 c 0
 735 10 726 40 696 70 c 0
 693 70 680 67 668 61 c 0
 618 39 555 28 493 28 c 0
 357 28 209 78 209 166 c 0
 209 240 335 304 503 304 c 0
 569 304 643 283 668 272 c 2
 687 260 l 1
 687 490 l 1
 638 409 459 337 268 337 c 0
 153 337 0 366 0 416 c 0
 0 445 64 465 134 465 c 0
 218 465 283 435 283 403 c 0
 283 391 272 381 251 372 c 1
 260 372 268 371 277 371 c 0
 448 371 614 464 614 536 c 0
 614 553 599 568 561 568 c 0
 519 568 491 556 466 544 c 0
 414 519 351 497 260 497 c 0
 173 497 124 525 124 559 c 0
 124 573 136 600 166 609 c 1
 103 618 51 638 51 674 c 0
 51 694 58 704 77 714 c 2
 89 721 l 1
 108 718 127 714 146 711 c 1
 133 704 l 2
 117 695 109 685 109 675 c 0
 109 652 162 634 219 634 c 0
 222 634 224 635 224 636 c 0
 224 637 219 639 211 642 c 0
 187 651 175 661 175 672 c 0
 175 698 229 719 283 719 c 0
 327 719 388 701 388 676 c 0
 388 651 334 618 332 618 c 0
 327 618 326 616 326 614 c 0
 326 612 328 609 328 607 c 0
 328 606 328 606 327 606 c 0
 297 606 214 586 214 563 c 2
 214 557 l 1
 215 543 234 533 268 533 c 0
 319 533 356 562 388 563 c 0
 434 564 487 585 569 604 c 0
 583 607 596 608 607 608 c 0
 644 608 664 594 679 575 c 1
 679 741 l 1
 657 741 l 1
 635 741 l 2
 616 741 597 741 577 742 c 1
 577 742 607 756 626 775 c 0
 633 781 640 796 646 807 c 1
 646 825 l 1
 1061 825 l 2
 1094 825 1121 827 1121 865 c 0
 1121 871 1118 876 1118 876 c 1
 1118 890 l 1
 1111 891 l 1
 1111 893 1108 898 1095 911 c 2
 1081 925 l 1
 1099 946 l 2
 1109 958 1120 968 1124 968 c 0
 1163 968 1200 885 1200 842 c 0
 1200 758 1172 749 1064 741 c 1
 1064 741 950 742 864 742 c 0
 821 742 785 742 774 741 c 1
 774 741 785.0592 365.9088 785.0592 319.976256 c 0
 785.0592 318.0624 785.04 316.72 785 316 c 1
 1031 316 1190 287 1190 189 c 0
 1190 133 1113 82 996 82 c 0
 912 82 844 110 844 148 c 0
 844 188 914 217 978 217 c 0
 1021 217 1055 202 1055 184 c 0
 1055 167 1030 155 1002 155 c 0
 964 155 967 170 947 180 c 1
 931 180 909 164 909 152 c 0
 909 126 948 113 996 113 c 0
 1076 113 1115 153 1115 191 c 0
 1115 233 1064 259 1002 274 c 1
 966 282 l 1
 782 282 l 1
 782 188 l 2
 782 140 781 109 781 90 c 0
 781 53 789 48 838 48 c 0
EndSplineSet
LCarets2: 2 0 0
Ligature2: "'cjct' Conjunct Forms in Bengali2 lookup 13" u0999 u09cd u0995
EndChar

StartChar: u0999_u09cd_u0996.cjct
Encoding: 65634 -1 114
GlifName: u0999_u09cd_u0996.cjct
Width: 942
VWidth: 1024
GlyphClass: 3
Flags: HMW
LayerCount: 2
Fore
SplineSet
751 62 m 0
 657 62 580 139 580 233 c 2
 580 296 l 1
 538 173 434 102 289 102 c 0
 139 102 0 133 0 203 c 0
 0 249 210 329 281 341 c 1
 210 353 0 344 0 390 c 0
 0 398 5 406 5 414 c 0
 5 420 1 426 1 432 c 0
 1 468 53 503 138 503 c 0
 200 503 239 482 239 451 c 0
 239 418 188 397 134 397 c 0
 129 397 116 397 110 396 c 0
 110 394 109 392 109 390 c 0
 109 377 197 375 199 375 c 2
 199 375 462 420 473 480 c 1
 507 425 l 1
 507 421 205 258 160 252 c 0
 118 246 109 222 109 203 c 0
 109 165 196 148 281 148 c 0
 468 148 585 395 585 608 c 2
 585 818 l 1
 668 818 733 817 775 817 c 0
 810 817 829 818 829 820 c 0
 829 824 852 845 852 845 c 1
 852 849 855 848 857 853 c 0
 858 856 859 863 860 867 c 0
 862 875 862 880 862 885 c 0
 862 908 843 945 824 961 c 2
 807 975 l 1
 827 998 l 2
 838 1011 844 1023 848 1023 c 0
 891 1023 940 930 940 883 c 0
 940 844 926 767 922 765 c 0
 915 762 813 749 813 749 c 1
 813 746 781 746 781 746 c 1
 676 746 l 1
 676 233 l 2
 676 190 708 155 751 155 c 0
 800 155 834 187 860 218 c 1
 923 155 l 1
 884 108 827 62 751 62 c 0
134 466 m 0
 102 466 84 456 84 440 c 0
 84 430 99 423 123 423 c 0
 151 423 175 438 175 450 c 0
 175 460 157 466 134 466 c 0
281 689 m 0
 257 689 190 676 190 662 c 2
 190 658 l 1
 191 649 206 644 233 644 c 0
 274 644 306 653 329 662 c 0
 366 676 408 688 474 688 c 0
 547 688 579 668 579 644 c 0
 579 583 413 521 233 521 c 0
 141 521 19 539 19 570 c 0
 19 588 70 601 126 601 c 0
 193 601 245 582 245 562 c 0
 245 554 237 549 220 543 c 1
 227 543 234 542 241 542 c 0
 378 542 510 600 510 645 c 0
 510 656 498 665 468 665 c 0
 434 665 412 658 392 650 c 0
 350 634 300 621 227 621 c 0
 157 621 118 639 118 660 c 0
 118 669 128 685 152 691 c 1
 102 697 60 710 60 732 c 0
 60 744 66 751 81 757 c 2
 90 761 l 1
 105 759 121 757 136 755 c 1
 125 750 l 2
 112 744 106 738 106 732 c 0
 106 718 148 707 194 707 c 0
 196 707 198 707 198 708 c 0
 198 709 194 710 188 712 c 0
 169 718 159 723 159 730 c 0
 159 746 202 760 245 760 c 0
 280 760 329 749 329 733 c 0
 329 717 287 697 285 697 c 0
 281 697 280 695 280 694 c 0
 280 693 281 691 281 690 c 0
 281 689 282 689 281 689 c 0
115 579 m 1
 99 578 87 575 87 569 c 0
 87 561 112 555 137 555 c 0
 139 555 141 555 143 555 c 0
 159 556 171 559 171 565 c 0
 171 573 149 579 123 579 c 2
 115 579 l 1
253 716 m 0
 270 716 285 722 285 729 c 0
 285 734 262 741 248 741 c 0
 230 741 219 734 219 728 c 0
 219 722 235 716 253 716 c 0
EndSplineSet
Validated: 1
LCarets2: 2 0 0
Ligature2: "'cjct' Conjunct Forms in Bengali2 lookup 13" u0999 u09cd u0996
EndChar

StartChar: u0999_u09cd_u0997.cjct
Encoding: 65635 -1 115
GlifName: u0999_u09cd_u0997.cjct
Width: 987
VWidth: 1024
GlyphClass: 3
Flags: HMW
AnchorPoint: "Anchor-1" 800 28 basechar 0
AnchorPoint: "Anchor-0" 665 824 basechar 0
LayerCount: 2
Fore
SplineSet
292 723 m 0
 313 723 332 733 332 744 c 0
 332 752 304 763 286 763 c 0
 264 763 250 753 250 743 c 0
 250 733 269 723 292 723 c 0
120 504 m 1
 100 503 85 497 85 488 c 0
 85 475 116 465 147 465 c 2
 155 465 l 1
 175 466 190 473 190 482 c 0
 190 495 162 504 130 504 c 2
 120 504 l 1
657 819 m 1
 876 819 l 2
 880 819 896 839 899 845 c 0
 904 855 909 873 909 885 c 0
 909 908 890 944 871 960 c 2
 854 974 l 1
 874 998 l 2
 885 1011 898 1022 902 1022 c 0
 945 1022 987 930 987 883 c 0
 987 844 972 808 942 780 c 0
 902 741 893 741 741 740 c 1
 741 462 l 2
 741 374 739 308 739 259 c 0
 739 144 748 120 804 120 c 0
 827 120 864 139 880 158 c 2
 894 175 l 1
 918 155 l 2
 931 144 942 131 942 127 c 0
 942 84 849 42 802 42 c 0
 763 42 727 57 699 87 c 0
 666 121 661 146 659 330 c 1
 346 330 l 2
 302 330 255 314 255 294 c 0
 255 218 619 257 619 158 c 0
 619 106 506 74 398 74 c 0
 275 74 182 115 125 155 c 1
 190 178 l 1
 235 146 304 112 398 112 c 0
 460 112 528 129 528 158 c 0
 528 186 460 202 404 204 c 0
 295 209 164 240 164 294 c 0
 164 337 256 369 346 370 c 2
 659 370 l 1
 659 395 658 422 658 452 c 2
 658 529 l 1
 586 463 432 411 268 411 c 0
 153 411 0 440 0 490 c 0
 0 519 64 539 134 539 c 0
 218 539 283 509 283 477 c 0
 283 465 272 455 251 446 c 1
 260 446 268 445 277 445 c 0
 448 445 614 538 614 610 c 0
 614 627 599 642 561 642 c 0
 519 642 491 630 466 618 c 0
 414 593 351 571 260 571 c 0
 173 571 124 599 124 633 c 0
 124 647 136 674 166 683 c 1
 103 692 51 712 51 748 c 0
 51 768 58 778 77 788 c 2
 89 795 l 1
 108 792 127 788 146 785 c 1
 133 778 l 2
 117 769 109 759 109 749 c 0
 109 726 162 708 219 708 c 0
 222 708 224 709 224 710 c 0
 224 711 219 713 211 716 c 0
 187 725 175 735 175 746 c 0
 175 772 229 793 283 793 c 0
 327 793 388 775 388 750 c 0
 388 725 334 692 332 692 c 0
 327 692 326 690 326 688 c 0
 326 686 328 683 328 681 c 0
 328 680 328 680 327 680 c 0
 297 680 214 660 214 637 c 2
 214 631 l 1
 215 617 234 607 268 607 c 0
 319 607 359 623 388 637 c 0
 434 659 487 678 569 678 c 0
 607 678 636 673 657 663 c 1
 657 819 l 1
EndSplineSet
LCarets2: 2 0 0
Ligature2: "'cjct' Conjunct Forms in Bengali2 lookup 13" u0999 u09cd u0997
EndChar

StartChar: u099a_u09cd_u099b.cjct
Encoding: 65636 -1 116
GlifName: u099a_u09cd_u099b.cjct
Width: 1400
GlyphClass: 3
Flags: HMW
LayerCount: 2
Fore
SplineSet
571 290 m 1
 581 284 591 279 600 279 c 0
 637 279 641 305 641 359 c 2
 641 367 l 1
 638 361 l 1
 621 332 598 308 571 290 c 1
516 808 m 1
 517 808 l 2
 664 808 918 800 918 800 c 1
 989 800 1048 799 1098 799 c 0
 1260 799 1320 807 1320 871 c 0
 1320 894 1301 930 1282 946 c 2
 1265 960 l 1
 1286 984 l 2
 1297 997 1310 1008 1314 1008 c 0
 1357 1008 1398 917 1398 870 c 0
 1398 797 1351 730 1265 730 c 2
 704 730 l 1
 704 610 l 1
 732 627 l 1
 752 644 810 678 861 678 c 0
 989 678 1089 577 1089 466 c 2
 1089 457 l 1
 1114 462 1143 467 1165 467 c 0
 1261 467 1367 418 1367 329 c 0
 1367 235 1272 249 1223 200 c 0
 1210 187 1205 177 1205 168 c 0
 1205 107 1293 76 1361 76 c 1
 1361 -14 l 1
 1248 -14 1127 53 1127 160 c 0
 1127 224 1167 233 1211 259 c 0
 1235 274 1269 298 1269 329 c 0
 1269 367 1209 381 1165 381 c 0
 1141 381 1104 369 1083 369 c 0
 1077 367 1079 367 1063 357 c 1
 1063 358 l 1
 1022 289 945 249 869 249 c 0
 821 249 772 265 733 300 c 0
 723 309 715 314 712 314 c 1
 712 314 674 243 657 233 c 0
 639 222 632 221 602 221 c 0
 569 221 523 239 505 260 c 1
 485 254 465 252 444 252 c 0
 396 252 347 268 308 303 c 0
 298 312 290 317 287 317 c 1
 287 317 249 246 232 236 c 0
 214 225 207 224 177 224 c 0
 135 224 72 254 72 281 c 0
 72 283 104 313 109 313 c 0
 122 313 154 282 175 282 c 0
 212 282 216 308 216 362 c 2
 216 416 l 2
 216 504 211 624 211 733 c 1
 80 733 l 1
 58 733 l 2
 39 733 20 733 0 734 c 1
 0 734 30 748 49 767 c 0
 56 773 63 788 69 799 c 1
 69 811 l 1
 92 816 l 1
 239 816 493 808 493 808 c 1
 516 808 l 1
638 564 m 1
 637 618 636 676 636 730 c 1
 505 730 l 1
 483 730 l 2
 464 730 445 730 425 731 c 1
 429 733 l 1
 279 733 l 1
 279 613 l 1
 307 630 l 1
 327 647 385 681 436 681 c 0
 525 681 600 631 638 564 c 1
282 465 m 1
 285 371 364 323 436 323 c 0
 509 323 588 375 588 469 c 0
 588 562 512 615 434 615 c 0
 349 615 282 554 282 472 c 2
 282 465 l 1
712 465 m 1
 715 371 794 323 866 323 c 0
 939 323 1018 375 1018 469 c 0
 1018 562 942 615 864 615 c 0
 779 615 712 554 712 472 c 2
 712 465 l 1
EndSplineSet
Validated: 1
LCarets2: 2 0 0
Ligature2: "'cjct' Conjunct Forms in Bengali2 lookup 13" u099a u09cd u099b
EndChar

StartChar: u099a_u09cd_u099e.cjct
Encoding: 65637 -1 117
GlifName: u099a_u09cd_u099e.cjct
Width: 931
GlyphClass: 3
Flags: HMW
LayerCount: 2
Fore
SplineSet
140 144 m 0
 140 129 163 118 192 118 c 0
 219 118 244 130 244 144 c 0
 244 158 221 170 192 170 c 0
 161 170 140 160 140 144 c 0
856 300 m 0
 856 322 820 343 775 343 c 0
 758 343 745 340 728 336 c 1
 728 245 l 1
 789 248 856 270 856 300 c 0
782 115 m 0
 822 115 856 132 856 152 c 0
 856 182 790 204 729 207 c 1
 729 138 l 1
 712 130 l 1
 741 120 764 115 782 115 c 0
310 537 m 1
 313 470 429 436 531 436 c 0
 636 436 748 472 748 540 c 0
 748 606 638 645 527 645 c 0
 407 645 310 601 310 543 c 2
 310 537 l 1
150 374 m 0
 91 374 0 395 0 415 c 0
 0 417 47 438 54 438 c 0
 72 438 117 415 146 415 c 0
 200 415 207 422 207 460 c 2
 207 735 l 1
 -60 735 l 1
 -60 763 2 791 2 819 c 1
 25 819 l 2
 172 819 498 811 498 811 c 1
 638 811 l 2
 797 811 853 817 853 882 c 0
 853 905 834 941 815 957 c 2
 798 971 l 1
 819 995 l 2
 830 1008 843 1019 847 1019 c 0
 890 1019 931 928 931 881 c 0
 931 809 882 737 798 737 c 2
 304 737 l 1
 304 640 l 1
 336 653 l 2
 364 665 446 689 519 689 c 0
 707 689 844 618 844 536 c 0
 844 458 746 408 630 390 c 1
 649 386 666 380 682 372 c 1
 682 370 l 1
 713 370 741 383 775 383 c 0
 862 383 930 344 930 300 c 0
 930 262 878 236 820 226 c 1
 878 216 930 189 930 152 c 0
 930 110 865 71 782 71 c 0
 754 71 704 92 674 100 c 1
 674 100 672 107 672 113 c 1
 650 104 l 1
 590 56 461 13 322 13 c 0
 183 13 62 68 62 137 c 0
 62 175 118 208 192 208 c 0
 264 208 322 179 322 143 c 0
 322 107 264 78 192 78 c 1
 221 66 269 59 322 59 c 0
 475 59 592 121 650 179 c 1
 650 312 l 2
 650 335 617 357 572 357 c 0
 536 357 507 343 507 325 c 0
 507 318 510 310 520 309 c 1
 524 320 546 328 572 328 c 0
 603 328 624 315 624 299 c 0
 624 280 585 266 546 266 c 0
 483 266 429 294 429 325 c 0
 429 350 455 371 494 384 c 1
 438 388 382 399 336 419 c 0
 322 425 310 430 306 430 c 0
 305 430 305 429 305 429 c 1
 281 393 254 374 150 374 c 0
EndSplineSet
Validated: 1
LCarets2: 2 0 0
Ligature2: "'cjct' Conjunct Forms in Bengali2 lookup 13" u099a u09cd u099e
EndChar

StartChar: u099c_u09cd_u099c.cjct
Encoding: 65638 -1 118
GlifName: u099c_u09cd_u099c.cjct
Width: 1837
VWidth: 1024
GlyphClass: 3
Flags: HMW
LayerCount: 2
Fore
SplineSet
162 177 m 0
 163 146 190 121 222 121 c 0
 225 121 229 121 232 122 c 0
 252 125 267 138 267 161 c 0
 267 192 240 217 207 217 c 0
 204 217 200 217 197 216 c 0
 178 213 162 199 162 177 c 0
343 6 m 0
 230 6 76 76 76 198 c 0
 76 271 139 321 209 321 c 0
 210 321 212 321 213 321 c 0
 293 321 360 245 360 171 c 0
 360 143 350 115 328 92 c 1
 337 91 345 90 354 90 c 0
 525 90 691 320 691 497 c 0
 691 538 676 576 639 576 c 0
 598 576 567 545 543 517 c 0
 491 456 428 401 337 401 c 0
 250 401 201 469 201 555 c 0
 201 633 250 698 293 741 c 1
 -11 741 l 2
 -30 741 -49 741 -69 742 c 1
 -69 742 -39 756 -20 775 c 0
 -15 780 -10 789 -5 798 c 1
 -5 821 l 1
 802 821 l 2
 876 821 933 820 976 820 c 0
 994 820 1023 820 1060 820 c 0
 1276 820 1747 824 1747 874 c 0
 1747 897 1728 934 1709 950 c 2
 1692 964 l 1
 1712 988 l 2
 1723 1001 1736 1012 1740 1012 c 0
 1783 1012 1825 919 1825 872 c 0
 1825 833 1810 797 1780 769 c 0
 1755 745 1507 741 1250 741 c 0
 1106 741 959 742 848 742 c 0
 835 742 823 742 811 742 c 1
 433 742 l 1
 375 716 291 635 291 552 c 0
 291 515 308 490 344 490 c 0
 395 490 435 527 464 562 c 0
 509 616 566 665 645 665 c 0
 669 665 691 657 707 647 c 1
 743 647 l 1
 778 653 806 661 830 661 c 0
 831 661 833 661 834 661 c 0
 867 660 875 660 875 659 c 0
 875 658 864 657 864 652 c 0
 864 643 898 622 1083 575 c 1
 1025 549 928 526 928 443 c 0
 928 406 945 381 981 381 c 0
 1032 381 1072 418 1101 453 c 0
 1146 507 1203 556 1282 556 c 0
 1306 556 1328 548 1344 538 c 1
 1380 538 l 1
 1417 544 1446 552 1471 552 c 0
 1675 552 1820 422 1820 261 c 0
 1820 135 1736 24 1605 24 c 0
 1512 24 1436 86 1436 172 c 0
 1436 260 1514 323 1586 323 c 0
 1633 323 1671 289 1671 250 c 0
 1671 213 1643 186 1612 186 c 0
 1571 186 1573 220 1550 242 c 1
 1535 242 1509 206 1509 181 c 0
 1509 123 1552 92 1607 92 c 0
 1695 92 1738 181 1738 264 c 0
 1738 359 1682 417 1612 450 c 2
 1572 469 l 1
 1399 469 l 1
 1410 444 1414 415 1414 379 c 0
 1414 138 1207 -103 980 -103 c 0
 867 -103 713 -33 713 89 c 0
 713 162 776 212 846 212 c 0
 847 212 849 212 850 212 c 0
 930 212 997 136 997 62 c 0
 997 34 987 6 965 -17 c 1
 974 -18 982 -19 991 -19 c 0
 1162 -19 1328 211 1328 388 c 0
 1328 430 1313 467 1275 467 c 0
 1270 467 1265 466 1260 465 c 0
 1227 458 1201 432 1180 408 c 0
 1128 347 1065 292 974 292 c 0
 906 292 835 357 835 416 c 0
 835 432 841 448 853 462 c 0
 892 507 907 534 907 552 c 0
 907 598 807 574 770 593 c 1
 769 588 769 583 769 578 c 0
 769 553 780 537 780 512 c 0
 780 505 779 497 777 488 c 0
 718 254 570 6 343 6 c 0
799 68 m 0
 800 37 827 12 859 12 c 0
 862 12 866 12 869 13 c 0
 889 16 904 29 904 52 c 0
 904 83 877 108 844 108 c 0
 841 108 837 108 834 107 c 0
 815 104 799 90 799 68 c 0
EndSplineSet
Validated: 1
LCarets2: 2 0 0
Ligature2: "'cjct' Conjunct Forms in Bengali2 lookup 13" u099c u09cd u099c
EndChar

StartChar: u099c_u09cd_u099d.cjct
Encoding: 65639 -1 119
GlifName: u099c_u09cd_u099d.cjct
Width: 1665
GlyphClass: 3
Flags: HMW
LayerCount: 2
Fore
SplineSet
1097 742 m 1
 1061 742 l 1
 1018 738 945 738 813 738 c 2
 435 738 l 1
 377 730 293 663 293 651 c 0
 293 633 310 620 346 620 c 0
 397 620 437 638 466 656 c 0
 511 683 568 707 647 707 c 0
 671 707 693 703 709 698 c 1
 745 698 l 1
 782 701 811 705 836 705 c 0
 944 705 1035 687 1097 658 c 1
 1097 742 l 1
164 467 m 0
 164 451 193 439 224 439 c 0
 227 439 231 440 234 440 c 0
 254 442 269 447 269 459 c 0
 269 475 241 487 209 487 c 2
 199 487 l 1
 180 485 164 478 164 467 c 0
873 142 m 0
 975 142 1091 176 1094 242 c 1
 1094 248 l 2
 1094 306 997 350 877 350 c 0
 766 350 656 312 656 246 c 0
 656 178 768 142 873 142 c 0
1563 350 m 0
 1563 404 1488 722 1383 722 c 1
 1383 741 l 1
 1183 741 l 1
 1183 605 1183 469 1183 333 c 1
 1210 288 1320 202 1419 202 c 0
 1525 202 1563 295 1563 350 c 0
1256 113 m 0
 1285 113 1331 136 1349 136 c 0
 1356 136 1403 114 1403 112 c 0
 1403 94 1311 72 1253 72 c 0
 1149 72 1122 102 1098 138 c 1
 1098 138 1098 139 1097 139 c 0
 1093 139 1080 134 1066 128 c 0
 1010 104 941 92 872 92 c 0
 720 92 558 147 558 245 c 0
 558 335 679 374 847 396 c 0
 859 398 871 398 884 398 c 0
 957 398 1039 374 1067 362 c 2
 1097 349 l 1
 1097 462 l 1
 1063 449 1020 441 970 441 c 0
 877 441 801 472 801 515 c 0
 801 559 879 591 951 591 c 0
 998 591 1036 574 1036 554 c 0
 1036 536 1008 522 977 522 c 0
 937 522 938 539 916 550 c 1
 915 550 l 2
 900 550 874 532 874 520 c 0
 874 491 917 475 972 475 c 0
 1041 475 1082 502 1097 534 c 1
 1097 587 l 1
 1081 620 1033 641 977 654 c 2
 937 664 l 1
 764 664 l 1
 775 652 779 637 779 619 c 0
 779 499 572 378 345 378 c 0
 232 378 78 413 78 474 c 0
 78 510 141 535 211 535 c 0
 295 535 362 499 362 459 c 0
 362 445 351 431 330 421 c 1
 339 421 347 420 356 420 c 0
 527 420 693 535 693 623 c 0
 693 643 678 663 641 663 c 0
 600 663 569 647 545 633 c 0
 493 603 430 575 339 575 c 0
 252 575 203 609 203 652 c 0
 203 663 252 716 295 728 c 1
 201 728 107 728 13 728 c 1
 13 737 l 1
 -9 737 l 2
 -28 737 -47 737 -67 738 c 1
 -67 738 -37 752 -18 771 c 0
 -13 776 -8 785 -3 794 c 1
 -3 817 l 1
 527 817 l 1
 530 817 l 1
 531 817 l 1
 949 817 l 2
 1034 817 1159 819 1270 819 c 0
 1438 819 1580 822 1580 884 c 0
 1580 907 1561 944 1542 960 c 2
 1525 974 l 1
 1545 997 l 2
 1555 1008 1566 1009 1572 1009 c 0
 1626 1009 1658 934 1658 882 c 0
 1658 828 1603 776 1525 756 c 1
 1601 705 1654 403 1654 350 c 0
 1654 272 1573 163 1419 163 c 0
 1329 163 1211 233 1182 268 c 1
 1182 232 1181 205 1181 184 c 0
 1181 118 1189 113 1256 113 c 0
EndSplineSet
Validated: 1
LCarets2: 2 0 0
Ligature2: "'cjct' Conjunct Forms in Bengali2 lookup 13" u099c u09cd u099d
EndChar

StartChar: u099e_u09cd_u099a.cjct
Encoding: 65640 -1 120
GlifName: u099e_u09cd_u099a.cjct
Width: 1275
GlyphClass: 3
Flags: HMW
LayerCount: 2
Fore
SplineSet
78 510 m 0
 78 495 101 484 130 484 c 0
 157 484 182 496 182 510 c 0
 182 524 159 536 130 536 c 0
 99 536 78 526 78 510 c 0
794 666 m 0
 794 688 758 709 713 709 c 0
 702 709 693 708 683 706 c 1
 683 612 l 1
 739 618 794 639 794 666 c 0
720 481 m 0
 760 481 794 498 794 518 c 0
 794 545 739 566 683 572 c 1
 683 486 l 1
 697 483 709 481 720 481 c 0
689 167 m 1
 692 100 808 66 910 66 c 0
 1015 66 1127 102 1127 170 c 0
 1127 236 1017 275 906 275 c 0
 786 275 689 231 689 173 c 2
 689 167 l 1
529 4 m 0
 470 4 379 25 379 45 c 0
 379 47 426 68 433 68 c 0
 451 68 496 45 525 45 c 0
 579 45 586 52 586 90 c 2
 586 468 l 1
 525 421 397 379 260 379 c 0
 121 379 0 434 0 503 c 0
 0 541 56 574 130 574 c 0
 202 574 260 545 260 509 c 0
 260 473 202 444 130 444 c 1
 159 432 207 425 260 425 c 0
 411 425 527 486 586 543 c 1
 586 688 l 1
 578 707 549 723 510 723 c 0
 474 723 445 709 445 691 c 0
 445 684 448 676 458 675 c 1
 462 686 484 694 510 694 c 0
 541 694 562 681 562 665 c 0
 562 646 523 632 484 632 c 0
 421 632 367 660 367 691 c 0
 367 730 432 762 510 762 c 0
 536 762 560 759 582 753 c 1
 598 775 637 797 637 819 c 1
 660 819 l 2
 807 819 877 811 877 811 c 1
 1017 811 l 2
 1176 811 1186 817 1186 882 c 0
 1186 905 1167 941 1148 957 c 2
 1131 971 l 1
 1152 995 l 2
 1163 1008 1176 1019 1180 1019 c 0
 1223 1019 1264 928 1264 881 c 0
 1264 809 1215 737 1131 737 c 2
 793 737 l 1
 838 722 868 695 868 666 c 0
 868 628 816 602 758 592 c 1
 816 582 868 555 868 518 c 0
 868 476 803 437 720 437 c 0
 710 437 697 440 683 444 c 1
 683 270 l 1
 715 283 l 2
 743 295 825 319 898 319 c 0
 1086 319 1223 248 1223 166 c 0
 1223 67 1063 13 910 13 c 0
 841 13 771 25 715 49 c 0
 701 55 689 60 685 60 c 0
 684 60 684 59 684 59 c 1
 660 23 633 4 529 4 c 0
EndSplineSet
Validated: 1
LCarets2: 2 0 0
Ligature2: "'cjct' Conjunct Forms in Bengali2 lookup 13" u099e u09cd u099a
EndChar

StartChar: u099e_u09cd_u099b.cjct
Encoding: 65641 -1 121
GlifName: u099e_u09cd_u099b.cjct
Width: 1316
GlyphClass: 3
Flags: HMW
LayerCount: 2
Fore
SplineSet
78 479 m 0
 78 464 101 453 130 453 c 0
 157 453 182 465 182 479 c 0
 182 493 159 505 130 505 c 0
 99 505 78 495 78 479 c 0
620 705 m 1
 651 705 679 718 713 718 c 0
 800 718 868 679 868 635 c 0
 868 597 816 571 758 561 c 1
 816 551 868 524 868 487 c 0
 868 445 803 406 720 406 c 0
 702 406 674 415 648 424 c 1
 648 332 l 1
 676 340 l 1
 696 348 754 366 805 366 c 0
 863 366 915 355 955 339 c 0
 964 335 972 332 979 328 c 0
 1013 309 1033 285 1033 260 c 2
 1033 256 l 1
 1058 258 1087 260 1109 260 c 0
 1205 260 1311 236 1311 192 c 0
 1311 145 1216 151 1167 127 c 0
 1154 121 1149 115 1149 111 c 0
 1149 81 1237 65 1305 65 c 1
 1305 20 l 1
 1192 20 1071 53 1071 107 c 0
 1071 139 1111 143 1155 156 c 0
 1179 164 1213 176 1213 192 c 0
 1213 211 1153 218 1109 218 c 0
 1085 218 1048 212 1027 212 c 0
 1021 211 1023 211 1007 206 c 1
 966 172 889 152 813 152 c 0
 765 152 716 159 677 177 c 0
 667 181 659 184 656 184 c 1
 656 184 618 149 601 144 c 0
 583 138 576 138 546 138 c 0
 504 138 441 152 441 166 c 0
 441 167 473 182 478 182 c 0
 491 182 523 166 544 166 c 0
 581 166 585 179 585 206 c 2
 585 234 l 2
 585 261 583 346 582 434 c 1
 520 388 394 348 260 348 c 0
 121 348 0 403 0 472 c 0
 0 510 56 543 130 543 c 0
 202 543 260 514 260 478 c 0
 260 442 202 413 130 413 c 1
 159 401 207 394 260 394 c 0
 413 394 530 456 588 514 c 1
 588 647 l 2
 588 670 555 692 510 692 c 0
 474 692 445 678 445 660 c 0
 445 653 448 645 458 644 c 1
 462 655 484 663 510 663 c 0
 541 663 562 650 562 634 c 0
 562 615 523 601 484 601 c 0
 421 601 367 629 367 660 c 0
 367 699 432 731 510 731 c 0
 553 731 590 723 620 707 c 1
 620 705 l 1
794 635 m 0
 794 657 758 678 713 678 c 0
 696 678 683 675 666 671 c 1
 666 580 l 1
 727 583 794 605 794 635 c 0
720 450 m 0
 760 450 794 467 794 487 c 0
 794 517 728 539 667 542 c 1
 667 473 l 1
 650 465 l 1
 679 455 702 450 720 450 c 0
656 260 m 1
 659 213 738 188 810 188 c 0
 883 188 962 215 962 262 c 0
 962 308 886 334 808 334 c 0
 723 334 656 304 656 263 c 2
 656 260 l 1
EndSplineSet
Validated: 1
LCarets2: 2 0 0
Ligature2: "'cjct' Conjunct Forms in Bengali2 lookup 13" u099e u09cd u099b
EndChar

StartChar: u099e_u09cd_u099c.cjct
Encoding: 65642 -1 122
GlifName: u099e_u09cd_u099c.cjct
Width: 1073
VWidth: 1024
GlyphClass: 3
Flags: HMW
LayerCount: 2
Fore
SplineSet
782 506 m 0
 822 506 856 523 856 543 c 0
 856 573 790 595 729 598 c 1
 729 529 l 1
 712 521 l 1
 741 511 764 506 782 506 c 0
856 691 m 0
 856 713 820 734 775 734 c 0
 758 734 745 731 728 727 c 1
 728 636 l 1
 789 639 856 661 856 691 c 0
351 405 m 0
 351 403 351 401 351 399 c 0
 351 373 374 351 401 351 c 0
 442 351 474 369 497 387 c 0
 533 414 579 438 642 438 c 0
 661 438 679 434 692 429 c 1
 720 429 l 1
 750 432 773 436 793 436 c 0
 956 436 1072 371 1072 291 c 0
 1072 228 1005 172 900 172 c 0
 826 172 765 203 765 246 c 0
 765 290 827 322 885 322 c 0
 923 322 953 305 953 285 c 0
 953 267 931 253 906 253 c 0
 874 253 875 270 857 281 c 1
 856 281 l 2
 844 281 824 263 824 251 c 0
 824 222 858 206 902 206 c 0
 972 206 1007 250 1007 292 c 0
 1007 340 962 369 906 385 c 1
 874 395 l 1
 736 395 l 1
 745 383 748 368 748 350 c 0
 748 230 582 109 400 109 c 0
 310 109 187 144 187 205 c 0
 187 241 237 266 293 266 c 0
 360 266 414 230 414 190 c 0
 414 176 405 162 388 152 c 1
 395 152 402 151 409 151 c 0
 546 151 679 266 679 354 c 0
 679 374 667 394 637 394 c 0
 604 394 579 378 560 364 c 0
 518 334 469 306 396 306 c 0
 326 306 287 340 287 383 c 1
 280 416 l 1
 141 416 62 459 62 528 c 0
 62 566 118 599 192 599 c 0
 264 599 322 570 322 534 c 0
 322 498 264 469 192 469 c 1
 221 457 269 450 322 450 c 0
 475 450 592 512 650 570 c 1
 650 703 l 2
 650 726 617 748 572 748 c 0
 536 748 507 734 507 716 c 0
 507 709 510 701 520 700 c 1
 524 711 546 719 572 719 c 0
 603 719 624 706 624 690 c 0
 624 671 585 657 546 657 c 0
 483 657 429 685 429 716 c 0
 429 755 494 787 572 787 c 0
 615 787 652 779 682 763 c 1
 682 761 l 1
 713 761 741 774 775 774 c 0
 862 774 930 735 930 691 c 0
 930 653 878 627 820 617 c 1
 878 607 930 580 930 543 c 0
 930 501 865 462 782 462 c 0
 754 462 704 483 674 491 c 1
 674 491 672 498 672 504 c 1
 650 495 l 1
 590 447 352 412 351 405 c 0
140 535 m 0
 140 520 163 509 192 509 c 0
 219 509 244 521 244 535 c 0
 244 549 221 561 192 561 c 0
 161 561 140 551 140 535 c 0
284 214 m 1
 269 212 256 205 256 194 c 0
 256 178 279 166 304 166 c 0
 306 166 310 167 312 167 c 0
 328 169 340 174 340 186 c 0
 340 202 318 214 292 214 c 2
 284 214 l 1
EndSplineSet
Validated: 1
LCarets2: 2 0 0
Ligature2: "'cjct' Conjunct Forms in Bengali2 lookup 13" u099e u09cd u099c
EndChar

StartChar: u099e_u09cd_u099d.pres
Encoding: 65643 -1 123
GlifName: u099e_u09cd_u099d.pres
Width: 1040
VWidth: 1024
GlyphClass: 3
Flags: HMW
LayerCount: 2
Fore
SplineSet
415 126 m 0
 497 126 589 161 591 227 c 1
 591 233 l 2
 591 291 514 335 418 335 c 0
 329 335 241 296 241 230 c 0
 241 162 331 126 415 126 c 0
967 334 m 0
 967 388 907 412 823 412 c 2
 663 412 l 1
 663 318 l 1
 685 273 772 187 851 187 c 0
 936 187 967 279 967 334 c 0
80 539 m 0
 80 524 103 513 132 513 c 0
 159 513 184 525 184 539 c 0
 184 553 161 565 132 565 c 0
 101 565 80 555 80 539 c 0
622 765 m 1
 653 765 681 778 715 778 c 0
 802 778 870 739 870 695 c 0
 870 657 818 631 760 621 c 1
 818 611 870 584 870 547 c 0
 870 511 824 478 759 469 c 1
 810 448 860 435 895 433 c 0
 921 432 937 430 937 428 c 0
 937 428 937 427 936 427 c 1
 997 409 1039 352 1039 334 c 0
 1039 256 974 148 851 148 c 0
 779 148 685 218 662 253 c 1
 662 217 661 190 661 169 c 0
 661 103 667 98 721 98 c 0
 744 98 781 120 795 120 c 0
 801 120 839 99 839 97 c 0
 839 79 765 56 719 56 c 0
 636 56 614 87 595 123 c 1
 595 123 595 124 594 124 c 0
 591 124 580 119 569 113 c 0
 524 89 469 77 414 77 c 0
 292 77 163 132 163 230 c 0
 163 320 261 353 394 381 c 0
 404 383 413 383 423 383 c 0
 481 383 548 359 570 347 c 2
 583 334 l 1
 583 460 l 2
 583 464 583 468 583 471 c 0
 583 479 583 487 584 494 c 1
 522 448 396 408 262 408 c 0
 123 408 2 463 2 532 c 0
 2 570 58 603 132 603 c 0
 204 603 262 574 262 538 c 0
 262 502 204 473 132 473 c 1
 161 461 209 454 262 454 c 0
 415 454 532 516 590 574 c 1
 590 707 l 2
 590 730 557 752 512 752 c 0
 476 752 447 738 447 720 c 0
 447 713 450 705 460 704 c 1
 464 715 486 723 512 723 c 0
 543 723 564 710 564 694 c 0
 564 675 525 661 486 661 c 0
 423 661 369 689 369 720 c 0
 369 759 434 791 512 791 c 0
 555 791 592 783 622 767 c 1
 622 765 l 1
796 695 m 0
 796 717 760 738 715 738 c 0
 698 738 685 735 668 731 c 1
 668 640 l 1
 729 643 796 665 796 695 c 0
722 510 m 0
 762 510 796 527 796 547 c 0
 796 577 730 599 669 602 c 1
 669 533 l 1
 652 525 l 1
 681 515 704 510 722 510 c 0
EndSplineSet
LCarets2: 2 0 0
Ligature2: "'cjct' Conjunct Forms in Bengali2 lookup 13" u099e u09cd u099d
EndChar

StartChar: u099f_u09cd_u099f.cjct
Encoding: 65644 -1 124
GlifName: u099f_u09cd_u099f.cjct
Width: 897
GlyphClass: 3
Flags: HMW
LayerCount: 2
Fore
SplineSet
548 686 m 2
 675 686 l 2
 714 686 848 601 848 537 c 0
 848 439 686 384 534 384 c 0
 465 384 366 441 310 441 c 0
 306 441 304 410 304 368 c 0
 304 359 304 351 304 341 c 1
 331 338 355 316 388 306 c 0
 428 294 449 282 490 273 c 0
 531 264 556 262 598 258 c 0
 623 256 641 252 661 252 c 0
 670 252 680 253 691 255 c 0
 731 263 755 272 787 297 c 0
 806 311 793 339 814 351 c 0
 816 352 817 353 819 353 c 0
 829 353 837 338 841 327 c 0
 852 298 852 279 853 249 c 0
 854 239 856 230 856 222 c 0
 856 214 854 207 847 201 c 0
 823 178 800 179 769 168 c 0
 735 156 715 150 679 144 c 0
 646 139 623 133 595 133 c 0
 586 133 576 134 565 135 c 0
 506 143 475 162 418 180 c 0
 391 189 376 194 349 204 c 0
 335 209 321 211 307 213 c 1
 308 173 309 141 309 129 c 0
 309 88 242 58 153 58 c 0
 94 58 3 80 3 98 c 0
 3 100 50 121 57 121 c 0
 75 121 121 99 150 99 c 0
 203 99 209 106 209 144 c 2
 209 733 l 1
 -12 733 l 1
 -12 741 l 1
 -31 741 -50 741 -69 742 c 1
 -69 742 -39 756 -20 775 c 0
 -17 777 -15 782 -12 786 c 1
 -12 820 l 1
 -12 820 233 815 367 812 c 1
 367 818 495 901 528 915 c 0
 559 928 591 975 591 1018 c 0
 591 1021 591 1023 589 1023 c 0
 586 1023 581 1018 573 1009 c 0
 551 985 527 974 499 974 c 0
 436 974 384 1027 384 1082 c 0
 384 1137 440 1191 510 1191 c 0
 589 1191 660 1127 660 1025 c 0
 660 939 621 892 563 862 c 0
 555 858 516 822 511 810 c 1
 567 810 l 1
 815 829 784 816 801 849 c 0
 806 858 810 872 810 881 c 0
 810 904 791 941 772 957 c 2
 755 971 l 1
 775 995 l 2
 786 1008 799 1019 803 1019 c 0
 846 1019 888 927 888 880 c 0
 888 809 839 754 755 754 c 2
 307 754 l 1
 307 538 l 1
 310 474 434 436 534 436 c 0
 668 436 775 494 775 572 c 0
 775 616 683 649 674 652 c 1
 656 652 l 2
 649 652 649 654 642 654 c 0
 616 654 576 649 576 649 c 2
 495 643 431 635 431 587 c 0
 431 575 446 550 452 550 c 0
 455 550 459 554 462 562 c 0
 475 590 513 612 583 612 c 0
 649 612 716 592 716 554 c 0
 716 510 634 476 551 476 c 0
 445 476 355 521 349 574 c 0
 349 576 348 580 348 582 c 0
 348 636 439 686 548 686 c 2
620 546 m 0
 620 559 603 565 580 565 c 0
 547 565 512 554 512 534 c 0
 512 522 529 513 557 513 c 0
 597 513 620 525 620 546 c 0
543 1073 m 0
 543 1094 516 1113 491 1113 c 0
 472 1113 444 1085 444 1067 c 0
 444 1045 469 1031 494 1031 c 0
 519 1031 543 1050 543 1073 c 0
EndSplineSet
Validated: 1
LCarets2: 2 0 0
Ligature2: "'cjct' Conjunct Forms in Bengali2 lookup 13" u099f u09cd u099f
EndChar

StartChar: u09a1_u09cd_u09a1.cjct
Encoding: 65645 -1 125
GlifName: u09a1_u09cd_u09a1.cjct
Width: 728
VWidth: 1024
GlyphClass: 3
Flags: HMW
LayerCount: 2
Fore
SplineSet
678 236 m 0
 659 233 643 222 643 203 c 0
 643 176 672 155 703 155 c 2
 713 155 l 1
 733 158 748 169 748 189 c 0
 748 216 720 237 688 237 c 0
 685 237 681 236 678 236 c 0
1197 1026 m 0
 1240 1026 1282 933 1282 886 c 0
 1282 847 1267 811 1237 783 c 0
 1198 745 1200 761 932 743 c 0
 857 738 771 595 771 517 c 0
 771 485 789 465 825 465 c 0
 876 465 916 497 945 527 c 0
 991 574 1046 614 1127 614 c 0
 1217 614 1256 546 1257 467 c 1
 1257 463 l 2
 1257 256 1051 50 824 50 c 0
 709 50 557 110 557 216 c 0
 557 278 621 320 690 320 c 0
 775 320 841 256 841 187 c 0
 841 162 830 142 809 124 c 1
 818 123 826 122 835 122 c 0
 1006 122 1171 319 1171 471 c 0
 1171 505 1156 539 1120 539 c 0
 1079 539 1048 512 1024 488 c 0
 972 435 909 389 817 389 c 0
 730 389 681 447 681 520 c 0
 681 529 682 539 684 550 c 1
 628 468 456 399 270 399 c 0
 155 399 3 429 3 482 c 0
 3 513 67 534 136 534 c 0
 221 534 287 502 287 468 c 0
 287 456 276 445 255 436 c 1
 264 436 272 435 281 435 c 0
 452 435 617 534 617 610 c 0
 617 627 602 644 566 644 c 0
 525 644 494 630 470 618 c 0
 418 592 355 568 263 568 c 0
 176 568 127 598 127 634 c 0
 127 645 179 724 221 738 c 1
 1 738 l 1
 1 741 l 1
 -3 741 -7 741 -11 741 c 0
 -30 741 -49 741 -69 742 c 1
 -69 742 -39 756 -20 775 c 0
 -13 782 -6 798 1 809 c 1
 1 818 l 1
 7 818 l 1
 8 819 l 1
 8 818 l 1
 341 818 l 2
 415 818 472 817 515 817 c 2
 555 817 l 1
 555 822 l 1
 561 822 l 1
 562 823 l 1
 562 822 l 1
 895 822 l 2
 969 822 1026 821 1069 821 c 0
 1196 821 1204 829 1204 888 c 0
 1204 911 1185 948 1166 964 c 2
 1149 978 l 1
 1169 1002 l 2
 1180 1015 1193 1026 1197 1026 c 0
124 492 m 1
 105 490 89 486 89 476 c 0
 89 462 118 452 149 452 c 2
 159 452 l 1
 179 454 194 458 194 468 c 0
 194 482 166 492 134 492 c 2
 124 492 l 1
694 741 m 1
 684 740 666 740 643 740 c 0
 605 740 553 740 494 740 c 0
 457 740 418 740 378 739 c 0
 303 737 217 645 217 632 c 0
 217 616 235 606 271 606 c 0
 322 606 362 623 391 638 c 0
 437 662 492 681 573 681 c 0
 657 681 696 652 702 616 c 1
 721 666 750 716 775 742 c 1
 695 742 l 1
 694 741 l 1
EndSplineSet
Validated: 1
LCarets2: 2 0 0
Ligature2: "'cjct' Conjunct Forms in Bengali2 lookup 13" u09a1 u09cd u09a1
EndChar

StartChar: u09a3_u09cd_u099f.cjct
Encoding: 65646 -1 126
GlifName: u09a3_u09cd_u099f.cjct
Width: 1118
GlyphClass: 3
Flags: HMW
LayerCount: 2
Fore
SplineSet
774 1055 m 0
 774 1076 747 1095 722 1095 c 0
 703 1095 675 1067 675 1049 c 0
 675 1027 700 1013 725 1013 c 0
 750 1013 774 1032 774 1055 c 0
851 381 m 0
 851 407 834 419 811 419 c 0
 778 419 743 396 743 357 c 0
 743 332 760 315 788 315 c 0
 828 315 851 339 851 381 c 0
779 662 m 2
 906 662 l 2
 945 662 1079 491 1079 363 c 0
 1079 167 917 56 765 56 c 0
 696 56 627 79 571 128 c 0
 557 141 544 150 540 150 c 1
 540 149 l 1
 516 78 488 16 384 16 c 0
 325 16 234 60 234 97 c 0
 234 101 281 143 288 143 c 0
 306 143 352 99 381 99 c 0
 434 99 440 112 440 188 c 2
 440 715 l 1
 452 715 l 1
 452 723 l 1
 452 723 498 723 498 724 c 0
 498 724 497 724 494 724 c 1
 494 724 493 724 490 725 c 1
 248 725 l 1
 208 709 l 1
 138 676 81 619 81 524 c 0
 81 441 125 351 213 351 c 0
 267 351 311 381 311 438 c 0
 311 463 286 501 270 501 c 0
 269 501 269 500 269 500 c 2
 247 478 249 445 208 445 c 0
 176 445 148 471 148 509 c 0
 148 548 187 582 234 582 c 0
 305 582 383 518 383 431 c 0
 383 345 306 283 214 283 c 0
 83 283 -1 395 -1 520 c 0
 -1 670 123 796 313 801 c 0
 333 802 460 803 493 803 c 1
 493 798 l 1
 515 797 548 795 598 794 c 1
 598 800 726 883 759 897 c 0
 790 910 822 957 822 1000 c 0
 822 1003 822 1005 820 1005 c 0
 817 1005 812 1000 804 991 c 0
 782 967 758 956 730 956 c 0
 667 956 615 1009 615 1064 c 0
 615 1119 671 1173 741 1173 c 0
 820 1173 891 1109 891 1007 c 0
 891 921 852 874 794 844 c 0
 786 840 747 804 742 792 c 1
 798 792 l 1
 1046 811 1015 798 1032 831 c 0
 1037 840 1041 854 1041 863 c 0
 1041 886 1022 923 1003 939 c 2
 986 953 l 1
 1006 977 l 2
 1017 990 1030 1001 1034 1001 c 0
 1077 1001 1119 909 1119 862 c 0
 1119 791 1070 718 986 718 c 2
 538 718 l 1
 538 364 l 1
 541 235 665 162 765 162 c 0
 899 162 1006 277 1006 434 c 0
 1006 522 914 587 905 593 c 1
 887 593 l 1
 880 594 880 596 873 596 c 0
 847 596 807 587 807 587 c 2
 726 575 662 559 662 463 c 0
 662 440 677 390 683 390 c 0
 686 390 690 398 693 414 c 0
 706 470 744 514 814 514 c 0
 880 514 947 471 947 396 c 0
 947 307 865 240 782 240 c 0
 676 240 586 332 580 438 c 0
 580 442 579 447 579 452 c 0
 579 559 670 662 779 662 c 2
EndSplineSet
Validated: 1
LCarets2: 2 0 0
Ligature2: "'cjct' Conjunct Forms in Bengali2 lookup 13" u09a3 u09cd u099f
EndChar

StartChar: u09a3_u09cd_u09a0.cjct
Encoding: 65647 -1 127
GlifName: u09a3_u09cd_u09a0.cjct
Width: 846
VWidth: 1024
GlyphClass: 3
Flags: HMW
LayerCount: 2
Fore
SplineSet
587 42 m 0
 466 42 397 194 397 325 c 0
 397 422 442 547 530 547 c 2
 606 547 l 2
 686 547 675 652 700 689 c 1
 694 689 686 706 668 729 c 0
 659 741 565 744 475 744 c 0
 408 744 430 742 405 741 c 1
 406 741 406 744 406 744 c 1
 393 744 381 744 368 744 c 0
 362 744 355 744 348 744 c 1
 348 744 349 745 350 745 c 1
 272 745 l 1
 232 735 l 1
 162 715 105 681 105 624 c 0
 105 574 149 520 237 520 c 0
 291 520 335 539 335 573 c 0
 335 588 310 610 294 610 c 2
 293 610 l 1
 271 597 273 577 232 577 c 0
 200 577 172 592 172 615 c 0
 172 638 211 659 258 659 c 0
 329 659 407 620 407 568 c 0
 407 516 330 480 238 480 c 0
 107 480 23 547 23 622 c 0
 23 712 147 787 337 790 c 0
 351 790 371 821 395 821 c 1
 395 819 l 1
 491 819 l 1
 464 861 423 901 423 964 c 2
 423 978 l 2
 423 1066 491 1142 578 1142 c 0
 626 1142 668 1107 668 1060 c 0
 668 1015 632 978 587 978 c 0
 542 978 505 1015 505 1060 c 1
 489 1040 480 1014 480 978 c 0
 480 936 494 897 524 858 c 0
 539 838 568 837 602 819 c 1
 747 819 l 2
 769 819 787 879 787 909 c 0
 787 910 787 911 787 912 c 0
 786 930 788 925 768 956 c 1
 806 1023 l 1
 838 975 843 987 843 912 c 0
 843 849 798 741 752 741 c 1
 793 699 814 575 814 466 c 0
 814 290 742 42 587 42 c 0
728 562 m 1
 710 496 669 421 596 421 c 2
 520 421 l 2
 478 421 454 366 454 320 c 0
 454 247 506 178 577 178 c 0
 685 178 738 340 738 461 c 0
 738 497 733 529 728 562 c 1
587 1092 m 0
 568 1092 555 1078 555 1059 c 0
 555 1041 569 1027 587 1027 c 0
 606 1027 620 1040 620 1059 c 0
 620 1078 606 1092 587 1092 c 0
EndSplineSet
Validated: 1
LCarets2: 2 0 0
Ligature2: "'cjct' Conjunct Forms in Bengali2 lookup 13" u09a3 u09cd u09a0
EndChar

StartChar: u09a3_u09cd_u09a1.cjct
Encoding: 65648 -1 128
GlifName: u09a3_u09cd_u09a1.cjct
Width: 1003
VWidth: 1024
GlyphClass: 3
Flags: HMW
LayerCount: 2
Fore
SplineSet
399 232 m 0
 380 229 364 218 364 199 c 0
 364 172 393 151 424 151 c 2
 434 151 l 1
 454 154 469 165 469 185 c 0
 469 212 441 233 409 233 c 0
 406 233 402 232 399 232 c 0
918 1022 m 0
 961 1022 1003 929 1003 882 c 0
 1003 843 988 807 958 779 c 0
 919 741 921 757 653 739 c 0
 578 734 492 591 492 513 c 0
 492 481 510 461 546 461 c 0
 597 461 637 493 666 523 c 0
 712 570 767 610 848 610 c 0
 938 610 977 542 978 463 c 1
 978 459 l 2
 978 252 772 46 545 46 c 0
 430 46 278 106 278 212 c 0
 278 274 342 316 411 316 c 0
 496 316 562 252 562 183 c 0
 562 158 551 138 530 120 c 1
 539 119 547 118 556 118 c 0
 727 118 892 315 892 467 c 0
 892 501 877 535 841 535 c 0
 800 535 769 508 745 484 c 0
 693 431 630 385 538 385 c 0
 451 385 402 443 402 516 c 0
 402 584 454 694 496 738 c 1
 276 738 l 1
 276 750 l 1
 272 750 268 750 264 750 c 2
 244 750 l 1
 209 741 l 1
 139 721 82 687 82 630 c 0
 82 580 126 526 214 526 c 0
 268 526 312 545 312 579 c 0
 312 594 287 616 271 616 c 2
 270 616 l 1
 248 603 250 583 209 583 c 0
 177 583 149 598 149 621 c 0
 149 644 188 665 235 665 c 0
 306 665 384 626 384 574 c 0
 384 522 307 486 215 486 c 0
 84 486 0 553 0 628 c 0
 0 712 108 783 276 795 c 1
 276 796 l 1
 282 796 l 1
 283 796 l 1
 294 796 l 1
 314 796 l 1
 334 797 362 821 395 821 c 1
 395 818 l 1
 616 818 l 2
 690 818 747 817 790 817 c 0
 917 817 925 825 925 884 c 0
 925 907 906 944 887 960 c 2
 870 974 l 1
 890 998 l 2
 901 1011 914 1022 918 1022 c 0
EndSplineSet
LCarets2: 2 0 0
Ligature2: "'cjct' Conjunct Forms in Bengali2 lookup 13" u09a3 u09cd u09a1
EndChar

StartChar: u09a4_u09cd_u09a5.cjct
Encoding: 65649 -1 129
GlifName: u09a4_u09cd_u09a5.cjct
Width: 951
VWidth: 1049
GlyphClass: 3
Flags: HMW
LayerCount: 2
Fore
SplineSet
267 635 m 0
 267 649 251 670 222 670 c 0
 198 670 175 654 175 636 c 0
 175 618 200 604 224 604 c 0
 250 604 267 621 267 635 c 0
584 663 m 0
 553 663 510 654 510 636 c 0
 510 622 555 610 580 588 c 2
 593 576 l 1
 550 576 506 578 463 578 c 1
 446 586 l 1
 423 598 404 621 403 636 c 0
 403 680 481 716 575 716 c 0
 713 716 776 650 776 578 c 0
 776 505 707 446 595 413 c 1
 634 405 669 398 677 396 c 0
 702 388 710 370 710 350 c 0
 710 270 605 234 448 214 c 0
 384 206 298 195 298 166 c 0
 298 140 383 110 474 110 c 0
 601 110 712 136 768 194 c 1
 794 355 l 1
 794 735 l 1
 741 737 674 740 592 740 c 2
 5 740 l 1
 5 741 l 1
 -5 741 l 2
 -24 741 -43 741 -63 742 c 1
 -63 742 -33 756 -14 775 c 0
 -8 781 -1 794 5 805 c 1
 5 818 l 1
 13 818 l 1
 14 819 l 1
 14 818 l 1
 582 818 l 1
 794 818 l 1
 794 819 l 1
 889 819 l 2
 993 819 1002 822 1002 823 c 2
 1025 846 l 1
 1025 846 1035 874 1035 885 c 0
 1035 909 1017 945 997 961 c 2
 980 975 l 1
 1001 999 l 2
 1012 1012 1025 1022 1029 1022 c 0
 1073 1022 1114 931 1114 884 c 0
 1114 845 1069 781 1069 781 c 1
 1069 778 1061 769 1060 765 c 0
 1058 759 1046 744 1043 742 c 0
 1042 741 1042 741 988 741 c 2
 935 741 l 1
 923 737 908 735 889 734 c 1
 889 485 l 2
 889 188 890 184 931 163 c 0
 942 157 959 152 969 152 c 0
 994 152 1041 175 1061 197 c 1
 1078 214 l 1
 1104 189 l 2
 1118 175 1130 158 1130 152 c 0
 1130 116 1030 58 966 58 c 0
 891 58 800 115 800 170 c 0
 800 180 799 186 795 186 c 0
 790 186 781 121 767 118 c 1
 719 84 613 54 494 54 c 0
 345 54 188 90 188 163 c 0
 188 254 462 261 565 304 c 1
 565 304 607 326 607 342 c 0
 607 345 605 349 602 351 c 0
 571 375 518 384 472 390 c 1
 451 388 429 387 406 386 c 0
 398 386 390 385 382 385 c 0
 344 385 309 388 276 392 c 1
 257 382 245 366 245 352 c 0
 245 351 242 346 242 344 c 1
 243 344 l 2
 246 344 255 352 263 356 c 0
 285 368 309 374 337 374 c 0
 400 374 452 348 452 320 c 0
 452 292 395 265 326 265 c 0
 233 265 179 301 179 360 c 2
 179 366 l 2
 179 380 190 394 208 405 c 1
 90 435 18 497 18 574 c 0
 18 650 69 717 187 717 c 0
 261 717 324 682 324 636 c 0
 322 590 269 556 184 556 c 0
 161 556 138 562 122 562 c 0
 119 562 118 561 118 557 c 0
 118 494 210 449 312 435 c 0
 322 436 332 436 343 436 c 0
 377 436 437 435 460 435 c 0
 597 451 679 503 679 578 c 0
 679 622 637 663 584 663 c 0
287 328 m 0
 287 317 314 308 339 308 c 0
 358 308 386 321 386 330 c 0
 386 341 361 348 336 348 c 0
 311 348 287 340 287 328 c 0
EndSplineSet
Validated: 1
LCarets2: 2 0 0
Ligature2: "'cjct' Conjunct Forms in Bengali2 lookup 13" u09a4 u09cd u09a5
EndChar

StartChar: u09a4_u09cd_u09a8.cjct
Encoding: 65650 -1 130
GlifName: u09a4_u09cd_u09a8.cjct
Width: 790
GlyphClass: 3
Flags: HMW
LayerCount: 2
Fore
SplineSet
208 635 m 0
 208 649 192 670 163 670 c 0
 139 670 116 654 116 636 c 0
 116 618 141 604 165 604 c 0
 191 604 208 621 208 635 c 0
566 663 m 0
 535 663 492 654 492 636 c 0
 492 622 537 610 562 588 c 2
 575 576 l 1
 532 576 488 578 445 578 c 1
 428 586 l 1
 405 598 386 621 385 636 c 0
 385 680 463 716 557 716 c 0
 695 716 758 650 758 578 c 0
 758 496 671 431 534 402 c 1
 551 402 564 401 566 400 c 0
 612 383 653 302 653 250 c 0
 653 179 604 99 457 99 c 0
 271 99 313 230 205 266 c 0
 192 270 181 273 171 273 c 0
 122 273 101 241 101 215 c 0
 101 171 132 130 183 104 c 2
 209 91 l 1
 173 78 l 2
 153 70 135 65 132 65 c 0
 75 65 3 174 3 212 c 0
 3 268 58 322 170 322 c 0
 255 322 334 281 367 214 c 0
 382 185 400 148 453 148 c 0
 500 148 548 185 553 226 c 0
 553 230 554 233 554 237 c 0
 554 285 519 353 456 390 c 1
 434 388 411 387 388 386 c 0
 380 386 372 385 364 385 c 0
 145 385 0 464 0 574 c 0
 0 650 51 717 169 717 c 0
 243 717 306 682 306 636 c 0
 304 590 251 556 166 556 c 0
 143 556 120 562 104 562 c 0
 101 562 100 561 100 557 c 0
 100 481 235 430 360 430 c 2
 379 430 l 1
 554 436 661 492 661 578 c 0
 661 622 619 663 566 663 c 0
790 819 m 1
 791 811 792 804 792 797 c 0
 792 744 760 733 683 733 c 0
 623 733 535 740 413 740 c 2
 -1 740 l 1
 -1 741 l 1
 -11 741 l 2
 -30 741 -49 741 -69 742 c 1
 -69 742 -39 756 -20 775 c 0
 -14 781 -7 794 -1 805 c 1
 -1 818 l 1
 7 818 l 1
 8 819 l 1
 8 818 l 1
 403 818 l 2
 480 818 790 819 790 819 c 1
EndSplineSet
Validated: 1
LCarets2: 2 0 0
Ligature2: "'cjct' Conjunct Forms in Bengali2 lookup 13" u09a4 u09cd u09a8
EndChar

StartChar: u09a4_u09cd_u09ae.cjct
Encoding: 65651 -1 131
GlifName: u09a4_u09cd_u09ae.cjct
Width: 664
VWidth: 1024
GlyphClass: 3
Flags: HMW
LayerCount: 2
Fore
SplineSet
277 635 m 0
 277 649 261 670 232 670 c 0
 208 670 185 654 185 636 c 0
 185 618 210 604 234 604 c 0
 260 604 277 621 277 635 c 0
635 663 m 0
 604 663 561 654 561 636 c 0
 561 622 606 610 631 588 c 2
 644 576 l 1
 601 576 557 578 514 578 c 1
 497 586 l 1
 474 598 455 621 454 636 c 0
 454 680 532 716 626 716 c 0
 765 716 827 650 827 576 c 0
 827 520 786 473 715 439 c 1
 710 426 706 407 706 384 c 1
 747 401 781 426 810 455 c 1
 810 456 l 2
 810 467 878 544 894 570 c 0
 896 574 898 577 897 578 c 0
 904 592 907 603 907 611 c 0
 907 622 904 630 896 638 c 0
 894 640 817 704 781 734 c 1
 772 734 763 733 753 733 c 0
 693 733 605 740 482 740 c 2
 68 740 l 1
 68 741 l 1
 58 741 l 2
 39 741 20 741 0 742 c 1
 0 742 30 756 49 775 c 0
 55 781 62 794 68 805 c 1
 68 818 l 1
 76 818 l 1
 77 819 l 1
 77 818 l 1
 472 818 l 2
 527 818 698 819 793 819 c 0
 869 822 873 829 885 851 c 0
 890 860 893 875 893 884 c 0
 893 907 874 944 855 960 c 2
 838 974 l 1
 858 997 l 2
 869 1010 882 1022 886 1022 c 0
 890 1022 907 1009 924 992 c 0
 948 968 957 954 964 928 c 0
 968 912 971 897 971 882 c 0
 971 843 955 808 926 779 c 0
 910 763 900 755 874 749 c 1
 895 734 931 695 942 684 c 0
 962 664 972 640 972 611 c 0
 972 540 931 486 888 449 c 1
 921 379 946 302 946 208 c 0
 946 111 883 39 816 0 c 1
 764 65 l 1
 790 80 811 98 828 117 c 0
 832 122 836 126 840 131 c 0
 859 156 868 182 868 208 c 0
 868 284 860 354 836 403 c 1
 797 371 757 339 712 319 c 1
 712 231 693 156 655 94 c 0
 617 32 571 0 517 0 c 0
 445 0 387 58 387 130 c 0
 387 171 410 213 455 255 c 0
 500 297 560 331 634 358 c 1
 634 364 634 370 634 374 c 0
 634 388 634 392 633 392 c 0
 632 392 630 384 626 384 c 0
 623 384 618 388 612 403 c 0
 612 404 611 404 611 405 c 1
 565 395 514 388 457 386 c 0
 449 386 441 385 433 385 c 0
 214 385 69 464 69 574 c 0
 69 650 120 717 238 717 c 0
 312 717 375 682 375 636 c 0
 373 590 320 556 235 556 c 0
 212 556 189 562 173 562 c 0
 170 562 169 561 169 557 c 0
 169 481 304 430 429 430 c 2
 448 430 l 1
 623 436 730 492 730 578 c 0
 730 622 688 663 635 663 c 0
478 130 m 0
 478 105 493 78 517 78 c 0
 545 78 570 98 592 138 c 0
 614 178 629 227 634 286 c 1
 587 269 550 246 521 218 c 0
 492 190 478 160 478 130 c 0
EndSplineSet
Validated: 1
LCarets2: 2 0 0
Ligature2: "'cjct' Conjunct Forms in Bengali2 lookup 13" u09a4 u09cd u09ae
EndChar

StartChar: u09a6_u09cd_u09a6.cjct
Encoding: 65652 -1 132
GlifName: u09a6_u09cd_u09a6.cjct
Width: 702
VWidth: 1024
GlyphClass: 3
Flags: HMW
LayerCount: 2
Fore
SplineSet
322 240 m 1
 229 240 120 290 120 376 c 0
 120 469 216 496 264 544 c 0
 277 557 284 569 284 578 c 0
 284 634 207 636 141 636 c 2
 132 636 l 1
 132 739 l 1
 0 739 l 1
 0 741 l 1
 -11 741 l 2
 -30 741 -49 741 -69 742 c 1
 -69 742 -39 756 -20 775 c 0
 -13 781 -6 796 0 807 c 1
 0 817 l 1
 6 817 l 1
 7 818 7 819 8 819 c 1
 8 817 l 1
 558 817 l 2
 594 817 623 846 623 882 c 0
 623 920 596 952 571 973 c 1
 616 1025 l 1
 656 991 701 944 701 882 c 0
 701 804 636 739 558 739 c 2
 207 739 l 1
 203 718 l 1
 282 698 362 667 362 584 c 0
 362 522 321 473 278 448 c 0
 254 433 218 408 218 376 c 0
 218 341 281 324 322 324 c 0
 325 322 328 320 331 318 c 1
 365 326 l 1
 384 321 402 315 420 309 c 0
 477 288 524 255 524 192 c 0
 524 130 484 81 441 56 c 0
 417 41 381 16 381 -16 c 0
 381 -51 444 -68 485 -68 c 0
 549 -68 609 -43 655 -16 c 1
 701 -80 l 1
 649 -123 577 -152 485 -152 c 0
 392 -152 283 -102 283 -16 c 0
 283 77 379 104 427 152 c 0
 440 165 447 177 447 186 c 0
 447 206 437 219 422 228 c 1
 393 230 360 233 322 240 c 1
EndSplineSet
LCarets2: 2 0 0
Ligature2: "'cjct' Conjunct Forms in Bengali2 lookup 13" u09a6 u09cd u09a6
EndChar

StartChar: u09a6_u09cd_u09a7.cjct
Encoding: 65653 -1 133
GlifName: u09a6_u09cd_u09a7.cjct
Width: 1042
VWidth: 1024
GlyphClass: 3
Flags: HMW
LayerCount: 2
Fore
SplineSet
763 400 m 1
 622 395 457 398 457 260 c 0
 457 189 518 151 593 151 c 0
 668 151 722 207 763 257 c 1
 763 400 l 1
0 819 m 1
 205 819 l 1
 205 739 l 1
 205 718 l 1
 284 698 362 667 362 584 c 0
 362 522 321 473 278 448 c 0
 254 433 250 383 250 351 c 0
 250 333 324 319 376 310 c 1
 390 374 428 426 476 448 c 1
 416 475 371 549 371 635 c 0
 371 734 431 838 526 838 c 0
 607 838 667 764 667 682 c 0
 667 617 619 557 556 557 c 1
 556 635 l 1
 578 635 593 659 593 682 c 0
 593 710 562 728 532 728 c 0
 488 728 457 681 457 635 c 0
 457 497 622 500 763 495 c 1
 763 817 l 1
 805 819 957 823 957 884 c 0
 957 907 938 944 919 960 c 2
 902 974 l 1
 922 997 l 2
 933 1010 946 1022 950 1022 c 0
 996 1022 1036 924 1036 875 c 0
 1036 857 1015 775 1015 775 c 2
 1012 775 1009 751 990 751 c 0
 980 751 854 749 830 741 c 1
 830 229 l 2
 831 190 862 151 899 151 c 0
 938 151 967 185 986 214 c 1
 1035 151 l 1
 1005 106 961 58 899 58 c 0
 847 58 805 96 782 142 c 1
 739 99 675 58 600 58 c 0
 477 58 383 124 372 238 c 1
 367.760742188 235.578125 363.888671875 234.255859375 359.939453125 234.255859375 c 0
 357.366210938 234.255859375 354.760742188 234.81640625 352 236 c 0
 298 258 120 323 120 376 c 0
 120 469 216 496 264 544 c 0
 277 557 284 569 284 578 c 0
 284 634 207 636 141 636 c 2
 132 636 l 1
 132 739 l 1
 0 739 l 1
 0 741 l 1
 -11 741 l 2
 -30 741 -49 741 -69 742 c 1
 -69 742 -39 756 -20 775 c 0
 -13 781 -6 796 0 807 c 1
 0 819 l 1
EndSplineSet
LCarets2: 2 0 0
Ligature2: "'cjct' Conjunct Forms in Bengali2 lookup 13" u09a6 u09cd u09a7
EndChar

StartChar: u09a6_u09cd_u09ae.cjct
Encoding: 65654 -1 134
GlifName: u09a6_u09cd_u09ae.cjct
Width: 825
VWidth: 1024
GlyphClass: 3
Flags: HMW
LayerCount: 2
Fore
SplineSet
293 242 m 1
 208 251 120 299 120 376 c 0
 120 469 216 496 264 544 c 0
 277 557 284 569 284 578 c 0
 284 634 207 636 141 636 c 2
 132 636 l 1
 132 739 l 1
 0 739 l 1
 0 741 l 1
 -11 741 l 2
 -30 741 -49 741 -69 742 c 1
 -69 742 -39 756 -20 775 c 0
 -13 781 -6 796 0 807 c 1
 0 817 l 1
 6 817 l 1
 7 818 7 819 8 819 c 1
 8 817 l 1
 614 817 l 1
 614 818 l 1
 720 820 724 827 737 851 c 0
 742 860 745 875 745 884 c 0
 745 907 726 944 707 960 c 2
 690 974 l 1
 710 997 l 2
 717 1005 724 1012 730 1017 c 1
 736 1025 l 1
 740 1021 l 1
 746 1018 761 1007 776 992 c 0
 799 969 808 955 815 932 c 0
 822 916 826 900 826 882 c 0
 826 820 785 766 729 747 c 1
 750 731 783 695 794 684 c 0
 814 664 824 640 824 611 c 0
 824 540 783 486 740 449 c 1
 773 379 798 302 798 208 c 0
 798 111 735 39 668 0 c 1
 616 65 l 1
 648 84 673 106 692 131 c 0
 711 156 720 182 720 208 c 0
 720 284 712 354 688 403 c 1
 649 371 609 339 564 319 c 1
 564 231 545 156 507 94 c 0
 469 32 423 0 369 0 c 0
 297 0 239 58 239 130 c 0
 239 167 257 205 293 242 c 1
330 100 m 0
 330 75 345 48 369 48 c 0
 397 48 422 68 444 108 c 0
 466 148 481 197 486 256 c 1
 439 239 402 216 373 188 c 0
 344 160 330 130 330 100 c 0
530 381 m 1
 530 379.815587035 530.801619469 379.34690574 532.133587409 379.34690574 c 0
 537.187362096 379.34690574 549.876075043 386.094078497 555.382405685 386.094078497 c 0
 557.001825172 386.094078497 558 385.510477562 558 384 c 1
 599 401 633 426 662 455 c 1
 662 456 l 2
 662 467 730 544 746 570 c 0
 748 574 750 577 749 578 c 0
 756 592 759 603 759 611 c 0
 759 622 756 630 748 638 c 0
 746 640 659 712 626 739 c 1
 207 739 l 1
 203 718 l 1
 282 698 362 667 362 584 c 0
 362 522 321 473 278 448 c 0
 254 433 218 408 218 376 c 0
 218 341 281 324 322 324 c 0
 386 324 446 349 492 376 c 1
 494 373 l 1
 504 377 530 372 530 381 c 1
EndSplineSet
LCarets2: 2 0 0
Ligature2: "'cjct' Conjunct Forms in Bengali2 lookup 13" u09a6 u09cd u09ae
EndChar

StartChar: u0998_u09cd_u09a8.cjct
Encoding: 65655 -1 135
GlifName: u0998_u09cd_u09a8.cjct
Width: 1058
VWidth: 1024
GlyphClass: 3
Flags: HMW
LayerCount: 2
Fore
SplineSet
933 313 m 1
 971 285 1003 217 1003 172 c 0
 1003 101 954 21 807 21 c 0
 621 21 663 152 555 188 c 0
 542 192 531 195 521 195 c 0
 472 195 451 163 451 137 c 0
 451 93 482 52 533 26 c 2
 559 13 l 1
 523 -0 l 2
 503 -8 485 -13 482 -13 c 0
 425 -13 353 96 353 134 c 0
 353 190 408 244 520 244 c 0
 605 244 684 203 717 136 c 0
 732 107 750 70 803 70 c 0
 850 70 898 107 903 148 c 0
 903 152 904 155 904 159 c 0
 904 216 854 301 767 330 c 1
 768 330 772 329 777 329 c 1
 739 345 714 368 714 394 c 2
 714 424 l 1
 669 364 552 309 394 309 c 0
 245 309 105 341 105 409 c 0
 105 454 167 488 238 500 c 1
 167 512 105 548 105 593 c 0
 105 596 155 702 183 729 c 1
 101 729 l 1
 91 729 l 2
 84 729 77 729 70 729 c 0
 54 729 38 730 22 730 c 1
 22 730 52 744 71 763 c 0
 78 769 85 784 91 795 c 1
 91 805 l 1
 93 805 95 805 97 805 c 0
 98 806 98 807 99 807 c 1
 99 805 l 1
 385 805 950 805 968 839 c 0
 973 848 976 863 976 872 c 0
 976 895 957 932 938 948 c 2
 921 962 l 1
 941 985 l 2
 952 998 965 1010 969 1010 c 0
 1012 1010 1054 917 1054 870 c 0
 1054 831 1038 796 1009 767 c 0
 1003 761 981 752 981 752 c 1
 981 752 921 738 921 735 c 0
 921 729 904 730 806 729 c 1
 806 394 l 2
 806 373 842 355 885 355 c 0
 933 355 968 371 994 386 c 1
 1057 355 l 1
 1027 337 985 320 933 313 c 1
574 503 m 1
 461 503 214 467 214 409 c 0
 214 371 301 355 386 355 c 0
 590 355 714 474 721 577 c 1
 721 728 l 1
 297 728 l 1
 267 702 214 596 214 593 c 0
 214 548 274 536 393 536 c 0
 459 536 531 538 556 538 c 1
 574 503 l 1
EndSplineSet
Validated: 1
LCarets2: 2 0 0
Ligature2: "'cjct' Conjunct Forms in Bengali2 lookup 13" u0998 u09cd u09a8
EndChar

StartChar: u09a6_u09cd_u09ad.cjct
Encoding: 65656 -1 136
GlifName: u09a6_u09cd_u09ad.cjct
Width: 666
VWidth: 1024
GlyphClass: 3
Flags: HMW
LayerCount: 2
Fore
SplineSet
443 73 m 0
 391 57 332 50 274 50 c 0
 172 50 33 82 33 138 c 0
 33 170 89 192 152 192 c 0
 229 192 288 159 288 123 c 0
 288 110 279 99 260 89 c 1
 267 89 275 88 282 88 c 0
 434 88 585 191 585 271 c 0
 585 289 573 307 538 307 c 0
 502 307 475 292 453 280 c 0
 407 252 350 229 268 229 c 0
 190 229 145 259 145 298 c 0
 145 337 202 375 266 387 c 1
 191 398 122 431 122 479 c 0
 122 544 218 562 266 596 c 0
 279 605 286 614 286 620 c 0
 286 659 209 661 143 661 c 2
 134 661 l 1
 134 739 l 1
 2 739 l 1
 2 741 l 1
 -9 741 l 2
 -28 741 -47 741 -67 742 c 1
 -67 742 -38 758 -18 775 c 0
 -11 781 -4 796 2 807 c 1
 2 817 l 1
 8 817 l 2
 9 817 9 819 10 819 c 1
 10 817 l 1
 523 817 l 2
 559 817 588 846 588 882 c 0
 588 920 561 952 536 973 c 1
 581 1025 l 1
 621 991 666 944 666 882 c 0
 666 804 601 739 523 739 c 2
 209 739 l 1
 204 696 l 1
 283 688 364 647 364 624 c 0
 364 581 323 548 280 529 c 0
 256 519 220 501 220 479 c 0
 220 455 283 442 324 442 c 0
 388 442 448 460 494 479 c 1
 540 434 l 1
 513.586914062 418.680664062 481.87109375 405.872070312 445 396.90234375 c 0
 417.787808355 390.282311246 387.768526293 385.752920701 355.000044712 383.847871057 c 0
 348.121008371 383.44794695 341.12081494 383.16367742 334 383 c 1
 371 373 405 358 405 341 c 0
 405 316 358 292 300 292 c 0
 275 292 253 298 234 308 c 1
 235 308 233 309 230 311 c 1
 227 305 226 300 226 294 c 0
 227 278 243 269 274 269 c 0
 320 269 355 285 382 301 c 0
 422 325 475 347 546 347 c 0
 628 347 663 310 663 267 c 0
 663 213 615 158 542 117 c 1
 515 104 l 2
 514 102 444 75 443 73 c 0
146 162 m 0
 130 160 114 155 114 145 c 0
 114 130 140 119 170 119 c 2
 177 119 l 2
 194 121 209 127 209 137 c 0
 209 151 182 163 155 163 c 0
 152 163 149 162 146 162 c 0
345 344 m 0
 345 354 322 362 298 362 c 0
 281 362 257 349 257 341 c 0
 257 331 279 325 301 325 c 0
 323 325 345 334 345 344 c 0
EndSplineSet
LCarets2: 2 0 0
Ligature2: "'cjct' Conjunct Forms in Bengali2 lookup 13" u09a6 u09cd u09ad
EndChar

StartChar: u0995_u09cd_u09ac.cjct
Encoding: 65657 -1 137
GlifName: u0995_u09cd_u09ac.cjct
Width: 1096
GlyphClass: 3
Flags: HMW
LayerCount: 2
Fore
SplineSet
352 432 m 0
 444 432 547 464 550 524 c 1
 550 530 l 2
 550 582 463 620 355 620 c 0
 262 620 160 589 160 533 c 2
 160 526 l 2
 160 466 259 432 352 432 c 0
656 425 m 1
 656 424 l 2
 656 417 654 380 652 380 c 1
 652 102 l 2
 652 80 672 64 710 64 c 0
 739 64 785 86 803 86 c 0
 810 86 857 66 857 64 c 0
 857 46 765 22 707 22 c 0
 603 22 576 54 552 90 c 1
 551 90 l 2
 547 90 534 85 520 79 c 0
 464 55 395 43 326 43 c 0
 174 43 12 98 12 196 c 0
 12 286 133 325 301 347 c 0
 313 349 325 350 338 350 c 0
 411 350 493 325 521 313 c 2
 550 300 l 1
 550 432 l 1
 546 431 542 429 538 427 c 0
 488 405 425 395 363 395 c 0
 227 395 79 445 79 533 c 0
 79 607 205 670 373 670 c 0
 439 670 513 648 538 637 c 2
 564 625 l 1
 564 740 l 1
 12 740 l 1
 -10 740 l 2
 -29 740 -48 740 -68 741 c 1
 -68 741 -38 755 -19 774 c 0
 -12 780 -5 795 1 806 c 1
 1 824 l 1
 946 824 l 2
 979 824 1006 826 1006 864 c 0
 1006 870 1003 875 1003 875 c 1
 1003 889 l 1
 996 890 l 1
 996 892 993 897 980 910 c 2
 966 924 l 1
 984 945 l 2
 994 957 1005 967 1009 967 c 0
 1048 967 1085 884 1085 841 c 0
 1085 757 1057 748 949 740 c 1
 949 740 835 741 749 741 c 0
 706 741 670 741 659 740 c 1
 659 740 656 700 655 682 c 1
 901 682 1060 653 1060 555 c 0
 1060 499 983 448 866 448 c 0
 782 448 714 477 714 515 c 0
 714 555 784 583 848 583 c 0
 891 583 925 567 925 549 c 0
 925 532 900 521 872 521 c 0
 834 521 837 536 817 546 c 1
 801 546 779 530 779 518 c 0
 779 492 818 479 866 479 c 0
 946 479 985 519 985 557 c 0
 985 599 934 625 872 640 c 2
 836 649 l 1
 652 649 l 1
 652 554 l 2
 652 511 651 482 651 463 c 2
 651 446 l 2
 651 438 656 425 656 425 c 1
320 93 m 0
 422 93 538 128 541 194 c 1
 541 200 l 2
 541 219 530 237 512 252 c 0
 475 282 404 302 324 302 c 0
 213 302 103 263 103 197 c 0
 103 129 215 93 320 93 c 0
EndSplineSet
Validated: 1
LCarets2: 2 0 0
Ligature2: "'cjct' Conjunct Forms in Bengali2 lookup 13" u0995 u09cd u09f1
Ligature2: "'cjct' Conjunct Forms in Bengali2 lookup 13" u0995 u09cd u09ac
EndChar

StartChar: u0997_u09cd_u09ac.cjct
Encoding: 65658 -1 138
GlifName: u0997_u09cd_u09ac.cjct
Width: 867
VWidth: 1024
GlyphClass: 3
Flags: HMW
LayerCount: 2
Fore
SplineSet
539 282 m 1
 534 334 534 388 534 472 c 2
 534 525 l 1
 534 739 l 1
 221 739 l 2
 177 739 130 715 130 674 c 0
 130 523 494 672 494 474 c 0
 494 371 381 305 273 305 c 0
 150 305 57 387 0 468 c 1
 65 513 l 1
 110 450 179 383 273 383 c 0
 335 383 403 416 403 474 c 0
 403 529 335 560 279 565 c 0
 170 575 39 567 39 674 c 0
 39 760 131 819 221 819 c 2
 752 819 l 1
 752 823 772 839 775 845 c 0
 782 857 785 870 785 882 c 0
 785 912 768 940 747 960 c 1
 730 974 l 1
 750 998 l 2
 761 1011 774 1022 778 1022 c 0
 821 1022 863 930 863 883 c 0
 863 844 848 808 818 780 c 0
 778 741 769 741 617 740 c 1
 617 535 l 2
 617 446 615 384 615 331 c 0
 615 329 615 327 615 325 c 2
 615 20 l 1
 615 20 660 -12 698 -12 c 0
 727 -12 773 10 791 10 c 0
 798 10 845 -10 845 -12 c 0
 845 -30 753 -54 695 -54 c 0
 591 -54 564 -22 540 14 c 1
 534 14 523 9 508 3 c 0
 452 -21 383 -33 314 -33 c 0
 162 -33 0 22 0 120 c 0
 0 210 121 249 289 271 c 0
 301 273 315 274 328 274 c 0
 399 274 482 249 509 237 c 2
 539 224 l 1
 539 282 l 1
313 14 m 0
 417 16 534 47 534 121 c 0
 534 179 437 223 317 223 c 0
 206 223 96 184 96 118 c 0
 96 50 208 14 313 14 c 0
EndSplineSet
Validated: 1
LCarets2: 2 0 0
Ligature2: "'cjct' Conjunct Forms in Bengali2 lookup 13" u0997 u09cd u09f1
Ligature2: "'cjct' Conjunct Forms in Bengali2 lookup 13" u0997 u09cd u09ac
EndChar

StartChar: u099b_u09cd_u09ac.cjct
Encoding: 65659 -1 139
GlifName: u099b_u09cd_u09ac.cjct
Width: 905
GlyphClass: 3
Flags: HMW
LayerCount: 2
Fore
SplineSet
218 476 m 1
 221 382 300 334 372 334 c 0
 445 334 524 386 524 480 c 0
 524 573 448 626 370 626 c 0
 285 626 218 565 218 483 c 2
 218 476 l 1
401 -92 m 0
 503 -92 619 -57 622 9 c 1
 622 15 l 2
 622 73 525 117 405 117 c 0
 294 117 184 78 184 12 c 0
 184 -56 296 -92 401 -92 c 0
640 126 m 1
 640 164 l 2
 640 228 681 236 724 263 c 0
 748 278 782 302 782 333 c 0
 782 371 722 385 678 385 c 0
 654 385 617 373 596 373 c 0
 590 371 592 371 576 361 c 1
 576 362 l 1
 535 293 458 253 382 253 c 0
 334 253 285 269 246 304 c 0
 236 313 228 318 225 318 c 1
 225 318 187 247 170 237 c 0
 152 226 145 225 115 225 c 0
 73 225 10 255 10 282 c 0
 10 284 42 314 47 314 c 0
 60 314 92 283 113 283 c 0
 150 283 154 309 154 363 c 2
 154 417 l 2
 154 505 149 625 149 734 c 1
 18 734 l 1
 -4 734 l 2
 -23 734 -42 734 -62 735 c 1
 -62 735 -32 749 -13 768 c 0
 -6 774 1 789 7 800 c 1
 7 812 l 1
 30 812 l 2
 177 812 431 804 431 804 c 1
 502 804 561 803 611 803 c 0
 773 803 833 811 833 875 c 0
 833 898 814 934 795 950 c 2
 778 964 l 1
 799 988 l 2
 810 1001 823 1012 827 1012 c 0
 870 1012 911 921 911 874 c 0
 911 801 864 734 778 734 c 2
 217 734 l 1
 217 614 l 1
 245 631 l 1
 265 648 323 682 374 682 c 0
 502 682 602 581 602 470 c 2
 602 461 l 1
 627 466 656 471 678 471 c 0
 774 471 880 422 880 333 c 0
 880 239 741 172 741 172 c 2
 739 170 747 167 746 164 c 1
 746 -82 l 2
 746 -104 761 -110 799 -110 c 0
 828 -110 874 -88 892 -88 c 0
 899 -88 946 -108 946 -110 c 0
 946 -128 854 -152 796 -152 c 0
 692 -152 665 -120 641 -84 c 1
 640 -84 l 2
 636 -84 623 -89 609 -95 c 0
 553 -119 484 -131 415 -131 c 0
 263 -131 101 -76 101 22 c 0
 101 112 222 151 390 173 c 0
 402 175 414 176 427 176 c 0
 500 176 582 151 610 139 c 2
 640 126 l 1
EndSplineSet
Validated: 1
LCarets2: 2 0 0
Ligature2: "'cjct' Conjunct Forms in Bengali2 lookup 13" u099b u09cd u09f1
Ligature2: "'cjct' Conjunct Forms in Bengali2 lookup 13" u099b u09cd u09ac
EndChar

StartChar: u099c_u09cd_u09ac.cjct
Encoding: 65660 -1 140
GlifName: u099c_u09cd_u09ac.cjct
Width: 1290
GlyphClass: 3
Flags: HMW
LayerCount: 2
Fore
SplineSet
197 216 m 0
 178 213 162 199 162 177 c 0
 162 146 191 121 222 121 c 0
 225 121 229 122 232 122 c 0
 252 125 267 138 267 161 c 0
 267 192 239 217 207 217 c 0
 204 217 200 216 197 216 c 0
1079 274 m 1
 1094 304 1101 339 1101 373 c 0
 1101 468 1045 526 975 559 c 2
 935 578 l 1
 762 578 l 1
 773 553 777 524 777 488 c 0
 777 247 570 6 343 6 c 0
 230 6 76 76 76 198 c 0
 76 271 139 321 209 321 c 0
 293 321 360 248 360 168 c 0
 360 139 349 113 328 92 c 1
 337 91 345 90 354 90 c 0
 525 90 691 320 691 497 c 0
 691 538 676 576 639 576 c 0
 598 576 567 545 543 517 c 0
 491 456 428 401 337 401 c 0
 250 401 201 469 201 555 c 0
 201 633 250 698 293 741 c 1
 11 741 l 1
 -11 741 l 2
 -30 741 -49 741 -69 742 c 1
 -69 742 -39 756 -20 775 c 0
 -15 780 -10 789 -5 798 c 1
 -5 821 l 1
 802 821 l 2
 876 821 1028 820 1071 820 c 0
 1198 820 1206 828 1206 887 c 0
 1206 910 1187 947 1168 963 c 2
 1151 977 l 1
 1171 1001 l 2
 1182 1014 1195 1025 1199 1025 c 0
 1242 1025 1284 932 1284 885 c 0
 1284 846 1269 810 1239 782 c 0
 1199 743 1108 743 811 742 c 1
 433 742 l 1
 375 716 291 635 291 552 c 0
 291 515 308 490 344 490 c 0
 395 490 435 527 464 562 c 0
 509 616 566 665 645 665 c 0
 669 665 691 657 707 647 c 1
 743 647 l 1
 780 653 809 661 834 661 c 0
 1038 661 1183 531 1183 370 c 0
 1183 336 1177 304 1166 274 c 1
 1120 118 l 1
 1120 -79 l 2
 1120 -97 1133 -102 1163 -102 c 0
 1186 -102 1223 -84 1237 -84 c 0
 1243 -84 1280 -100 1280 -102 c 0
 1280 -116 1206 -135 1160 -135 c 0
 1077 -135 1055 -110 1036 -81 c 0
 1033 -81 1022 -85 1011 -90 c 0
 966 -109 911 -118 856 -118 c 0
 734 -118 604 -74 604 4 c 0
 604 76 702 107 836 125 c 0
 846 127 855 127 865 127 c 0
 923 127 990 108 1012 98 c 2
 1036 87 l 1
 1036 118 l 1
 1079 274 l 1
856 -79 m 0
 938 -79 1031 -51 1033 2 c 1
 1033 6 l 2
 1033 57 969 89 884 89 c 0
 876 89 868 89 860 88 c 0
 771 82 683 57 683 4 c 0
 683 -50 772 -79 856 -79 c 0
EndSplineSet
Validated: 1
LCarets2: 2 0 0
Ligature2: "'cjct' Conjunct Forms in Bengali2 lookup 13" u099c u09cd u09f1
Ligature2: "'cjct' Conjunct Forms in Bengali2 lookup 13" u099c u09cd u09ac
EndChar

StartChar: u09a3_u09cd_u09ac.cjct
Encoding: 65661 -1 141
GlifName: u09a3_u09cd_u09ac.cjct
Width: 728
GlyphClass: 3
Flags: HMW
LayerCount: 2
Fore
SplineSet
433 221 m 1
 429 271 427 345 424 458 c 1
 424 741 l 1
 279 741 l 1
 239 725 l 1
 169 692 112 635 112 540 c 0
 112 457 156 367 244 367 c 0
 298 367 342 397 342 454 c 0
 342 479 317 517 301 517 c 0
 300 517 300 516 300 516 c 2
 278 494 280 461 239 461 c 0
 207 461 179 487 179 525 c 0
 179 564 218 598 265 598 c 0
 336 598 414 534 414 447 c 0
 414 361 337 299 245 299 c 0
 114 299 30 411 30 536 c 0
 30 686 154 812 344 817 c 0
 373 818 414 819 471 819 c 2
 488 819 l 1
 580 822 649 830 649 884 c 0
 649 907 630 944 611 960 c 2
 594 974 l 1
 614 997 l 2
 625 1010 638 1022 642 1022 c 0
 685 1022 727 929 727 882 c 0
 727 794 622 746 512 742 c 1
 512 468 l 2
 512 389 511 327 511 280 c 0
 511 263 514 250 514 238 c 0
 514 234 514 231 513 227 c 1
 516 221 l 1
 516 24 l 2
 516 6 529 1 559 1 c 0
 582 1 619 19 633 19 c 0
 639 19 676 3 676 1 c 0
 676 -13 602 -32 556 -32 c 0
 473 -32 451 -7 432 22 c 0
 429 22 418 18 407 13 c 0
 362 -6 307 -15 252 -15 c 0
 130 -15 0 29 0 107 c 0
 0 179 98 210 232 228 c 0
 242 230 251 230 261 230 c 0
 319 230 386 211 408 201 c 2
 432 190 l 1
 432 221 l 1
 433 221 l 1
252 24 m 0
 334 24 427 52 429 105 c 1
 429 109 l 2
 429 155 352 191 256 191 c 0
 167 191 79 160 79 107 c 0
 79 53 168 24 252 24 c 0
EndSplineSet
Validated: 1
LCarets2: 2 0 0
Ligature2: "'cjct' Conjunct Forms in Bengali2 lookup 13" u09a3 u09cd u09ac
Ligature2: "'cjct' Conjunct Forms in Bengali2 lookup 13" u09a3 u09cd u09f1
EndChar

StartChar: u09a4_u09cd_u09ac.cjct
Encoding: 65662 -1 142
GlifName: u09a4_u09cd_u09ac.cjct
Width: 790
GlyphClass: 3
Flags: HMW
LayerCount: 2
Fore
SplineSet
370 122 m 0
 452 122 545 150 547 203 c 1
 547 207 l 2
 547 253 470 289 374 289 c 0
 285 289 197 258 197 205 c 0
 197 151 286 122 370 122 c 0
208 635 m 0
 208 649 192 670 163 670 c 0
 139 670 116 654 116 636 c 0
 116 618 141 604 165 604 c 0
 191 604 208 621 208 635 c 0
566 663 m 0
 535 663 492 654 492 636 c 0
 492 622 537 610 562 588 c 2
 575 576 l 1
 532 576 488 578 445 578 c 1
 428 586 l 1
 405 598 386 621 385 636 c 0
 385 680 463 716 557 716 c 0
 695 716 758 650 758 578 c 0
 758 517 710 466 630 432 c 1
 634 432 l 1
 634 122 l 2
 634 104 647 99 677 99 c 0
 700 99 737 117 751 117 c 0
 757 117 794 101 794 99 c 0
 794 85 720 66 674 66 c 0
 591 66 569 91 550 120 c 0
 547 120 536 116 525 111 c 0
 480 92 425 83 370 83 c 0
 248 83 118 127 118 205 c 0
 118 277 216 308 350 326 c 0
 360 328 369 328 379 328 c 0
 437 328 504 309 526 299 c 2
 550 288 l 1
 550 406 l 1
 502 395 448 388 388 386 c 0
 380 386 372 385 364 385 c 0
 145 385 0 464 0 574 c 0
 0 650 51 717 169 717 c 0
 243 717 306 682 306 636 c 0
 304 590 251 556 166 556 c 0
 143 556 120 562 104 562 c 0
 101 562 100 561 100 557 c 0
 100 481 235 430 360 430 c 2
 379 430 l 1
 554 436 661 492 661 578 c 0
 661 622 619 663 566 663 c 0
403 818 m 2
 480 818 538 817 581 817 c 0
 705 817 712 825 712 885 c 0
 712 908 693 945 674 961 c 2
 657 975 l 1
 677 998 l 2
 689 1012 701 1022 705 1023 c 0
 749 1023 790 929 790 882 c 0
 790 843 775 808 745 780 c 0
 705 741 710 742 413 740 c 1
 -1 740 l 1
 -1 741 l 1
 -11 741 l 2
 -30 741 -49 741 -69 742 c 1
 -69 742 -39 756 -20 775 c 0
 -14 781 -7 794 -1 805 c 1
 -1 818 l 1
 7 818 l 1
 8 819 l 1
 8 818 l 1
 403 818 l 2
EndSplineSet
Validated: 1
LCarets2: 2 0 0
Ligature2: "'cjct' Conjunct Forms in Bengali2 lookup 13" u09a4 u09cd u09ac
Ligature2: "'cjct' Conjunct Forms in Bengali2 lookup 13" u09a4 u09cd u09f1
EndChar

StartChar: u09a6_u09cd_u09ac.cjct
Encoding: 65663 -1 143
GlifName: u09a6_u09cd_u09ac.cjct
Width: 717
GlyphClass: 3
Flags: HMW
LayerCount: 2
Fore
SplineSet
394 347 m 2
 395 347 395 346 395 346 c 1
 403 346 408 358 414 364 c 0
 427 377 434 389 434 398 c 0
 434 458 346 488 278 488 c 1
 278 741 l 1
 -3 741 l 1
 -3 743 l 1
 -14 743 l 2
 -33 743 -52 743 -72 744 c 1
 -72 744 -43 760 -23 777 c 0
 -16 783 -9 798 -3 809 c 1
 -3 819 l 1
 3 819 l 2
 4 819 4 821 5 821 c 1
 5 819 l 1
 565 819 l 2
 601 819 630 848 630 884 c 0
 630 922 603 954 578 975 c 1
 623 1027 l 1
 663 993 708 946 708 884 c 0
 708 806 643 741 565 741 c 2
 353 741 l 1
 353 570 l 1
 432 550 512 487 512 404 c 0
 512 390 518 378 518 366 c 0
 518 362 518 359 516 355 c 1
 516 158 l 2
 516 140 529 135 559 135 c 0
 582 135 619 153 633 153 c 0
 639 153 676 137 676 135 c 0
 676 121 602 102 556 102 c 0
 473 102 451 127 432 156 c 0
 429 156 418 152 407 147 c 0
 362 128 307 119 252 119 c 0
 130 119 0 163 0 241 c 0
 0 313 98 344 232 362 c 0
 242 364 251 364 261 364 c 0
 319 364 394 347 394 347 c 2
252 158 m 0
 334 158 427 186 429 239 c 1
 429 243 l 2
 429 289 352 325 256 325 c 0
 167 325 79 294 79 241 c 0
 79 187 168 158 252 158 c 0
EndSplineSet
Validated: 1
LCarets2: 2 0 0
Ligature2: "'cjct' Conjunct Forms in Bengali2 lookup 13" u09a6 u09cd u09ac
Ligature2: "'cjct' Conjunct Forms in Bengali2 lookup 13" u09a6 u09cd u09f1
EndChar

StartChar: u09a7_u09cd_u09ac.cjct
Encoding: 65664 -1 144
GlifName: u09a7_u09cd_u09ac.cjct
Width: 1366
VWidth: 1024
GlyphClass: 3
Flags: HMW
LayerCount: 2
Fore
SplineSet
522 282 m 1
 522 229 l 2
 522 190 547 151 584 151 c 0
 595 151 605 154 614 158 c 1
 574 189 542 231 522 282 c 1
522 739 m 1
 522 507 l 1
 563 609 663 664 791 696 c 0
 803 699 815 701 828 701 c 0
 901 701 983 653 1011 628 c 2
 1041 602 l 1
 1041 739 l 1
 522 739 l 1
817 187 m 0
 919 187 1038 255 1038 388 c 2
 1038 400 l 2
 1038 516 941 604 821 604 c 0
 710 604 600 527 600 395 c 0
 600 259 712 187 817 187 c 0
448 400 m 1
 307 395 142 398 142 260 c 0
 142 189 203 151 278 151 c 0
 353 151 407 207 448 257 c 1
 448 400 l 1
588 817 m 1
 893 817 l 2
 969 817 1031 816 1080 816 c 0
 1219 816 1257 824 1257 884 c 0
 1257 907 1238 944 1219 960 c 2
 1202 974 l 1
 1222 997 l 2
 1233 1010 1246 1022 1250 1022 c 0
 1293 1022 1335 929 1335 882 c 0
 1335 823 1334 769 1265 747 c 0
 1246 741 1165 742 1147 741 c 1
 1147 186 l 2
 1147 143 1162 130 1200 130 c 0
 1229 130 1275 175 1293 175 c 0
 1300 175 1347 133 1347 129 c 0
 1347 92 1255 47 1197 47 c 0
 1093 47 1066 110 1042 181 c 1
 1042 181 1042 182 1041 182 c 0
 1037 182 1024 172 1010 160 c 0
 954 112 885 88 816 88 c 0
 774 88 731 97 691 113 c 1
 664 83 628 58 584 58 c 0
 532 58 490 96 467 142 c 1
 424 99 360 58 285 58 c 0
 154 58 56 132 56 260 c 0
 56 346 101 421 161 448 c 1
 101 475 56 549 56 635 c 0
 56 734 116 838 211 838 c 0
 292 838 352 764 352 682 c 0
 352 617 304 557 241 557 c 1
 241 635 l 1
 263 635 278 659 278 682 c 0
 278 710 247 728 217 728 c 0
 173 728 142 681 142 635 c 0
 142 497 307 500 448 495 c 1
 448 741 l 1
 432 741 416 741 399 742 c 1
 399 742 429 756 448 775 c 1
 448 817 l 1
 454 817 482 819 484 819 c 2
 588 817 l 1
EndSplineSet
Validated: 1
LCarets2: 2 0 0
Ligature2: "'cjct' Conjunct Forms in Bengali2 lookup 13" u09a7 u09cd u09f1
Ligature2: "'cjct' Conjunct Forms in Bengali2 lookup 13" u09a7 u09cd u09ac
EndChar

StartChar: u09a8_u09cd_u09ac.cjct
Encoding: 65665 -1 145
GlifName: u09a8_u09cd_u09ac.cjct
Width: 689
GlyphClass: 3
Flags: HMW
LayerCount: 2
Fore
SplineSet
254 119 m 0
 336 119 429 147 431 200 c 1
 431 204 l 2
 431 250 354 286 258 286 c 0
 169 286 81 255 81 202 c 0
 81 148 170 119 254 119 c 0
245 819 m 2
 307 819 356 818 397 818 c 0
 538 818 599 826 599 890 c 0
 599 912 579 954 559 973 c 2
 544 987 l 1
 567 1011 l 2
 580 1024 594 1034 600 1034 c 0
 632 1034 683 945 683 888 c 0
 683 821 576 740 526 740 c 0
 521 740 519 738 519 735 c 0
 519 733 543 701 566 700 c 1
 612 683 653 602 653 550 c 0
 653 490 618 423 518 404 c 1
 518 119 l 2
 518 101 531 96 561 96 c 0
 584 96 621 114 635 114 c 0
 641 114 678 98 678 96 c 0
 678 82 604 63 558 63 c 0
 475 63 453 88 434 117 c 0
 431 117 420 113 409 108 c 0
 364 89 309 80 254 80 c 0
 132 80 2 124 2 202 c 0
 2 274 100 305 234 323 c 0
 244 325 253 325 263 325 c 0
 321 325 388 306 410 296 c 2
 434 285 l 1
 434 400 l 1
 274 410 308 532 205 566 c 0
 192 570 181 574 171 574 c 0
 122 574 101 542 101 516 c 0
 101 472 132 430 183 404 c 1
 209 392 l 1
 173 378 l 2
 153 370 135 365 132 365 c 0
 75 365 3 474 3 512 c 0
 3 568 58 622 170 622 c 0
 255 622 334 581 367 514 c 0
 382 485 400 448 453 448 c 0
 500 448 548 485 553 526 c 0
 553 530 554 534 554 538 c 0
 554 598 497 689 401 713 c 1
 361 730 l 1
 241 731 122 733 2 734 c 1
 2 741 l 1
 -11 741 l 2
 -30 741 -49 741 -69 742 c 1
 -69 742 -39 756 -20 775 c 0
 -13 782 -5 800 2 811 c 1
 2 819 l 1
 245 819 l 2
EndSplineSet
Validated: 1
LCarets2: 2 0 0
Ligature2: "'cjct' Conjunct Forms in Bengali2 lookup 13" u09a8 u09cd u09f1
Ligature2: "'cjct' Conjunct Forms in Bengali2 lookup 13" u09a8 u09cd u09ac
EndChar

StartChar: u09aa_u09cd_u09ac.cjct
Encoding: 65666 -1 146
GlifName: u09aa_u09cd_u09ac.cjct
Width: 812
VWidth: 1024
GlyphClass: 3
Flags: HMW
LayerCount: 2
Fore
SplineSet
696 997 m 2
 707 1010 720 1022 724 1022 c 0
 728 1022 745 1009 762 992 c 0
 786 968 795 954 802 928 c 0
 806 912 809 897 809 882 c 0
 809 843 795 790 765 762 c 0
 743 741 678 736 623 736 c 1
 623 -55 l 2
 623 -73 636 -78 666 -78 c 0
 689 -78 726 -60 740 -60 c 0
 746 -60 783 -76 783 -78 c 0
 783 -92 709 -111 663 -111 c 0
 580 -111 558 -86 539 -57 c 0
 536 -57 525 -61 514 -66 c 0
 469 -85 414 -94 359 -94 c 0
 237 -94 107 -50 107 28 c 0
 107 100 205 131 339 149 c 0
 349 151 358 151 368 151 c 0
 426 151 493 132 515 122 c 2
 539 111 l 1
 539 299 l 1
 474 231 363 161 246 161 c 0
 127 161 0 231 0 343 c 0
 0 415 56 469 116 485 c 1
 55 501 0 556 0 629 c 0
 0 739 119 811 234 811 c 0
 348 811 478 763 539 699 c 1
 539 739 l 1
 535 739 l 1
 537 741 l 1
 537 768 538 792 538 819 c 1
 560 819 579 819 596 819 c 0
 738 819 706 821 723 851 c 0
 728 860 731 875 731 884 c 0
 731 907 712 944 693 960 c 2
 676 974 l 1
 696 997 l 2
513 486 m 0
 513 622 381 720 241 720 c 0
 176 720 97 689 97 630 c 0
 97 565 172 526 241 526 c 1
 241 448 l 1
 173 448 97 408 97 344 c 0
 97 283 185 252 253 252 c 0
 389 252 513 353 513 486 c 0
359 -55 m 0
 441 -55 534 -27 536 26 c 1
 536 30 l 2
 536 76 459 112 363 112 c 0
 274 112 186 81 186 28 c 0
 186 -26 275 -55 359 -55 c 0
EndSplineSet
Validated: 1
LCarets2: 2 0 0
Ligature2: "'cjct' Conjunct Forms in Bengali2 lookup 13" u09aa u09cd u09f1
Ligature2: "'cjct' Conjunct Forms in Bengali2 lookup 13" u09aa u09cd u09ac
EndChar

StartChar: u09ac_u09cd_u09ac.cjct
Encoding: 65667 -1 147
GlifName: u09ac_u09cd_u09ac.cjct
Width: 1510
GlyphClass: 3
Flags: HMW
LayerCount: 2
Fore
SplineSet
642 822 m 1
 1059 822 l 2
 1136 822 1197 821 1246 821 c 2
 1259 821 l 2
 1387 821 1423 829 1423 887 c 0
 1423 910 1404 947 1385 963 c 2
 1368 977 l 1
 1388 1000 l 2
 1399 1013 1412 1025 1416 1025 c 0
 1459 1025 1501 932 1501 885 c 0
 1501 826 1500 772 1431 750 c 0
 1412 744 1331 745 1313 744 c 1
 1313 189 l 2
 1313 146 1328 133 1366 133 c 0
 1395 133 1441 178 1459 178 c 0
 1466 178 1513 136 1513 132 c 0
 1513 95 1421 50 1363 50 c 0
 1259 50 1232 113 1208 184 c 1
 1208 184 1208 185 1207 185 c 0
 1203 185 1190 175 1176 163 c 0
 1120 114 1051 91 982 91 c 0
 854 91 718 171 679 313 c 1
 679 186 l 1
 679 157 l 2
 679 119 679 58 682 52 c 1
 616 69 594 122 574 181 c 1
 574 181 574 182 573 182 c 0
 569 182 556 172 542 160 c 0
 486 111 417 88 348 88 c 0
 196 88 34 199 34 394 c 0
 34 573 155 651 323 696 c 0
 335 699 347 701 360 701 c 0
 433 701 515 653 543 628 c 2
 573 602 l 1
 573 739 l 1
 3 739 l 1
 3 741 l 1
 -11 741 l 2
 -30 741 -49 741 -69 742 c 1
 -69 742 -39 756 -20 775 c 0
 -12 782 -4 801 3 812 c 1
 3 817 l 1
 6 817 l 1
 7 818 7 819 8 819 c 1
 8 817 l 1
 425 817 l 2
 476 817 527 817 629 818 c 1
 642 822 l 1
349 187 m 0
 451 187 567 255 570 388 c 1
 570 400 l 2
 570 516 473 604 353 604 c 0
 242 604 132 527 132 395 c 0
 132 259 244 187 349 187 c 0
983 187 m 0
 1085 187 1201 255 1204 388 c 1
 1204 400 l 2
 1204 516 1107 604 987 604 c 0
 876 604 766 527 766 395 c 0
 766 259 878 187 983 187 c 0
756 742 m 1
 679 742 l 1
 679 484 l 1
 712 604 819 662 957 699 c 0
 969 702 981 704 994 704 c 0
 1067 704 1149 656 1177 631 c 2
 1207 605 l 1
 1207 742 l 1
 756 742 l 1
EndSplineSet
LCarets2: 2 0 0
Ligature2: "'cjct' Conjunct Forms in Bengali2 lookup 13" u09ac u09cd u09f1
Ligature2: "'cjct' Conjunct Forms in Bengali2 lookup 13" u09ac u09cd u09ac
EndChar

StartChar: u09b6_u09cd_u09ac.cjct
Encoding: 65668 -1 148
GlifName: u09b6_u09cd_u09ac.cjct
Width: 973
GlyphClass: 3
Flags: HMW
LayerCount: 2
Fore
SplineSet
851 997 m 2
 862 1010 875 1022 879 1022 c 0
 883 1022 900 1009 917 992 c 0
 941 968 950 954 957 928 c 0
 961 912 964 897 964 882 c 0
 964 843 943 790 913 762 c 0
 897 746 856 739 813 737 c 1
 813 -40 l 2
 813 -58 826 -63 856 -63 c 0
 879 -63 916 -45 930 -45 c 0
 936 -45 973 -61 973 -63 c 0
 973 -77 899 -96 853 -96 c 0
 770 -96 748 -71 729 -42 c 0
 726 -42 715 -46 704 -51 c 0
 659 -70 604 -79 549 -79 c 0
 427 -79 297 -35 297 43 c 0
 297 115 395 146 529 164 c 0
 539 166 548 166 558 166 c 0
 616 166 683 147 705 137 c 2
 734 126 l 1
 734 741 l 1
 528 741 l 1
 467 719 400 644 400 563 c 1
 431 589 469 615 517 615 c 0
 624 615 712 527 712 420 c 0
 712 313 624 225 517 225 c 0
 449 225 395 269 368 316 c 1
 341 268 287 225 218 225 c 0
 111 225 23 313 23 420 c 0
 23 527 111 615 218 615 c 0
 266 615 304 589 335 563 c 1
 335 636 358 701 400 732 c 2
 518 819 l 1
 686 819 l 1
 730 819 l 1
 754 819 l 2
 892 819 861 821 878 851 c 0
 883 860 886 875 886 884 c 0
 886 907 867 944 848 960 c 2
 831 974 l 1
 851 997 l 2
517 316 m 0
 573 316 621 364 621 420 c 0
 621 477 574 524 517 524 c 0
 460 524 413 477 413 420 c 0
 413 364 461 316 517 316 c 0
218 316 m 0
 275 316 322 363 322 420 c 0
 322 478 276 524 218 524 c 0
 160 524 114 478 114 420 c 0
 114 363 161 316 218 316 c 0
549 -40 m 0
 631 -40 724 -12 726 41 c 1
 726 45 l 2
 726 91 649 127 553 127 c 0
 464 127 376 96 376 43 c 0
 376 -11 465 -40 549 -40 c 0
EndSplineSet
LCarets2: 2 0 0
Ligature2: "'cjct' Conjunct Forms in Bengali2 lookup 13" u09b6 u09cd u09f1
Ligature2: "'cjct' Conjunct Forms in Bengali2 lookup 13" u09b6 u09cd u09ac
EndChar

StartChar: u09b8_u09cd_u09ac.cjct
Encoding: 65669 -1 149
GlifName: u09b8_u09cd_u09ac.cjct
Width: 776
VWidth: 1024
GlyphClass: 3
Flags: HMW
LayerCount: 2
Fore
SplineSet
301 139 m 0
 383 139 476 174 478 240 c 1
 478 246 l 2
 478 304 401 348 305 348 c 0
 216 348 128 309 128 243 c 0
 128 175 217 139 301 139 c 0
565 419 m 2
 565 139 l 2
 565 117 578 110 608 110 c 0
 631 110 668 133 682 133 c 0
 688 133 725 112 725 110 c 0
 725 92 651 69 605 69 c 0
 522 69 500 101 481 137 c 0
 478 137 467 132 456 126 c 0
 411 102 356 90 301 90 c 0
 179 90 49 145 49 243 c 0
 49 333 147 372 281 394 c 0
 291 396 300 397 310 397 c 0
 368 397 435 372 457 360 c 2
 481 347 l 1
 481 472 l 1
 481 473 l 1
 481 480 l 1
 481 480 483 497 483 514 c 0
 483 517 483 520 483 523 c 1
 454 488 365 466 273 466 c 0
 150 466 57 508 0 548 c 1
 65 570 l 1
 109 539 181 505 273 505 c 0
 334 505 403 523 403 551 c 0
 403 579 335 594 279 596 c 0
 169 601 39 633 39 687 c 0
 39 721 59 724 119 741 c 1
 8 741 l 1
 -79 741 l 1
 -51 764 -14 764 2 820 c 1
 633 820 l 2
 669 820 698 849 698 885 c 0
 698 924 671 955 646 976 c 1
 698 1028 l 1
 737 995 776 949 776 885 c 0
 776 807 711 742 633 742 c 2
 213 742 l 1
 214 741 l 1
 170 740 130 707 130 687 c 0
 130 655 224 638 292 635 c 0
 376 631 449 611 481 579 c 1
 481 733 l 1
 481 741 l 1
 483 740 l 1
 563 740 l 1
 563 612 l 2
 563 569 562 537 562 515 c 0
 562 512 565 422 565 419 c 2
EndSplineSet
Validated: 1
LCarets2: 2 0 0
Ligature2: "'cjct' Conjunct Forms in Bengali2 lookup 13" u09b8 u09cd u09f1
Ligature2: "'cjct' Conjunct Forms in Bengali2 lookup 13" u09b8 u09cd u09ac
EndChar

StartChar: u09a6_u09cd_u09a8.cjct
Encoding: 65670 -1 150
GlifName: u09a6_u09cd_u09a8.cjct
Width: 625
VWidth: 1024
GlyphClass: 3
Flags: HMW
LayerCount: 2
Fore
SplineSet
322 299 m 0
 229 299 120 335 120 395 c 0
 120 460 216 478 264 512 c 0
 277 521 284 530 284 536 c 0
 284 575 207 577 141 577 c 2
 132 577 l 1
 132 739 l 1
 0 739 l 1
 0 741 l 1
 -11 741 l 2
 -30 741 -49 741 -69 742 c 1
 -69 742 -39 756 -20 775 c 0
 -13 781 -6 796 0 807 c 1
 0 817 l 1
 6 817 l 1
 7 818 7 819 8 819 c 1
 8 817 l 1
 474 817 l 2
 510 817 539 846 539 882 c 0
 539 920 512 952 487 973 c 1
 532 1025 l 1
 572 991 617 944 617 882 c 0
 617 804 552 739 474 739 c 2
 207 739 l 1
 207 644 l 1
 286 624 362 598 362 540 c 0
 362 497 321 463 278 445 c 0
 254 435 218 417 218 395 c 0
 218 371 281 358 322 358 c 0
 386 358 446 376 492 395 c 1
 538 350 l 1
 537 349 536 349 535 348 c 1
 579 327 617 250 617 200 c 0
 617 129 568 49 421 49 c 0
 235 49 277 180 169 216 c 0
 156 220 145 223 135 223 c 0
 86 223 65 191 65 165 c 0
 65 121 96 80 147 54 c 2
 173 41 l 1
 137 28 l 2
 117 20 99 15 96 15 c 0
 39 15 -33 124 -33 162 c 0
 -33 218 22 272 134 272 c 0
 219 272 298 231 331 164 c 0
 346 135 364 98 417 98 c 0
 464 98 512 135 517 176 c 0
 517 180 518 183 518 187 c 0
 518 226 495 277 453 315 c 1
 415 305 371 299 322 299 c 0
EndSplineSet
LCarets2: 2 0 0
Ligature2: "'cjct' Conjunct Forms in Bengali2 lookup 13" u09a6 u09cd u09a8
EndChar

StartChar: u09a7_u09cd_u09a8.cjct
Encoding: 65671 -1 151
GlifName: u09a7_u09cd_u09a8.cjct
Width: 694
VWidth: 1024
GlyphClass: 3
Flags: HMW
LayerCount: 2
Fore
SplineSet
590 445 m 1
 635 426 675 347 675 296 c 0
 675 225 626 145 479 145 c 0
 293 145 335 276 227 312 c 0
 214 316 203 319 193 319 c 0
 144 319 123 287 123 261 c 0
 123 217 154 176 205 150 c 2
 231 137 l 1
 195 124 l 2
 175 116 157 111 154 111 c 0
 97 111 25 220 25 258 c 0
 25 314 80 368 192 368 c 0
 277 368 356 327 389 260 c 0
 404 231 422 194 475 194 c 0
 522 194 570 231 575 272 c 0
 575 276 576 279 576 283 c 0
 576 340 527 423 441 453 c 1
 444 453 450 453 458 452 c 1
 440 459 426 470 416 480 c 1
 373 458 309 438 234 438 c 0
 103 438 5 475 5 539 c 0
 5 582 50 619 110 633 c 1
 86 638 63 648 46 660 c 0
 21 678 5 701 5 726 c 0
 5 776 65 828 160 828 c 0
 241 828 301 791 301 750 c 0
 301 718 253 688 190 688 c 1
 190 726 l 1
 212 726 227 738 227 750 c 0
 227 764 196 773 166 773 c 0
 122 773 91 749 91 726 c 0
 91 657 239 658 373 656 c 1
 373 818 l 1
 429 820 617 824 617 884 c 0
 617 907 598 944 579 960 c 2
 562 974 l 1
 582 997 l 2
 593 1010 606 1022 610 1022 c 0
 656 1022 696 924 696 875 c 0
 696 852 675 740 636 740 c 0
 633 740 638 741 619 741 c 2
 477 741 l 1
 477 524 l 1
 471 523 l 2
 471 504 497 484 533 484 c 0
 572 484 601 502 620 516 c 1
 669 484 l 1
 649 470 623 454 590 445 c 1
397 609 m 1
 256 607 91 608 91 539 c 0
 91 503 152 484 227 484 c 0
 302 484 356 513 397 538 c 1
 397 609 l 1
441 453 m 1
 440 453 440 454 439 454 c 1
 439 454 440 453 441 453 c 1
EndSplineSet
LCarets2: 2 0 0
Ligature2: "'cjct' Conjunct Forms in Bengali2 lookup 13" u09a7 u09cd u09a8
EndChar

StartChar: u09a8_u09cd._u09a4.cjct
Encoding: 65672 -1 152
GlifName: u09a8_u09cd._u09a4.cjct
Width: 653
GlyphClass: 3
Flags: HMW
LayerCount: 2
Fore
SplineSet
291 300 m 0
 291 316 281 341 264 341 c 0
 250 341 236 323 236 302 c 0
 236 280 252 263 266 263 c 0
 282 263 291 283 291 300 c 0
506 333 m 0
 487 333 462 322 462 300 c 0
 462 283 489 269 504 243 c 2
 512 229 l 1
 486 230 460 230 434 231 c 1
 423 242 l 2
 409 256 399 283 398 301 c 0
 398 354 445 398 501 398 c 0
 584 398 621 317 621 231 c 0
 621 101 530 7 399 -0 c 1
 385 -0 l 2
 254 0 167 95 167 227 c 0
 167 318 197 398 268 398 c 0
 312 398 350 357 350 302 c 0
 349 246 317 206 266 206 c 0
 252 206 239 212 229 212 c 0
 227 212 227 210 227 206 c 0
 227 115 308 54 383 54 c 2
 394 54 l 1
 499 62 563 128 563 232 c 0
 563 285 538 333 506 333 c 0
245 819 m 2
 307 819 356 818 397 818 c 0
 538 818 564 826 564 890 c 0
 564 912 544 954 524 973 c 2
 509 987 l 1
 532 1011 l 2
 545 1024 559 1034 565 1034 c 0
 597 1034 648 945 648 888 c 0
 648 821 576 740 526 740 c 0
 521 740 519 738 519 735 c 0
 519 733 543 701 566 700 c 1
 612 683 653 602 653 550 c 0
 653 479 604 399 457 399 c 0
 271 399 313 530 205 566 c 0
 192 570 181 574 171 574 c 0
 122 574 101 542 101 516 c 0
 101 472 132 430 183 404 c 1
 209 392 l 1
 173 378 l 2
 153 370 135 365 132 365 c 0
 75 365 3 474 3 512 c 0
 3 568 58 622 170 622 c 0
 255 622 334 581 367 514 c 0
 382 485 400 448 453 448 c 0
 500 448 548 485 553 526 c 0
 553 530 554 534 554 538 c 0
 554 598 497 689 401 713 c 1
 361 730 l 1
 241 731 122 733 2 734 c 1
 2 741 l 1
 -11 741 l 2
 -30 741 -49 741 -69 742 c 1
 -69 742 -39 756 -20 775 c 0
 -13 782 -5 800 2 811 c 1
 2 819 l 1
 245 819 l 2
EndSplineSet
Validated: 1
LCarets2: 2 0 0
Ligature2: "'cjct' Conjunct Forms in Bengali2 lookup 13" u09a8 u09cd u09a4
EndChar

StartChar: u09a8_u09cd_u09a4_u09b0.vatu
Encoding: 65673 -1 153
GlifName: u09a8_u09cd_u09a4_u09b0.vatu
Width: 653
GlyphClass: 3
Flags: HMW
AnchorPoint: "Anchor-1" 501 -139 basechar 0
LayerCount: 2
Fore
SplineSet
245 819 m 2
 307 819 356 818 397 818 c 0
 538 818 564 826 564 890 c 0
 564 912 544 954 524 973 c 2
 509 987 l 1
 532 1011 l 2
 545 1024 559 1034 565 1034 c 0
 597 1034 648 945 648 888 c 0
 648 821 576 740 526 740 c 0
 521 740 519 738 519 735 c 0
 519 733 543 701 566 700 c 1
 612 683 653 602 653 550 c 0
 653 479 604 399 457 399 c 0
 271 399 313 530 205 566 c 0
 192 570 181 574 171 574 c 0
 122 574 101 542 101 516 c 0
 101 472 132 430 183 404 c 1
 209 392 l 1
 173 378 l 2
 153 370 135 365 132 365 c 0
 75 365 3 474 3 512 c 0
 3 568 58 622 170 622 c 0
 255 622 334 581 367 514 c 0
 382 485 400 448 453 448 c 0
 500 448 548 485 553 526 c 0
 553 530 554 534 554 538 c 0
 554 598 497 689 401 713 c 1
 361 730 l 1
 241 731 122 733 2 734 c 1
 2 741 l 1
 -11 741 l 2
 -30 741 -49 741 -69 742 c 1
 -69 742 -39 756 -20 775 c 0
 -13 782 -5 800 2 811 c 1
 2 819 l 1
 245 819 l 2
506 333 m 0
 487 333 462 322 462 300 c 0
 462 283 489 269 504 243 c 2
 512 229 l 1
 486 230 460 230 434 231 c 1
 423 242 l 2
 409 256 399 283 398 301 c 0
 398 354 445 398 501 398 c 0
 584 398 621 317 621 231 c 0
 621 147 583 78 521 38 c 1
 529 38 l 1
 504 -38 477 -102 445 -153 c 0
 413 -204 380 -241 344 -261 c 0
 303 -285 254 -297 194 -297 c 0
 134 -297 70 -286 2 -264 c 1
 22 -203 l 1
 76 -221 128 -229 177 -229 c 0
 295 -229 343 -188 392 -106 c 0
 414 -69 431 -40 449 7 c 1
 433 3 417 1 399 -0 c 1
 385 -0 l 2
 254 0 167 95 167 227 c 0
 167 318 197 398 268 398 c 0
 312 398 350 357 350 302 c 0
 349 246 317 206 266 206 c 0
 252 206 239 212 229 212 c 0
 227 212 227 210 227 206 c 0
 227 115 308 54 383 54 c 2
 394 54 l 1
 499 62 563 128 563 232 c 0
 563 285 538 333 506 333 c 0
291 300 m 0
 291 316 281 341 264 341 c 0
 250 341 236 323 236 302 c 0
 236 280 252 263 266 263 c 0
 282 263 291 283 291 300 c 0
EndSplineSet
Validated: 1
LCarets2: 2 0 0
Ligature2: "'cjct' Conjunct Forms in Bengali2 lookup 13" u09a8 u09cd u09a4_u09b0_u09cd
EndChar

